<?xml version="1.0" standalone="no"?>
 <!DOCTYPE svg PUBLIC "-//W3C//DTD SVG 1.1//EN" 
 "http://www.w3.org/Graphics/SVG/1.1/DTD/svg11.dtd"> 
<svg xmlns="http://www.w3.org/2000/svg" version="1.1" 
    width="29.7002cm" height="21.0007cm" viewBox="0 0 116930 82680 ">
<title>SVG Picture created as hmost-B.Cu.svg date 2017/02/19 16:46:33 </title>
  <desc>Picture generated by PCBNEW </desc>
<g style="fill:#000000; fill-opacity:1;stroke:#000000; stroke-opacity:1;
stroke-linecap:round; stroke-linejoin:round; "
 transform="translate(0 0) scale(1 1)">
</g>
<g style="fill:#000000; fill-opacity:0.0; 
stroke:#000000; stroke-width:-0.000393701; stroke-opacity:1; 
stroke-linecap:round; stroke-linejoin:round;">
</g>
<g style="fill:#000000; fill-opacity:0.0; 
stroke:#000000; stroke-width:0; stroke-opacity:1; 
stroke-linecap:round; stroke-linejoin:round;">
</g>
<g style="fill:#000000; fill-opacity:1.0; 
stroke:#000000; stroke-width:0; stroke-opacity:1; 
stroke-linecap:round; stroke-linejoin:round;">
<polyline style="fill-rule:evenodd;"
points="16909,-3129
16909,-3799
17578,-3799
17578,-3129
16909,-3129
" /> 
<polyline style="fill-rule:evenodd;"
points="25137,-12421
25137,-13090
25807,-13090
25807,-12421
25137,-12421
" /> 
<polyline style="fill-rule:evenodd;"
points="25137,-9232
25137,-9901
25807,-9901
25807,-9232
25137,-9232
" /> 
<polyline style="fill-rule:evenodd;"
points="19291,-5531
19783,-5531
19783,-4940
19291,-4940
19291,-5531
" /> 
<polyline style="fill-rule:evenodd;"
points="19291,-4547
19783,-4547
19783,-3956
19291,-3956
19291,-4547
" /> 
<polyline style="fill-rule:evenodd;"
points="21948,-3208
21948,-2716
21358,-2716
21358,-3208
21948,-3208
" /> 
<polyline style="fill-rule:evenodd;"
points="20964,-3208
20964,-2716
20374,-2716
20374,-3208
20964,-3208
" /> 
<polyline style="fill-rule:evenodd;"
points="23188,-4094
23011,-4094
23011,-4783
23188,-4783
23188,-4094
" /> 
<polyline style="fill-rule:evenodd;"
points="22933,-4094
22755,-4094
22755,-4783
22933,-4783
22933,-4094
" /> 
<polyline style="fill-rule:evenodd;"
points="22677,-4094
22500,-4094
22500,-4783
22677,-4783
22677,-4094
" /> 
<polyline style="fill-rule:evenodd;"
points="22421,-4094
22244,-4094
22244,-4783
22421,-4783
22421,-4094
" /> 
<polyline style="fill-rule:evenodd;"
points="22165,-4094
21988,-4094
21988,-4783
22165,-4783
22165,-4094
" /> 
<polyline style="fill-rule:evenodd;"
points="21909,-4094
21732,-4094
21732,-4783
21909,-4783
21909,-4094
" /> 
<polyline style="fill-rule:evenodd;"
points="21653,-4094
21476,-4094
21476,-4783
21653,-4783
21653,-4094
" /> 
<polyline style="fill-rule:evenodd;"
points="21397,-4094
21220,-4094
21220,-4783
21397,-4783
21397,-4094
" /> 
<polyline style="fill-rule:evenodd;"
points="21141,-4094
20964,-4094
20964,-4783
21141,-4783
21141,-4094
" /> 
<polyline style="fill-rule:evenodd;"
points="20885,-4094
20708,-4094
20708,-4783
20885,-4783
20885,-4094
" /> 
<polyline style="fill-rule:evenodd;"
points="20885,-6929
20708,-6929
20708,-7618
20885,-7618
20885,-6929
" /> 
<polyline style="fill-rule:evenodd;"
points="21141,-6929
20964,-6929
20964,-7618
21141,-7618
21141,-6929
" /> 
<polyline style="fill-rule:evenodd;"
points="21397,-6929
21220,-6929
21220,-7618
21397,-7618
21397,-6929
" /> 
<polyline style="fill-rule:evenodd;"
points="21653,-6929
21476,-6929
21476,-7618
21653,-7618
21653,-6929
" /> 
<polyline style="fill-rule:evenodd;"
points="21909,-6929
21732,-6929
21732,-7618
21909,-7618
21909,-6929
" /> 
<polyline style="fill-rule:evenodd;"
points="22165,-6929
21988,-6929
21988,-7618
22165,-7618
22165,-6929
" /> 
<polyline style="fill-rule:evenodd;"
points="22421,-6929
22244,-6929
22244,-7618
22421,-7618
22421,-6929
" /> 
<polyline style="fill-rule:evenodd;"
points="22677,-6929
22500,-6929
22500,-7618
22677,-7618
22677,-6929
" /> 
<polyline style="fill-rule:evenodd;"
points="22933,-6929
22755,-6929
22755,-7618
22933,-7618
22933,-6929
" /> 
<polyline style="fill-rule:evenodd;"
points="23188,-6929
23011,-6929
23011,-7618
23188,-7618
23188,-6929
" /> 
<polyline style="fill-rule:evenodd;"
points="4974,-14376
5774,-14376
5774,-13576
4974,-13576
4974,-14376
" /> 
</g>
<g style="fill:#000000; fill-opacity:1.0; 
stroke:#000000; stroke-width:800; stroke-opacity:1; 
stroke-linecap:round; stroke-linejoin:round;">
</g>
<g style="fill:#000000; fill-opacity:0.0; 
stroke:#000000; stroke-width:800; stroke-opacity:1; 
stroke-linecap:round; stroke-linejoin:round;">
<path d="M6374 -13976
L6374 -13976
" />
</g>
<g style="fill:#000000; fill-opacity:0.0; 
stroke:#000000; stroke-width:0; stroke-opacity:1; 
stroke-linecap:round; stroke-linejoin:round;">
</g>
<g style="fill:#000000; fill-opacity:1.0; 
stroke:#000000; stroke-width:0; stroke-opacity:1; 
stroke-linecap:round; stroke-linejoin:round;">
<polyline style="fill-rule:evenodd;"
points="10951,-13576
10151,-13576
10151,-14376
10951,-14376
10951,-13576
" /> 
</g>
<g style="fill:#000000; fill-opacity:1.0; 
stroke:#000000; stroke-width:800; stroke-opacity:1; 
stroke-linecap:round; stroke-linejoin:round;">
</g>
<g style="fill:#000000; fill-opacity:0.0; 
stroke:#000000; stroke-width:800; stroke-opacity:1; 
stroke-linecap:round; stroke-linejoin:round;">
<path d="M11551 -13976
L11551 -13976
" />
</g>
<g style="fill:#000000; fill-opacity:0.0; 
stroke:#000000; stroke-width:0; stroke-opacity:1; 
stroke-linecap:round; stroke-linejoin:round;">
</g>
<g style="fill:#000000; fill-opacity:1.0; 
stroke:#000000; stroke-width:0; stroke-opacity:1; 
stroke-linecap:round; stroke-linejoin:round;">
<polyline style="fill-rule:evenodd;"
points="24638,-4087
24638,-4967
25518,-4967
25518,-4087
24638,-4087
" /> 
<polyline style="fill-rule:evenodd;"
points="24638,-6882
24638,-7762
25518,-7762
25518,-6882
24638,-6882
" /> 
<polyline style="fill-rule:evenodd;"
points="16069,-13576
15269,-13576
15269,-14376
16069,-14376
16069,-13576
" /> 
</g>
<g style="fill:#000000; fill-opacity:1.0; 
stroke:#000000; stroke-width:800; stroke-opacity:1; 
stroke-linecap:round; stroke-linejoin:round;">
</g>
<g style="fill:#000000; fill-opacity:0.0; 
stroke:#000000; stroke-width:800; stroke-opacity:1; 
stroke-linecap:round; stroke-linejoin:round;">
<path d="M16669 -13976
L16669 -13976
" />
</g>
<g style="fill:#000000; fill-opacity:0.0; 
stroke:#000000; stroke-width:0; stroke-opacity:1; 
stroke-linecap:round; stroke-linejoin:round;">
</g>
<g style="fill:#000000; fill-opacity:1.0; 
stroke:#000000; stroke-width:0; stroke-opacity:1; 
stroke-linecap:round; stroke-linejoin:round;">
<polyline style="fill-rule:evenodd;"
points="21226,-13576
20426,-13576
20426,-14376
21226,-14376
21226,-13576
" /> 
</g>
<g style="fill:#000000; fill-opacity:1.0; 
stroke:#000000; stroke-width:800; stroke-opacity:1; 
stroke-linecap:round; stroke-linejoin:round;">
</g>
<g style="fill:#000000; fill-opacity:0.0; 
stroke:#000000; stroke-width:800; stroke-opacity:1; 
stroke-linecap:round; stroke-linejoin:round;">
<path d="M21826 -13976
L21826 -13976
" />
</g>
<g style="fill:#000000; fill-opacity:0.0; 
stroke:#000000; stroke-width:0; stroke-opacity:1; 
stroke-linecap:round; stroke-linejoin:round;">
</g>
<g style="fill:#000000; fill-opacity:1.0; 
stroke:#000000; stroke-width:0; stroke-opacity:1; 
stroke-linecap:round; stroke-linejoin:round;">
<polyline style="fill-rule:evenodd;"
points="1318,-8051
1318,-8366
1673,-8366
1673,-8051
1318,-8051
" /> 
<polyline style="fill-rule:evenodd;"
points="1318,-8799
1318,-9114
1673,-9114
1673,-8799
1318,-8799
" /> 
<polyline style="fill-rule:evenodd;"
points="2106,-8425
2106,-8740
2460,-8740
2460,-8425
2106,-8425
" /> 
<polyline style="fill-rule:evenodd;"
points="6555,-8366
6555,-8681
6909,-8681
6909,-8366
6555,-8366
" /> 
<polyline style="fill-rule:evenodd;"
points="6555,-9114
6555,-9429
6909,-9429
6909,-9114
6555,-9114
" /> 
<polyline style="fill-rule:evenodd;"
points="7342,-8740
7342,-9055
7696,-9055
7696,-8740
7342,-8740
" /> 
<polyline style="fill-rule:evenodd;"
points="3818,-8326
3818,-8641
4173,-8641
4173,-8326
3818,-8326
" /> 
<polyline style="fill-rule:evenodd;"
points="3818,-9074
3818,-9389
4173,-9389
4173,-9074
3818,-9074
" /> 
<polyline style="fill-rule:evenodd;"
points="4606,-8700
4606,-9015
4960,-9015
4960,-8700
4606,-8700
" /> 
<polyline style="fill-rule:evenodd;"
points="9222,-8346
9222,-8661
9576,-8661
9576,-8346
9222,-8346
" /> 
<polyline style="fill-rule:evenodd;"
points="9222,-9094
9222,-9409
9576,-9409
9576,-9094
9222,-9094
" /> 
<polyline style="fill-rule:evenodd;"
points="10009,-8720
10009,-9035
10364,-9035
10364,-8720
10009,-8720
" /> 
<polyline style="fill-rule:evenodd;"
points="11476,-8051
11476,-8366
11830,-8366
11830,-8051
11476,-8051
" /> 
<polyline style="fill-rule:evenodd;"
points="11476,-8799
11476,-9114
11830,-9114
11830,-8799
11476,-8799
" /> 
<polyline style="fill-rule:evenodd;"
points="12263,-8425
12263,-8740
12618,-8740
12618,-8425
12263,-8425
" /> 
<polyline style="fill-rule:evenodd;"
points="16751,-7893
16751,-8208
17106,-8208
17106,-7893
16751,-7893
" /> 
<polyline style="fill-rule:evenodd;"
points="16751,-8641
16751,-8956
17106,-8956
17106,-8641
16751,-8641
" /> 
<polyline style="fill-rule:evenodd;"
points="17539,-8267
17539,-8582
17893,-8582
17893,-8267
17539,-8267
" /> 
<polyline style="fill-rule:evenodd;"
points="14350,-7893
14350,-8208
14704,-8208
14704,-7893
14350,-7893
" /> 
<polyline style="fill-rule:evenodd;"
points="14350,-8641
14350,-8956
14704,-8956
14704,-8641
14350,-8641
" /> 
<polyline style="fill-rule:evenodd;"
points="15137,-8267
15137,-8582
15492,-8582
15492,-8267
15137,-8267
" /> 
<polyline style="fill-rule:evenodd;"
points="17332,-6023
17332,-6338
17687,-6338
17687,-6023
17332,-6023
" /> 
<polyline style="fill-rule:evenodd;"
points="17332,-6771
17332,-7086
17687,-7086
17687,-6771
17332,-6771
" /> 
<polyline style="fill-rule:evenodd;"
points="18120,-6397
18120,-6712
18474,-6712
18474,-6397
18120,-6397
" /> 
</g>
<g style="fill:#000000; fill-opacity:1.0; 
stroke:#000000; stroke-width:629.921; stroke-opacity:1; 
stroke-linecap:round; stroke-linejoin:round;">
</g>
<g style="fill:#000000; fill-opacity:0.0; 
stroke:#000000; stroke-width:629.921; stroke-opacity:1; 
stroke-linecap:round; stroke-linejoin:round;">
<path d="M12431 -5974
L12431 -5698
" />
<path d="M11431 -5974
L11431 -5698
" />
<path d="M10431 -5974
L10431 -5698
" />
<path d="M9431 -5974
L9431 -5698
" />
<path d="M8431 -5974
L8431 -5698
" />
<path d="M7431 -5974
L7431 -5698
" />
<path d="M6431 -5974
L6431 -5698
" />
<path d="M5431 -5974
L5431 -5698
" />
<path d="M5431 -2974
L5431 -2698
" />
<path d="M6431 -2974
L6431 -2698
" />
<path d="M7431 -2974
L7431 -2698
" />
<path d="M8431 -2974
L8431 -2698
" />
<path d="M9431 -2974
L9431 -2698
" />
<path d="M10431 -2974
L10431 -2698
" />
<path d="M11431 -2974
L11431 -2698
" />
<path d="M12431 -2974
L12431 -2698
" />
</g>
<g style="fill:#000000; fill-opacity:0.0; 
stroke:#000000; stroke-width:0; stroke-opacity:1; 
stroke-linecap:round; stroke-linejoin:round;">
</g>
<g style="fill:#000000; fill-opacity:1.0; 
stroke:#000000; stroke-width:0; stroke-opacity:1; 
stroke-linecap:round; stroke-linejoin:round;">
<polyline style="fill-rule:evenodd;"
points="21820,-2165
21820,-1870
21348,-1870
21348,-2165
21820,-2165
" /> 
<polyline style="fill-rule:evenodd;"
points="21072,-2165
21072,-1870
20600,-1870
20600,-2165
21072,-2165
" /> 
<polyline style="fill-rule:evenodd;"
points="6181,-12775
6181,-12421
5708,-12421
5708,-12775
6181,-12775
" /> 
<polyline style="fill-rule:evenodd;"
points="5314,-12775
5314,-12421
4842,-12421
4842,-12775
5314,-12775
" /> 
<polyline style="fill-rule:evenodd;"
points="11732,-12775
11732,-12421
11259,-12421
11259,-12775
11732,-12775
" /> 
<polyline style="fill-rule:evenodd;"
points="10866,-12775
10866,-12421
10393,-12421
10393,-12775
10866,-12775
" /> 
<polyline style="fill-rule:evenodd;"
points="2303,-15629
1948,-15629
1948,-16102
2303,-16102
2303,-15629
" /> 
<polyline style="fill-rule:evenodd;"
points="2303,-16496
1948,-16496
1948,-16968
2303,-16968
2303,-16496
" /> 
<polyline style="fill-rule:evenodd;"
points="9271,-15669
8917,-15669
8917,-16141
9271,-16141
9271,-15669
" /> 
<polyline style="fill-rule:evenodd;"
points="9271,-16535
8917,-16535
8917,-17007
9271,-17007
9271,-16535
" /> 
<polyline style="fill-rule:evenodd;"
points="8051,-15629
7696,-15629
7696,-16102
8051,-16102
8051,-15629
" /> 
<polyline style="fill-rule:evenodd;"
points="8051,-16496
7696,-16496
7696,-16968
8051,-16968
8051,-16496
" /> 
<polyline style="fill-rule:evenodd;"
points="12657,-15590
12303,-15590
12303,-16062
12657,-16062
12657,-15590
" /> 
<polyline style="fill-rule:evenodd;"
points="12657,-16456
12303,-16456
12303,-16929
12657,-16929
12657,-16456
" /> 
<polyline style="fill-rule:evenodd;"
points="7992,-12421
7992,-12775
8464,-12775
8464,-12421
7992,-12421
" /> 
<polyline style="fill-rule:evenodd;"
points="8858,-12421
8858,-12775
9330,-12775
9330,-12421
8858,-12421
" /> 
<polyline style="fill-rule:evenodd;"
points="13110,-12421
13110,-12775
13582,-12775
13582,-12421
13110,-12421
" /> 
<polyline style="fill-rule:evenodd;"
points="13976,-12421
13976,-12775
14448,-12775
14448,-12421
13976,-12421
" /> 
<polyline style="fill-rule:evenodd;"
points="22657,-1899
22303,-1899
22303,-2372
22657,-2372
22657,-1899
" /> 
<polyline style="fill-rule:evenodd;"
points="22657,-2765
22303,-2765
22303,-3238
22657,-3238
22657,-2765
" /> 
<polyline style="fill-rule:evenodd;"
points="16653,-12893
16653,-12539
16181,-12539
16181,-12893
16653,-12893
" /> 
<polyline style="fill-rule:evenodd;"
points="15787,-12893
15787,-12539
15314,-12539
15314,-12893
15787,-12893
" /> 
<polyline style="fill-rule:evenodd;"
points="23622,-11535
23267,-11535
23267,-12007
23622,-12007
23622,-11535
" /> 
<polyline style="fill-rule:evenodd;"
points="23622,-12401
23267,-12401
23267,-12874
23622,-12874
23622,-12401
" /> 
<polyline style="fill-rule:evenodd;"
points="14311,-15590
13956,-15590
13956,-16062
14311,-16062
14311,-15590
" /> 
<polyline style="fill-rule:evenodd;"
points="14311,-16456
13956,-16456
13956,-16929
14311,-16929
14311,-16456
" /> 
<polyline style="fill-rule:evenodd;"
points="19350,-15511
18996,-15511
18996,-15984
19350,-15984
19350,-15511
" /> 
<polyline style="fill-rule:evenodd;"
points="19350,-16377
18996,-16377
18996,-16850
19350,-16850
19350,-16377
" /> 
<polyline style="fill-rule:evenodd;"
points="23523,-15551
23169,-15551
23169,-16023
23523,-16023
23523,-15551
" /> 
<polyline style="fill-rule:evenodd;"
points="23523,-16417
23169,-16417
23169,-16889
23523,-16889
23523,-16417
" /> 
<polyline style="fill-rule:evenodd;"
points="20196,-12027
20196,-12381
20669,-12381
20669,-12027
20196,-12027
" /> 
<polyline style="fill-rule:evenodd;"
points="21062,-12027
21062,-12381
21535,-12381
21535,-12027
21062,-12027
" /> 
<polyline style="fill-rule:evenodd;"
points="24202,-13454
24557,-13454
24557,-12982
24202,-12982
24202,-13454
" /> 
<polyline style="fill-rule:evenodd;"
points="24202,-12588
24557,-12588
24557,-12116
24202,-12116
24202,-12588
" /> 
<polyline style="fill-rule:evenodd;"
points="18405,-15511
18051,-15511
18051,-15984
18405,-15984
18405,-15511
" /> 
<polyline style="fill-rule:evenodd;"
points="18405,-16377
18051,-16377
18051,-16850
18405,-16850
18405,-16377
" /> 
<polyline style="fill-rule:evenodd;"
points="13316,-2667
13316,-2962
13789,-2962
13789,-2667
13316,-2667
" /> 
<polyline style="fill-rule:evenodd;"
points="14064,-2667
14064,-2962
14537,-2962
14537,-2667
14064,-2667
" /> 
<polyline style="fill-rule:evenodd;"
points="16870,-1712
16870,-2381
17539,-2381
17539,-1712
16870,-1712
" /> 
<polyline style="fill-rule:evenodd;"
points="23759,-9232
23759,-9901
24429,-9901
24429,-9232
23759,-9232
" /> 
<polyline style="fill-rule:evenodd;"
points="25137,-11003
25137,-11673
25807,-11673
25807,-11003
25137,-11003
" /> 
<circle cx="2125.98" cy="-10315" r="314.961" /> 
</g>
<g style="fill:#000000; fill-opacity:1.0; 
stroke:#000000; stroke-width:39.3701; stroke-opacity:1; 
stroke-linecap:round; stroke-linejoin:round;">
</g>
<g style="fill:#000000; fill-opacity:1.0; 
stroke:#000000; stroke-width:0; stroke-opacity:1; 
stroke-linecap:round; stroke-linejoin:round;">
<circle cx="7480.31" cy="-10629.9" r="314.961" /> 
</g>
<g style="fill:#000000; fill-opacity:1.0; 
stroke:#000000; stroke-width:39.3701; stroke-opacity:1; 
stroke-linecap:round; stroke-linejoin:round;">
</g>
<g style="fill:#000000; fill-opacity:1.0; 
stroke:#000000; stroke-width:0; stroke-opacity:1; 
stroke-linecap:round; stroke-linejoin:round;">
<circle cx="2125.98" cy="-14330.7" r="314.961" /> 
</g>
<g style="fill:#000000; fill-opacity:1.0; 
stroke:#000000; stroke-width:39.3701; stroke-opacity:1; 
stroke-linecap:round; stroke-linejoin:round;">
</g>
<g style="fill:#000000; fill-opacity:1.0; 
stroke:#000000; stroke-width:0; stroke-opacity:1; 
stroke-linecap:round; stroke-linejoin:round;">
<circle cx="9094.49" cy="-14094.5" r="314.961" /> 
</g>
<g style="fill:#000000; fill-opacity:1.0; 
stroke:#000000; stroke-width:39.3701; stroke-opacity:1; 
stroke-linecap:round; stroke-linejoin:round;">
</g>
<g style="fill:#000000; fill-opacity:1.0; 
stroke:#000000; stroke-width:0; stroke-opacity:1; 
stroke-linecap:round; stroke-linejoin:round;">
<circle cx="7874.02" cy="-14015.7" r="314.961" /> 
</g>
<g style="fill:#000000; fill-opacity:1.0; 
stroke:#000000; stroke-width:39.3701; stroke-opacity:1; 
stroke-linecap:round; stroke-linejoin:round;">
</g>
<g style="fill:#000000; fill-opacity:1.0; 
stroke:#000000; stroke-width:0; stroke-opacity:1; 
stroke-linecap:round; stroke-linejoin:round;">
<circle cx="12913.4" cy="-14015.7" r="314.961" /> 
</g>
<g style="fill:#000000; fill-opacity:1.0; 
stroke:#000000; stroke-width:39.3701; stroke-opacity:1; 
stroke-linecap:round; stroke-linejoin:round;">
</g>
<g style="fill:#000000; fill-opacity:1.0; 
stroke:#000000; stroke-width:0; stroke-opacity:1; 
stroke-linecap:round; stroke-linejoin:round;">
<circle cx="4645.67" cy="-10472.4" r="314.961" /> 
</g>
<g style="fill:#000000; fill-opacity:1.0; 
stroke:#000000; stroke-width:39.3701; stroke-opacity:1; 
stroke-linecap:round; stroke-linejoin:round;">
</g>
<g style="fill:#000000; fill-opacity:1.0; 
stroke:#000000; stroke-width:0; stroke-opacity:1; 
stroke-linecap:round; stroke-linejoin:round;">
<circle cx="9842.52" cy="-10629.9" r="314.961" /> 
</g>
<g style="fill:#000000; fill-opacity:1.0; 
stroke:#000000; stroke-width:39.3701; stroke-opacity:1; 
stroke-linecap:round; stroke-linejoin:round;">
</g>
<g style="fill:#000000; fill-opacity:1.0; 
stroke:#000000; stroke-width:0; stroke-opacity:1; 
stroke-linecap:round; stroke-linejoin:round;">
<circle cx="12559.1" cy="-10039.4" r="314.961" /> 
</g>
<g style="fill:#000000; fill-opacity:1.0; 
stroke:#000000; stroke-width:39.3701; stroke-opacity:1; 
stroke-linecap:round; stroke-linejoin:round;">
</g>
<g style="fill:#000000; fill-opacity:1.0; 
stroke:#000000; stroke-width:0; stroke-opacity:1; 
stroke-linecap:round; stroke-linejoin:round;">
<circle cx="17322.8" cy="-9724.41" r="314.961" /> 
</g>
<g style="fill:#000000; fill-opacity:1.0; 
stroke:#000000; stroke-width:39.3701; stroke-opacity:1; 
stroke-linecap:round; stroke-linejoin:round;">
</g>
<g style="fill:#000000; fill-opacity:1.0; 
stroke:#000000; stroke-width:0; stroke-opacity:1; 
stroke-linecap:round; stroke-linejoin:round;">
<circle cx="14173.2" cy="-14055.1" r="314.961" /> 
</g>
<g style="fill:#000000; fill-opacity:1.0; 
stroke:#000000; stroke-width:39.3701; stroke-opacity:1; 
stroke-linecap:round; stroke-linejoin:round;">
</g>
<g style="fill:#000000; fill-opacity:1.0; 
stroke:#000000; stroke-width:0; stroke-opacity:1; 
stroke-linecap:round; stroke-linejoin:round;">
<circle cx="19173.2" cy="-14094.5" r="314.961" /> 
</g>
<g style="fill:#000000; fill-opacity:1.0; 
stroke:#000000; stroke-width:39.3701; stroke-opacity:1; 
stroke-linecap:round; stroke-linejoin:round;">
</g>
<g style="fill:#000000; fill-opacity:1.0; 
stroke:#000000; stroke-width:0; stroke-opacity:1; 
stroke-linecap:round; stroke-linejoin:round;">
<circle cx="18228.3" cy="-14055.1" r="314.961" /> 
</g>
<g style="fill:#000000; fill-opacity:1.0; 
stroke:#000000; stroke-width:39.3701; stroke-opacity:1; 
stroke-linecap:round; stroke-linejoin:round;">
</g>
<g style="fill:#000000; fill-opacity:1.0; 
stroke:#000000; stroke-width:0; stroke-opacity:1; 
stroke-linecap:round; stroke-linejoin:round;">
<circle cx="23346.5" cy="-14094.5" r="314.961" /> 
</g>
<g style="fill:#000000; fill-opacity:1.0; 
stroke:#000000; stroke-width:39.3701; stroke-opacity:1; 
stroke-linecap:round; stroke-linejoin:round;">
</g>
<g style="fill:#000000; fill-opacity:1.0; 
stroke:#000000; stroke-width:0; stroke-opacity:1; 
stroke-linecap:round; stroke-linejoin:round;">
<circle cx="15039.4" cy="-9921.26" r="314.961" /> 
</g>
<g style="fill:#000000; fill-opacity:1.0; 
stroke:#000000; stroke-width:39.3701; stroke-opacity:1; 
stroke-linecap:round; stroke-linejoin:round;">
</g>
<g style="fill:#000000; fill-opacity:1.0; 
stroke:#000000; stroke-width:0; stroke-opacity:1; 
stroke-linecap:round; stroke-linejoin:round;">
<circle cx="19291.3" cy="-7637.8" r="314.961" /> 
</g>
<g style="fill:#000000; fill-opacity:1.0; 
stroke:#000000; stroke-width:39.3701; stroke-opacity:1; 
stroke-linecap:round; stroke-linejoin:round;">
</g>
<g style="fill:#000000; fill-opacity:1.0; 
stroke:#000000; stroke-width:157.48; stroke-opacity:1; 
stroke-linecap:round; stroke-linejoin:round;">
</g>
<g style="fill:#000000; fill-opacity:0.0; 
stroke:#000000; stroke-width:157.48; stroke-opacity:1; 
stroke-linecap:round; stroke-linejoin:round;">
<path d="M21309 -4438
L21309 -5029
" />
<path d="M21102 -5236
L19537 -5236
" />
<path d="M21309 -5029
L21102 -5236
" />
<path d="M16929 -8799
L16948 -8799
" />
<path d="M16948 -8799
L17322 -8425
" />
<path d="M17322 -8425
L17322 -7677
" />
<path d="M9399 -9251
L9399 -9222
" />
<path d="M9399 -9222
L9803 -8818
" />
<path d="M9803 -8818
L9803 -8031
" />
<path d="M21564 -4438
L21564 -5462
" />
</g>
<g style="fill:#000000; fill-opacity:0.0; 
stroke:#000000; stroke-width:98.4252; stroke-opacity:1; 
stroke-linecap:round; stroke-linejoin:round;">
<path d="M21564 -5462
L21525 -5501
" />
<path d="M3996 -9232
L3927 -9232
" />
<path d="M3996 -9232
L3996 -9124
" />
<path d="M6564 -9271
L6732 -9271
" />
</g>
<g style="fill:#000000; fill-opacity:0.0; 
stroke:#000000; stroke-width:157.48; stroke-opacity:1; 
stroke-linecap:round; stroke-linejoin:round;">
<path d="M21673 -1948
L21673 -2578
" />
<path d="M21673 -2578
L21673 -2942
" />
</g>
<g style="fill:#000000; fill-opacity:0.0; 
stroke:#000000; stroke-width:98.4252; stroke-opacity:1; 
stroke-linecap:round; stroke-linejoin:round;">
<path d="M21673 -2942
L21653 -2962
" />
</g>
<g style="fill:#000000; fill-opacity:0.0; 
stroke:#000000; stroke-width:157.48; stroke-opacity:1; 
stroke-linecap:round; stroke-linejoin:round;">
<path d="M21564 -4438
L21564 -3051
" />
</g>
<g style="fill:#000000; fill-opacity:0.0; 
stroke:#000000; stroke-width:98.4252; stroke-opacity:1; 
stroke-linecap:round; stroke-linejoin:round;">
<path d="M21564 -3051
L21653 -2962
" />
<path d="M14527 -8799
L14527 -8690
" />
</g>
<g style="fill:#000000; fill-opacity:0.0; 
stroke:#000000; stroke-width:118.11; stroke-opacity:1; 
stroke-linecap:round; stroke-linejoin:round;">
<path d="M17716 -6535
L17755 -6535
" />
<path d="M17755 -6535
L17913 -6377
" />
<path d="M10431 -2836
L10431 -3462
" />
<path d="M10431 -3462
L11013 -4045
" />
<path d="M17716 -6535
L15708 -6535
" />
<path d="M13218 -4045
L11013 -4045
" />
<path d="M15590 -6417
L13218 -4045
" />
<path d="M18799 -6062
L18307 -6062
" />
<path d="M20009 -7273
L20797 -7273
" />
<path d="M20009 -7273
L18799 -6062
" />
<path d="M17913 -6377
L17913 -6220
" />
<path d="M17913 -6220
L18070 -6062
" />
<path d="M18070 -6062
L18307 -6062
" />
<path d="M15708 -6535
L15590 -6417
" />
</g>
<g style="fill:#000000; fill-opacity:0.0; 
stroke:#000000; stroke-width:157.48; stroke-opacity:1; 
stroke-linecap:round; stroke-linejoin:round;">
<path d="M23897 -5393
L24212 -5393
" />
<path d="M24212 -5393
L25078 -4527
" />
<path d="M23897 -5393
L22874 -5393
" />
<path d="M22588 -5108
L22588 -4438
" />
<path d="M22874 -5393
L22588 -5108
" />
<path d="M22480 -3001
L22480 -3710
" />
<path d="M22332 -3858
L22332 -4438
" />
<path d="M22480 -3710
L22332 -3858
" />
</g>
<g style="fill:#000000; fill-opacity:0.0; 
stroke:#000000; stroke-width:118.11; stroke-opacity:1; 
stroke-linecap:round; stroke-linejoin:round;">
<path d="M22076 -7273
L22076 -10718
" />
<path d="M18070 -12677
L16417 -12716
" />
<path d="M19055 -11692
L18070 -12677
" />
<path d="M21102 -11692
L19055 -11692
" />
<path d="M22076 -10718
L21102 -11692
" />
<path d="M22332 -7273
L22332 -11171
" />
<path d="M22332 -11171
L21299 -12204
" />
<path d="M18425 -10393
L17952 -10393
" />
<path d="M16181 -11220
L16181 -11230
" />
<path d="M17125 -11220
L16181 -11220
" />
<path d="M17952 -10393
L17125 -11220
" />
</g>
<g style="fill:#000000; fill-opacity:0.0; 
stroke:#000000; stroke-width:157.48; stroke-opacity:1; 
stroke-linecap:round; stroke-linejoin:round;">
<path d="M20457 -10182
L20447 -10182
" />
</g>
<g style="fill:#000000; fill-opacity:0.0; 
stroke:#000000; stroke-width:118.11; stroke-opacity:1; 
stroke-linecap:round; stroke-linejoin:round;">
<path d="M20236 -10393
L18425 -10393
" />
</g>
<g style="fill:#000000; fill-opacity:0.0; 
stroke:#000000; stroke-width:157.48; stroke-opacity:1; 
stroke-linecap:round; stroke-linejoin:round;">
<path d="M20447 -10182
L20236 -10393
" />
</g>
<g style="fill:#000000; fill-opacity:0.0; 
stroke:#000000; stroke-width:118.11; stroke-opacity:1; 
stroke-linecap:round; stroke-linejoin:round;">
<path d="M8858 -11230
L8415 -11230
" />
<path d="M12795 -11230
L8858 -11230
" />
<path d="M12795 -11230
L16181 -11230
" />
<path d="M8415 -11230
L7047 -12598
" />
<path d="M7047 -12598
L5944 -12598
" />
<path d="M21053 -7273
L21053 -9586
" />
<path d="M21053 -9586
L20457 -10182
" />
<path d="M21564 -7273
L21564 -10098
" />
<path d="M12391 -11840
L11496 -12598
" />
<path d="M17706 -11840
L12391 -11840
" />
<path d="M18494 -11053
L17706 -11840
" />
<path d="M20610 -11053
L18494 -11053
" />
<path d="M21564 -10098
L20610 -11053
" />
<path d="M18543 -10748
L18188 -10748
" />
<path d="M17362 -11574
L16299 -11574
" />
<path d="M18188 -10748
L17362 -11574
" />
<path d="M21309 -7273
L21309 -9881
" />
<path d="M10137 -11574
L9094 -12598
" />
<path d="M16299 -11574
L10137 -11574
" />
<path d="M20423 -10748
L18543 -10748
" />
<path d="M21309 -9881
L20423 -10748
" />
<path d="M21820 -7273
L21820 -10492
" />
</g>
<g style="fill:#000000; fill-opacity:0.0; 
stroke:#000000; stroke-width:157.48; stroke-opacity:1; 
stroke-linecap:round; stroke-linejoin:round;">
<path d="M14665 -12145
L14212 -12598
" />
</g>
<g style="fill:#000000; fill-opacity:0.0; 
stroke:#000000; stroke-width:118.11; stroke-opacity:1; 
stroke-linecap:round; stroke-linejoin:round;">
<path d="M17972 -12145
L14665 -12145
" />
<path d="M18750 -11368
L17972 -12145
" />
<path d="M20944 -11368
L18750 -11368
" />
<path d="M21820 -10492
L20944 -11368
" />
<path d="M22844 -7273
L22844 -11171
" />
<path d="M22844 -11171
L23444 -11771
" />
<path d="M23100 -7273
L23100 -9596
" />
</g>
<g style="fill:#000000; fill-opacity:0.0; 
stroke:#000000; stroke-width:157.48; stroke-opacity:1; 
stroke-linecap:round; stroke-linejoin:round;">
<path d="M24379 -10875
L24379 -12352
" />
<path d="M23100 -9596
L24379 -10875
" />
<path d="M25078 -7322
L24940 -7322
" />
<path d="M24940 -7322
L23917 -6299
" />
<path d="M22588 -7273
L22588 -6584
" />
<path d="M23917 -6299
L24625 -7007
" />
<path d="M22874 -6299
L23917 -6299
" />
<path d="M22588 -6584
L22874 -6299
" />
<path d="M23848 -1574
L23848 -1289
" />
<path d="M7431 -1387
L7431 -2836
" />
<path d="M8228 -590
L7431 -1387
" />
<path d="M23149 -590
L8228 -590
" />
<path d="M23848 -1289
L23149 -590
" />
</g>
<g style="fill:#000000; fill-opacity:0.0; 
stroke:#000000; stroke-width:118.11; stroke-opacity:1; 
stroke-linecap:round; stroke-linejoin:round;">
<path d="M23100 -3927
L23848 -3179
" />
</g>
<g style="fill:#000000; fill-opacity:0.0; 
stroke:#000000; stroke-width:157.48; stroke-opacity:1; 
stroke-linecap:round; stroke-linejoin:round;">
<path d="M23848 -3179
L23848 -1574
" />
</g>
<g style="fill:#000000; fill-opacity:0.0; 
stroke:#000000; stroke-width:118.11; stroke-opacity:1; 
stroke-linecap:round; stroke-linejoin:round;">
<path d="M23100 -4438
L23100 -3927
" />
</g>
<g style="fill:#000000; fill-opacity:0.0; 
stroke:#000000; stroke-width:98.4252; stroke-opacity:1; 
stroke-linecap:round; stroke-linejoin:round;">
<path d="M7431 -2836
L7431 -2401
" />
</g>
<g style="fill:#000000; fill-opacity:0.0; 
stroke:#000000; stroke-width:157.48; stroke-opacity:1; 
stroke-linecap:round; stroke-linejoin:round;">
<path d="M23134 -1614
L23134 -1481
" />
<path d="M8431 -1529
L8431 -2836
" />
<path d="M8937 -1023
L8431 -1529
" />
<path d="M22677 -1023
L8937 -1023
" />
<path d="M23134 -1481
L22677 -1023
" />
<path d="M23134 -3410
L23134 -1614
" />
</g>
<g style="fill:#000000; fill-opacity:0.0; 
stroke:#000000; stroke-width:118.11; stroke-opacity:1; 
stroke-linecap:round; stroke-linejoin:round;">
<path d="M22844 -4438
L22844 -3700
" />
<path d="M22844 -3700
L23134 -3410
" />
</g>
<g style="fill:#000000; fill-opacity:0.0; 
stroke:#000000; stroke-width:157.48; stroke-opacity:1; 
stroke-linecap:round; stroke-linejoin:round;">
<path d="M2283 -8582
L2283 -10157
" />
<path d="M2283 -10157
L2125 -10314
" />
<path d="M7519 -8897
L7519 -10590
" />
</g>
<g style="fill:#000000; fill-opacity:0.0; 
stroke:#000000; stroke-width:98.4252; stroke-opacity:1; 
stroke-linecap:round; stroke-linejoin:round;">
<path d="M7519 -10590
L7480 -10629
" />
</g>
<g style="fill:#000000; fill-opacity:0.0; 
stroke:#000000; stroke-width:157.48; stroke-opacity:1; 
stroke-linecap:round; stroke-linejoin:round;">
<path d="M2125 -15866
L2125 -14330
" />
<path d="M2125 -14330
L2775 -14330
" />
<path d="M2775 -14330
L4507 -12598
" />
<path d="M4507 -12598
L5078 -12598
" />
<path d="M9094 -14094
L9094 -15708
" />
<path d="M9094 -15708
L9094 -15905
" />
</g>
<g style="fill:#000000; fill-opacity:0.0; 
stroke:#000000; stroke-width:98.4252; stroke-opacity:1; 
stroke-linecap:round; stroke-linejoin:round;">
<path d="M9094 -14094
L9094 -13937
" />
</g>
<g style="fill:#000000; fill-opacity:0.0; 
stroke:#000000; stroke-width:157.48; stroke-opacity:1; 
stroke-linecap:round; stroke-linejoin:round;">
<path d="M10196 -12834
L10629 -12598
" />
<path d="M9094 -13937
L10196 -12834
" />
<path d="M7874 -14015
L8188 -12637
" />
<path d="M8188 -12637
L8228 -12598
" />
<path d="M7874 -14015
L7874 -15866
" />
</g>
<g style="fill:#000000; fill-opacity:0.0; 
stroke:#000000; stroke-width:98.4252; stroke-opacity:1; 
stroke-linecap:round; stroke-linejoin:round;">
<path d="M8051 -12775
L8228 -12598
" />
</g>
<g style="fill:#000000; fill-opacity:0.0; 
stroke:#000000; stroke-width:157.48; stroke-opacity:1; 
stroke-linecap:round; stroke-linejoin:round;">
<path d="M12913 -14015
L12913 -15393
" />
<path d="M12913 -15393
L12480 -15826
" />
<path d="M12913 -14015
L12913 -13031
" />
<path d="M12913 -13031
L13346 -12598
" />
<path d="M4783 -8858
L4783 -10334
" />
<path d="M4783 -10334
L4645 -10472
" />
<path d="M10187 -8877
L10187 -10285
" />
<path d="M10187 -10285
L9842 -10629
" />
<path d="M12440 -8582
L12440 -9921
" />
<path d="M12440 -9921
L12559 -10039
" />
<path d="M17716 -8425
L17716 -9330
" />
<path d="M17716 -9330
L17322 -9724
" />
<path d="M14173 -14055
L14173 -15787
" />
<path d="M14173 -15787
L14133 -15826
" />
</g>
<g style="fill:#000000; fill-opacity:0.0; 
stroke:#000000; stroke-width:98.4252; stroke-opacity:1; 
stroke-linecap:round; stroke-linejoin:round;">
<path d="M14173 -14055
L14173 -13956
" />
</g>
<g style="fill:#000000; fill-opacity:0.0; 
stroke:#000000; stroke-width:157.48; stroke-opacity:1; 
stroke-linecap:round; stroke-linejoin:round;">
<path d="M14173 -13956
L15452 -12677
" />
<path d="M15452 -12677
L15551 -12716
" />
<path d="M19173 -14094
L20354 -12913
" />
<path d="M23169 -12913
L23444 -12637
" />
<path d="M20354 -12913
L23169 -12913
" />
<path d="M19173 -15748
L19173 -14094
" />
</g>
<g style="fill:#000000; fill-opacity:0.0; 
stroke:#000000; stroke-width:98.4252; stroke-opacity:1; 
stroke-linecap:round; stroke-linejoin:round;">
<path d="M19330 -15590
L19173 -15748
" />
</g>
<g style="fill:#000000; fill-opacity:0.0; 
stroke:#000000; stroke-width:157.48; stroke-opacity:1; 
stroke-linecap:round; stroke-linejoin:round;">
<path d="M18228 -15748
L18228 -14055
" />
<path d="M20433 -12204
L20078 -12204
" />
<path d="M20078 -12204
L18228 -14055
" />
<path d="M23346 -15787
L23346 -14094
" />
<path d="M23346 -14094
L23897 -14094
" />
<path d="M23897 -14094
L24379 -13612
" />
<path d="M24379 -13612
L24379 -13218
" />
<path d="M15314 -8425
L15314 -9645
" />
<path d="M15314 -9645
L15039 -9921
" />
</g>
<g style="fill:#000000; fill-opacity:0.0; 
stroke:#000000; stroke-width:98.4252; stroke-opacity:1; 
stroke-linecap:round; stroke-linejoin:round;">
<path d="M19291 -7637
L19291 -7549
" />
</g>
<g style="fill:#000000; fill-opacity:0.0; 
stroke:#000000; stroke-width:157.48; stroke-opacity:1; 
stroke-linecap:round; stroke-linejoin:round;">
<path d="M19291 -7549
L18297 -6555
" />
<path d="M6431 -5836
L6431 -6580
" />
<path d="M2096 -7608
L1496 -8208
" />
<path d="M5403 -7608
L2096 -7608
" />
<path d="M6431 -6580
L5403 -7608
" />
<path d="M6732 -8523
L6732 -7598
" />
<path d="M6732 -7598
L8431 -6076
" />
<path d="M8431 -6076
L8431 -5836
" />
<path d="M6505 -7214
L6486 -7214
" />
<path d="M6486 -7214
L5551 -8149
" />
<path d="M3996 -8484
L3996 -8444
" />
<path d="M3996 -8444
L4291 -8149
" />
<path d="M4291 -8149
L5314 -8149
" />
<path d="M5314 -8149
L5551 -8149
" />
<path d="M7431 -5836
L7431 -6289
" />
<path d="M7431 -6289
L6505 -7214
" />
<path d="M9399 -8503
L9399 -5868
" />
<path d="M9399 -5868
L9431 -5836
" />
<path d="M10431 -5836
L10431 -6986
" />
<path d="M10431 -6986
L11653 -8208
" />
<path d="M11431 -5836
L11431 -6037
" />
<path d="M11431 -6037
L13444 -8051
" />
<path d="M13444 -8051
L14527 -8051
" />
<path d="M12283 -3553
L11624 -3553
" />
<path d="M11431 -3360
L11431 -2836
" />
<path d="M11624 -3553
L11431 -3360
" />
<path d="M17509 -6181
L15994 -6181
" />
<path d="M13366 -3553
L12283 -3553
" />
<path d="M15994 -6181
L13366 -3553
" />
<path d="M13553 -2814
L13553 -2431
" />
<path d="M13937 -2047
L17204 -2047
" />
<path d="M13553 -2431
L13937 -2047
" />
<path d="M19015 -2017
L17234 -2017
" />
<path d="M17234 -2017
L17204 -2047
" />
<path d="M20836 -2017
L19015 -2017
" />
<path d="M21053 -4438
L21053 -3346
" />
<path d="M21053 -3346
L20669 -2962
" />
<path d="M20836 -2017
L20836 -2795
" />
<path d="M20836 -2795
L20669 -2962
" />
<path d="M20836 -2017
L20836 -1643
" />
<path d="M22480 -1692
L22480 -2135
" />
<path d="M22244 -1456
L22480 -1692
" />
<path d="M21023 -1456
L22244 -1456
" />
<path d="M20836 -1643
L21023 -1456
" />
<path d="M13553 -2814
L12452 -2814
" />
</g>
<g style="fill:#000000; fill-opacity:0.0; 
stroke:#000000; stroke-width:98.4252; stroke-opacity:1; 
stroke-linecap:round; stroke-linejoin:round;">
<path d="M12452 -2814
L12431 -2836
" />
</g>
<g style="fill:#000000; fill-opacity:0.0; 
stroke:#000000; stroke-width:157.48; stroke-opacity:1; 
stroke-linecap:round; stroke-linejoin:round;">
<path d="M12431 -5836
L14032 -5836
" />
<path d="M16247 -8051
L16929 -8051
" />
<path d="M14032 -5836
L16247 -8051
" />
</g>
<g style="fill:#000000; fill-opacity:1.0; 
stroke:#000000; stroke-width:196.85; stroke-opacity:1; 
stroke-linecap:round; stroke-linejoin:round;">
<polyline style="fill-rule:evenodd;"
points="26919,344
600,344
600,-2025
1456,-2025
1564,-1764
1763,-1564
2023,-1456
2305,-1456
2566,-1564
2765,-1763
2873,-2023
2874,-2305
2766,-2566
2567,-2765
2306,-2873
2025,-2874
1764,-2766
1564,-2567
1456,-2306
1456,-2025
600,-2025
600,-5835
4817,-5835
4817,-5697
4865,-5462
4998,-5263
5197,-5131
5333,-5093
5429,-5160
5429,-5835
4817,-5835
600,-5835
600,-5975
4817,-5975
4817,-5838
5429,-5838
5429,-6513
5333,-6579
5197,-6541
4998,-6409
4865,-6210
4817,-5975
600,-5975
600,-8880
1020,-8880
1020,-8739
1065,-8630
1149,-8546
1179,-8533
1164,-8524
1115,-8452
1098,-8366
1098,-8051
1113,-7970
1160,-7897
1233,-7847
1318,-7830
1456,-7830
1887,-7399
1983,-7335
2096,-7312
5281,-7312
6135,-6458
6135,-6417
6055,-6363
5975,-6243
5863,-6409
5664,-6541
5528,-6579
5432,-6513
5432,-5838
5440,-5838
5440,-5835
5432,-5835
5432,-5160
5528,-5093
5664,-5131
5863,-5263
5975,-5429
6055,-5309
6227,-5194
6431,-5154
6634,-5194
6806,-5309
6922,-5482
6931,-5527
6940,-5482
7055,-5309
7227,-5194
7431,-5154
7634,-5194
7806,-5309
7922,-5482
7931,-5527
7940,-5482
8055,-5309
8227,-5194
8431,-5154
8634,-5194
8806,-5309
8922,-5482
8931,-5527
8940,-5482
9055,-5309
9227,-5194
9431,-5154
9634,-5194
9806,-5309
9922,-5482
9931,-5527
9940,-5482
10055,-5309
10227,-5194
10431,-5154
10634,-5194
10806,-5309
10922,-5482
10931,-5527
10940,-5482
11055,-5309
11227,-5194
11431,-5154
11634,-5194
11806,-5309
11922,-5482
11931,-5527
11940,-5482
12055,-5309
12227,-5194
12431,-5154
12634,-5194
12806,-5309
12922,-5482
12933,-5541
14032,-5541
14145,-5563
14241,-5627
15759,-7145
17034,-7145
17034,-7005
17108,-6930
17508,-6930
17508,-7310
17511,-7310
17511,-6930
17910,-6930
17985,-7005
17985,-7145
17940,-7255
17856,-7339
17746,-7385
17586,-7385
17511,-7310
17508,-7310
17433,-7385
17273,-7385
17163,-7339
17079,-7255
17034,-7145
15759,-7145
16369,-7755
16583,-7755
16593,-7739
16666,-7690
16751,-7672
17106,-7672
17186,-7688
17260,-7735
17309,-7807
17327,-7893
17327,-8208
17311,-8288
17264,-8362
17244,-8376
17275,-8388
17318,-8431
17318,-8267
17333,-8187
17381,-8113
17453,-8064
17539,-8046
17893,-8046
17973,-8062
18047,-8109
18097,-8181
18114,-8267
18114,-8582
18099,-8662
18051,-8736
18011,-8764
18011,-9330
18008,-9347
17989,-9443
17925,-9539
17851,-9612
17854,-9618
17854,-9829
17773,-10025
17624,-10174
17429,-10255
17217,-10255
17022,-10175
16872,-10025
16791,-9830
16791,-9619
16871,-9423
17021,-9274
17067,-9255
17005,-9255
16930,-9180
16930,-8800
17330,-8800
17404,-8875
17404,-9016
17359,-9125
17292,-9192
17421,-9192
17421,-8763
17386,-8741
17330,-8797
16930,-8797
16930,-8789
16927,-8789
16927,-8797
16528,-8797
16453,-8723
16453,-8582
16498,-8472
16582,-8388
16612,-8376
16598,-8366
16584,-8346
16247,-8346
16134,-8323
16038,-8259
13910,-6131
12933,-6131
12922,-6190
12806,-6363
12634,-6478
12431,-6519
12305,-6493
13567,-7755
14181,-7755
14192,-7739
14264,-7690
14350,-7672
14704,-7672
14784,-7688
14858,-7735
14908,-7807
14925,-7893
14925,-8208
14910,-8288
14862,-8362
14843,-8376
14873,-8388
14917,-8431
14917,-8267
14932,-8187
14979,-8113
15051,-8064
15137,-8046
15492,-8046
15572,-8062
15646,-8109
15695,-8181
15712,-8267
15712,-8582
15697,-8662
15650,-8736
15610,-8764
15610,-9016
16453,-9016
16453,-8875
16528,-8800
16927,-8800
16927,-9180
16852,-9255
16692,-9255
16582,-9209
16498,-9125
16453,-9016
15610,-9016
15610,-9645
15587,-9758
15562,-9795
15570,-9815
15570,-10026
15490,-10221
15340,-10371
15145,-10452
14934,-10452
14738,-10372
14589,-10222
14507,-10027
14507,-9816
14588,-9620
14737,-9470
14933,-9389
15019,-9389
15019,-8763
14984,-8741
14928,-8797
14529,-8797
14529,-8789
14525,-8789
14525,-8797
14126,-8797
14051,-8723
14051,-8582
14097,-8472
14181,-8388
14211,-8376
14196,-8366
14182,-8346
13444,-8346
13331,-8323
13236,-8259
11484,-6508
11431,-6519
11227,-6478
11055,-6363
10940,-6190
10931,-6145
10922,-6190
10806,-6363
10726,-6417
10726,-6863
11692,-7830
11830,-7830
11910,-7845
11984,-7892
12034,-7965
12051,-8051
12051,-8366
12036,-8446
11988,-8520
11969,-8533
11999,-8546
12043,-8589
12043,-8425
12058,-8344
12105,-8271
12177,-8221
12263,-8204
12618,-8204
12698,-8219
12772,-8266
12821,-8339
12838,-8425
12838,-8740
12823,-8820
12776,-8894
12736,-8921
12736,-9016
14051,-9016
14051,-8875
14126,-8800
14525,-8800
14525,-9180
14529,-9180
14529,-8800
14928,-8800
15003,-8875
15003,-9016
14957,-9125
14873,-9209
14764,-9255
14603,-9255
14529,-9180
14525,-9180
14451,-9255
14291,-9255
14181,-9209
14097,-9125
14051,-9016
12736,-9016
12736,-9537
12859,-9588
13009,-9737
13090,-9933
13090,-10144
13009,-10340
12860,-10489
12665,-10570
12453,-10570
12258,-10490
12108,-10340
12027,-10145
12027,-9934
12108,-9738
12145,-9701
12145,-8921
12110,-8898
12054,-8955
11655,-8955
11655,-8947
11651,-8947
11651,-8955
11252,-8955
11177,-8880
11177,-8739
11223,-8630
11307,-8546
11337,-8533
11322,-8524
11272,-8452
11255,-8366
11255,-8228
10222,-7195
10158,-7099
10135,-6986
10135,-6417
10055,-6363
9940,-6190
9931,-6145
9922,-6190
9806,-6363
9694,-6438
9694,-8165
9730,-8188
9780,-8260
9797,-8346
9797,-8661
9782,-8741
9735,-8815
9715,-8828
9745,-8841
9789,-8884
9789,-8720
9804,-8640
9851,-8566
9923,-8517
10009,-8499
10364,-8499
10444,-8514
10518,-8562
10567,-8634
10584,-8720
10584,-9035
10569,-9115
10532,-9173
11177,-9173
11177,-9032
11252,-8958
11651,-8958
11651,-9337
11655,-9337
11655,-8958
12054,-8958
12129,-9032
12129,-9173
12083,-9283
11999,-9367
11890,-9412
11729,-9412
11655,-9337
11651,-9337
11577,-9412
11417,-9412
11307,-9367
11223,-9283
11177,-9173
10532,-9173
10522,-9189
10482,-9216
10482,-10285
10459,-10398
10395,-10494
10371,-10518
10373,-10523
10374,-10735
10293,-10930
10269,-10954
16131,-10954
16181,-10944
17011,-10944
17757,-10198
17757,-10198
17847,-10139
17952,-10118
20094,-10118
20239,-9973
20334,-9909
20342,-9907
20777,-9472
20777,-7838
20708,-7838
20628,-7823
20554,-7776
20505,-7704
20487,-7618
20487,-7549
20009,-7549
20009,-7549
19904,-7528
19814,-7468
19783,-7436
19822,-7531
19822,-7743
19742,-7938
19592,-8088
19397,-8169
19186,-8169
18990,-8088
18841,-7939
18759,-7743
18759,-7532
18788,-7463
18257,-6933
18120,-6933
18039,-6918
17966,-6871
17910,-6927
17511,-6927
17511,-6919
17508,-6919
17508,-6927
17108,-6927
17034,-6852
17034,-6811
15708,-6811
15603,-6790
15513,-6730
13104,-4320
11013,-4320
10908,-4299
10818,-4240
10236,-3657
10176,-3568
10158,-3478
10155,-3462
10155,-3430
10055,-3363
9975,-3243
9863,-3409
9664,-3541
9528,-3579
9432,-3513
9432,-2838
9440,-2838
9440,-2835
9432,-2835
9432,-2160
9528,-2093
9664,-2131
9863,-2263
9975,-2429
10055,-2309
10227,-2194
10431,-2154
10634,-2194
10806,-2309
10922,-2482
10931,-2527
10940,-2482
11055,-2309
11227,-2194
11431,-2154
11634,-2194
11806,-2309
11922,-2482
11931,-2527
11940,-2482
12055,-2309
12227,-2194
12431,-2154
12634,-2194
12806,-2309
12922,-2482
12929,-2519
13154,-2519
13158,-2513
13231,-2463
13257,-2458
13257,-2431
13280,-2318
13344,-2222
13728,-1838
13824,-1774
13937,-1751
16649,-1751
16649,-1712
16664,-1632
16711,-1558
16784,-1509
16870,-1491
17539,-1491
17619,-1506
17693,-1554
17742,-1626
17760,-1712
17760,-1722
20438,-1722
20442,-1716
20514,-1666
20541,-1661
20541,-1643
20563,-1530
20627,-1434
20743,-1318
9059,-1318
8726,-1651
8726,-2256
8806,-2309
8887,-2429
8998,-2263
9197,-2131
9333,-2093
9429,-2160
9429,-2835
9421,-2835
9421,-2838
9429,-2838
9429,-3513
9333,-3579
9197,-3541
8998,-3409
8887,-3243
8806,-3363
8634,-3478
8431,-3519
8227,-3478
8055,-3363
7940,-3190
7931,-3145
7922,-3190
7806,-3363
7634,-3478
7431,-3519
7227,-3478
7055,-3363
6940,-3190
6931,-3145
6922,-3190
6806,-3363
6634,-3478
6431,-3519
6227,-3478
6055,-3363
5940,-3190
5931,-3145
5922,-3190
5806,-3363
5634,-3478
5431,-3519
5227,-3478
5055,-3363
4940,-3190
4899,-2987
4899,-2685
4940,-2482
5055,-2309
5227,-2194
5431,-2154
5634,-2194
5806,-2309
5922,-2482
5931,-2527
5940,-2482
6055,-2309
6227,-2194
6431,-2154
6634,-2194
6806,-2309
6922,-2482
6931,-2527
6940,-2482
7055,-2309
7135,-2256
7135,-1387
7158,-1274
7222,-1179
8019,-381
8115,-317
8228,-295
23149,-295
23262,-317
23358,-381
24057,-1080
24121,-1176
24143,-1289
24143,-3179
24121,-3292
24057,-3387
23973,-3443
23395,-4022
23409,-4094
23409,-4783
23394,-4863
23347,-4937
23274,-4986
23188,-5004
23011,-5004
22970,-4996
22933,-5004
22902,-5004
22996,-5098
24090,-5098
24417,-4770
24417,-4087
24433,-4007
24480,-3933
24552,-3884
24638,-3866
25518,-3866
25598,-3881
25672,-3929
25722,-4001
25739,-4087
25739,-4967
25724,-5047
25676,-5121
25604,-5170
25518,-5188
24835,-5188
24421,-5602
24325,-5666
24212,-5688
22874,-5688
22761,-5666
22687,-5617
22665,-5602
22379,-5317
22315,-5221
22293,-5108
22293,-5004
22244,-5004
22203,-4996
22165,-5004
21988,-5004
21947,-4996
21909,-5004
21854,-5004
21822,-5036
21712,-5081
21641,-5081
21601,-5042
21581,-5142
21517,-5238
21311,-5445
21215,-5509
21102,-5531
20004,-5531
19989,-5611
19941,-5685
19869,-5734
19783,-5752
19291,-5752
19211,-5737
19137,-5689
19087,-5617
19070,-5531
19070,-4940
19085,-4860
19124,-4800
19122,-4800
19038,-4716
18992,-4606
18992,-4328
19067,-4253
19535,-4253
19535,-4261
19538,-4261
19538,-4253
20007,-4253
20081,-4328
20081,-4606
20036,-4716
19952,-4800
19950,-4801
19986,-4855
20004,-4940
20554,-4940
20505,-4869
20487,-4783
20487,-4094
20502,-4014
20550,-3940
20622,-3891
20708,-3873
20757,-3873
20757,-3468
20718,-3429
20374,-3429
20293,-3414
20220,-3366
20170,-3294
20153,-3208
20153,-2716
20168,-2636
20215,-2562
20288,-2513
20374,-2495
20541,-2495
20541,-2375
20520,-2371
20446,-2323
20439,-2312
17760,-2312
17760,-2381
17745,-2462
17697,-2535
17625,-2585
17539,-2602
16870,-2602
16789,-2587
16716,-2540
16666,-2467
16649,-2381
16649,-2342
14059,-2342
14032,-2368
14225,-2368
14299,-2443
14299,-2813
14302,-2813
14302,-2443
14377,-2368
14596,-2368
14706,-2414
14790,-2498
14835,-2607
14835,-2738
14761,-2813
14302,-2813
14299,-2813
14291,-2813
14291,-2816
14299,-2816
14299,-3186
14302,-3186
14302,-2816
14761,-2816
14835,-2891
14835,-3021
14790,-3131
14706,-3215
14596,-3261
14377,-3261
14302,-3186
14299,-3186
14225,-3261
14005,-3261
13895,-3215
13851,-3170
13789,-3183
13316,-3183
13236,-3168
13162,-3120
13155,-3110
12938,-3110
12922,-3190
12877,-3257
13366,-3257
13479,-3280
13574,-3344
13618,-3388
16611,-3388
16611,-3070
16656,-2960
16740,-2876
16850,-2831
17167,-2831
17242,-2906
17242,-3462
17245,-3462
17245,-2906
17320,-2831
17638,-2831
17747,-2876
17831,-2960
17877,-3070
17877,-3388
17802,-3462
17245,-3462
17242,-3462
16685,-3462
16611,-3388
13618,-3388
14089,-3858
16611,-3858
16611,-3540
16685,-3466
17242,-3466
17242,-4023
17245,-4023
17245,-3466
17802,-3466
17877,-3540
17877,-3858
17831,-3968
17747,-4052
17638,-4097
17320,-4097
17245,-4023
17242,-4023
17167,-4097
16850,-4097
16740,-4052
16656,-3968
16611,-3858
14089,-3858
14406,-4175
18992,-4175
18992,-3897
19038,-3787
19122,-3703
19231,-3658
19461,-3658
19535,-3732
19535,-4250
19538,-4250
19538,-3732
19613,-3658
19842,-3658
19952,-3703
20036,-3787
20081,-3897
20081,-4175
20007,-4250
19538,-4250
19535,-4250
19067,-4250
18992,-4175
14406,-4175
16116,-5885
17164,-5885
17174,-5869
17246,-5820
17332,-5802
17687,-5802
17767,-5817
17840,-5865
17856,-5887
17875,-5868
17875,-5868
17965,-5808
18070,-5787
18799,-5787
18904,-5808
18994,-5868
20123,-6998
20487,-6998
20487,-6929
20502,-6848
20550,-6775
20622,-6725
20708,-6708
20885,-6708
20926,-6716
20964,-6708
21141,-6708
21182,-6716
21220,-6708
21397,-6708
21438,-6716
21476,-6708
21653,-6708
21694,-6716
21732,-6708
21909,-6708
21950,-6716
21988,-6708
22165,-6708
22206,-6716
22244,-6708
22293,-6708
22293,-6584
22315,-6471
22379,-6375
22665,-6090
22761,-6026
22874,-6003
23917,-6003
24030,-6026
24126,-6090
24697,-6662
25518,-6662
25598,-6677
25672,-6724
25722,-6796
25739,-6882
25739,-7762
25724,-7843
25676,-7916
25604,-7966
25518,-7983
24638,-7983
24558,-7968
24484,-7921
24435,-7848
24417,-7762
24417,-7217
23795,-6594
22996,-6594
22883,-6706
22883,-6708
22933,-6708
22973,-6716
23011,-6708
23188,-6708
23269,-6723
23342,-6770
23392,-6843
23409,-6929
23409,-7618
23394,-7698
23375,-7727
23375,-9454
23539,-9617
23539,-9232
23554,-9152
23601,-9078
23673,-9028
23759,-9011
24429,-9011
24509,-9026
24583,-9074
24632,-9146
24649,-9232
24649,-9901
24917,-9901
24917,-9232
24932,-9152
24979,-9078
25051,-9028
25137,-9011
25807,-9011
25887,-9026
25961,-9074
26010,-9146
26027,-9232
26027,-9901
26012,-9981
25965,-10055
25892,-10104
25807,-10122
25137,-10122
25057,-10107
24983,-10059
24934,-9987
24917,-9901
24649,-9901
24634,-9981
24587,-10055
24515,-10104
24429,-10122
24043,-10122
24588,-10667
24652,-10762
24675,-10875
24675,-11262
24839,-11262
24839,-10944
24884,-10834
24968,-10750
25078,-10705
25396,-10705
25470,-10780
25470,-11337
25474,-11337
25474,-10780
25548,-10705
25866,-10705
25976,-10750
26060,-10834
26105,-10944
26105,-11262
26030,-11337
25474,-11337
25470,-11337
24913,-11337
24839,-11262
24675,-11262
24675,-11732
24839,-11732
24839,-11414
24913,-11340
25470,-11340
25470,-11897
25474,-11897
25474,-11340
26030,-11340
26105,-11414
26105,-11732
26060,-11842
25976,-11926
25866,-11971
25548,-11971
25474,-11897
25470,-11897
25396,-11971
25078,-11971
24968,-11926
24884,-11842
24839,-11732
24675,-11732
24675,-11934
24711,-11957
24760,-12030
24777,-12116
24777,-12588
24762,-12668
24755,-12679
24839,-12679
24839,-12361
24884,-12252
24968,-12168
25078,-12122
25396,-12122
25470,-12197
25470,-12754
25474,-12754
25474,-12197
25548,-12122
25866,-12122
25976,-12168
26060,-12252
26105,-12361
26105,-12679
26030,-12754
25474,-12754
25470,-12754
24913,-12754
24839,-12679
24755,-12679
24715,-12742
24651,-12785
24711,-12824
24760,-12896
24777,-12982
24777,-13149
24839,-13149
24839,-12832
24913,-12757
25470,-12757
25470,-13314
25474,-13314
25474,-12757
26030,-12757
26105,-12832
26105,-13149
26060,-13259
25976,-13343
25866,-13388
25548,-13388
25474,-13314
25470,-13314
25396,-13388
25078,-13388
24968,-13343
24884,-13259
24839,-13149
24777,-13149
24777,-13454
24762,-13534
24715,-13608
24669,-13639
24652,-13725
24588,-13820
24106,-14303
24010,-14367
23897,-14389
23799,-14389
23797,-14395
23647,-14544
23641,-14547
23641,-15369
23677,-15392
23727,-15465
23744,-15551
23744,-16023
23729,-16103
23690,-16163
23692,-16164
23726,-16198
24684,-16198
24792,-15937
24991,-15738
25252,-15630
25534,-15629
25794,-15737
25994,-15936
26102,-16197
26102,-16478
25994,-16739
25795,-16939
25535,-17047
25253,-17047
24992,-16939
24793,-16740
24685,-16480
24684,-16198
23726,-16198
23776,-16248
23822,-16357
23822,-16577
23747,-16651
23348,-16651
23348,-16644
23344,-16644
23344,-16651
22945,-16651
22870,-16577
22870,-16357
22916,-16248
23000,-16164
23002,-16163
22965,-16109
22948,-16023
22948,-15551
22963,-15470
23011,-15397
23051,-15369
23051,-14547
23045,-14545
22896,-14395
22815,-14200
22814,-13989
22895,-13793
23044,-13644
23240,-13563
23451,-13562
23647,-13643
23789,-13785
24013,-13561
23999,-13540
23981,-13454
23981,-12982
23997,-12902
24044,-12828
24108,-12784
24048,-12746
23999,-12674
23981,-12588
23981,-12116
23997,-12035
24044,-11962
24084,-11934
24084,-10998
23120,-10033
23120,-11057
23377,-11314
23622,-11314
23702,-11329
23775,-11377
23825,-11449
23842,-11535
23842,-12007
23827,-12088
23780,-12161
23716,-12205
23775,-12243
23825,-12315
23842,-12401
23842,-12874
23827,-12954
23780,-13027
23707,-13077
23622,-13094
23405,-13094
23378,-13122
23282,-13186
23169,-13208
20476,-13208
19702,-13982
19704,-13988
19704,-14199
19631,-14376
20205,-14376
20205,-13576
20221,-13496
20268,-13422
20340,-13372
20426,-13355
21226,-13355
21307,-13370
21380,-13418
21430,-13490
21432,-13500
21590,-13394
21826,-13347
22062,-13394
22262,-13528
22396,-13728
22443,-13964
22443,-13988
22396,-14224
22262,-14424
22062,-14558
21826,-14604
21590,-14558
21433,-14452
21432,-14456
21385,-14530
21312,-14579
21226,-14597
20426,-14597
20346,-14582
20272,-14534
20223,-14462
20205,-14376
19631,-14376
19624,-14395
19474,-14544
19468,-14547
19468,-15330
19504,-15353
19553,-15425
19562,-15468
19576,-15488
19596,-15590
19576,-15692
19571,-15699
19571,-15984
19556,-16064
19517,-16124
19519,-16124
19603,-16208
19648,-16318
19648,-16537
19574,-16612
19174,-16612
19174,-16604
19171,-16604
19171,-16612
18772,-16612
18700,-16541
18629,-16612
18229,-16612
18229,-16604
18226,-16604
18226,-16612
17827,-16612
17752,-16537
17752,-16318
17798,-16208
17882,-16124
17884,-16123
17847,-16070
17830,-15984
17830,-15511
17845,-15431
17892,-15357
17933,-15330
17933,-14508
17927,-14505
17778,-14356
17696,-14161
17696,-13949
17777,-13754
17926,-13604
18122,-13523
18333,-13523
18339,-13526
19869,-11995
19910,-11968
19169,-11968
18265,-12872
18223,-12900
18182,-12929
18179,-12929
18176,-12931
18126,-12941
18077,-12952
16854,-12981
16811,-13047
16739,-13097
16653,-13114
16181,-13114
16100,-13099
16027,-13051
15983,-12988
15945,-13047
15873,-13097
15787,-13114
15433,-13114
15155,-13392
15183,-13372
15269,-13355
16069,-13355
16149,-13370
16223,-13418
16272,-13490
16274,-13500
16433,-13394
16669,-13347
16905,-13394
17105,-13528
17238,-13728
17285,-13964
17285,-13988
17238,-14224
17105,-14424
16905,-14558
16669,-14604
16433,-14558
16275,-14452
16274,-14456
16227,-14530
16155,-14579
16069,-14597
15269,-14597
15189,-14582
15115,-14534
15065,-14462
15048,-14376
15048,-13576
15063,-13496
15085,-13461
14673,-13873
14704,-13948
14704,-14160
14624,-14355
14474,-14505
14468,-14508
14468,-15437
14514,-15504
14531,-15590
14531,-16062
14516,-16143
14478,-16202
14480,-16203
14564,-16287
14609,-16397
14609,-16616
14534,-16691
14135,-16691
14135,-16683
14132,-16683
14132,-16691
13732,-16691
13658,-16616
13658,-16397
13703,-16287
13787,-16203
13790,-16202
13753,-16148
13735,-16062
13735,-15590
13751,-15510
13798,-15436
13870,-15387
13877,-15385
13877,-14508
13872,-14505
13722,-14356
13641,-14161
13641,-13949
13722,-13754
13871,-13604
14067,-13523
14188,-13523
15094,-12618
15094,-12539
15109,-12459
15133,-12421
14807,-12421
14669,-12559
14669,-12775
14654,-12855
14607,-12929
14534,-12978
14448,-12996
13976,-12996
13896,-12981
13822,-12933
13779,-12870
13740,-12929
13668,-12978
13582,-12996
13366,-12996
13208,-13153
13208,-13562
13214,-13564
13363,-13714
13444,-13909
13444,-14121
13364,-14316
13214,-14466
13208,-14468
13208,-15393
13186,-15506
13122,-15602
12878,-15846
12878,-16062
12863,-16143
12824,-16202
12826,-16203
12910,-16287
12955,-16397
12955,-16616
12881,-16691
12481,-16691
12481,-16683
12478,-16683
12478,-16691
12079,-16691
12004,-16616
12004,-16397
12050,-16287
12134,-16203
12136,-16202
12099,-16148
12082,-16062
12082,-15590
12097,-15510
12144,-15436
12217,-15387
12303,-15369
12519,-15369
12618,-15271
12618,-14468
12612,-14466
12463,-14317
12381,-14121
12381,-13910
12462,-13715
12611,-13565
12618,-13562
12618,-13031
12640,-12918
12704,-12822
12889,-12637
12889,-12421
12904,-12341
12951,-12267
13024,-12217
13110,-12200
13582,-12200
13662,-12215
13736,-12263
13780,-12326
13818,-12267
13890,-12217
13976,-12200
14192,-12200
14277,-12116
12492,-12116
11953,-12572
11953,-12775
11937,-12855
11890,-12929
11818,-12978
11732,-12996
11259,-12996
11179,-12981
11105,-12933
11062,-12870
11024,-12929
10952,-12978
10866,-12996
10516,-12996
10375,-13073
10078,-13370
10151,-13355
10951,-13355
11031,-13370
11105,-13418
11154,-13490
11156,-13500
11315,-13394
11551,-13347
11787,-13394
11987,-13528
12120,-13728
12167,-13964
12167,-13988
12120,-14224
11987,-14424
11787,-14558
11551,-14604
11315,-14558
11157,-14452
11156,-14456
11109,-14530
11037,-14579
10951,-14597
10151,-14597
10070,-14582
9997,-14534
9947,-14462
9930,-14376
9930,-13576
9943,-13505
9577,-13871
9625,-13988
9626,-14199
9545,-14395
9395,-14544
9389,-14547
9389,-15487
9425,-15511
9475,-15583
9492,-15669
9492,-16141
9477,-16221
9438,-16281
9440,-16282
9524,-16366
9570,-16476
9570,-16695
9495,-16770
9096,-16770
9096,-16762
9092,-16762
9092,-16770
8693,-16770
8618,-16695
8618,-16476
8664,-16366
8748,-16282
8750,-16281
8713,-16227
8696,-16141
8696,-15669
8711,-15589
8759,-15515
8799,-15487
8799,-14547
8793,-14545
8644,-14395
8563,-14200
8562,-13989
8643,-13793
8793,-13644
8988,-13563
9050,-13563
9988,-12625
10023,-12602
10055,-12575
10172,-12511
10172,-12421
10188,-12341
10235,-12267
10307,-12217
10393,-12200
10866,-12200
10946,-12215
11020,-12263
11063,-12326
11101,-12267
11173,-12217
11259,-12200
11539,-12200
11953,-11850
10250,-11850
9551,-12536
9551,-12775
9536,-12855
9488,-12929
9416,-12978
9330,-12996
8858,-12996
8778,-12981
8704,-12933
8660,-12870
8622,-12929
8550,-12978
8464,-12996
8409,-12996
8260,-13650
8324,-13714
8405,-13909
8405,-14121
8324,-14316
8175,-14466
8169,-14468
8169,-15448
8205,-15471
8254,-15544
8271,-15629
8271,-16102
8256,-16182
8218,-16242
8220,-16243
8304,-16327
8349,-16436
8349,-16656
8275,-16730
7875,-16730
7875,-16722
7872,-16722
7872,-16730
7473,-16730
7398,-16656
7398,-16436
7443,-16327
7527,-16243
7530,-16242
7493,-16188
7476,-16102
7476,-15629
7491,-15549
7538,-15475
7578,-15448
7578,-14468
7573,-14466
7423,-14317
7342,-14121
7342,-13910
7423,-13715
7572,-13565
7684,-13518
7823,-12912
7788,-12861
7771,-12775
7771,-12421
7786,-12341
7833,-12267
7906,-12217
7992,-12200
8464,-12200
8544,-12215
8618,-12263
8661,-12326
8700,-12267
8772,-12217
8858,-12200
9106,-12200
9814,-11505
8529,-11505
7242,-12793
7152,-12853
7047,-12874
6375,-12874
6339,-12929
6266,-12978
6181,-12996
5708,-12996
5628,-12981
5554,-12933
5511,-12870
5473,-12929
5400,-12978
5314,-12996
4842,-12996
4762,-12981
4688,-12933
4661,-12893
4630,-12893
3147,-14376
4753,-14376
4753,-13576
4768,-13496
4815,-13422
4888,-13372
4974,-13355
5774,-13355
5854,-13370
5927,-13418
5977,-13490
5979,-13500
6138,-13394
6374,-13347
6609,-13394
6809,-13528
6943,-13728
6990,-13964
6990,-13988
6943,-14224
6809,-14424
6609,-14558
6374,-14604
6138,-14558
5980,-14452
5979,-14456
5932,-14530
5859,-14579
5774,-14597
4974,-14597
4893,-14582
4820,-14534
4770,-14462
4753,-14376
3147,-14376
2984,-14539
2888,-14603
2775,-14625
2579,-14625
2576,-14631
2427,-14781
2421,-14783
2421,-15448
2457,-15471
2506,-15544
2523,-15629
2523,-16102
2508,-16182
2470,-16242
2472,-16243
2556,-16327
2601,-16436
2601,-16656
2526,-16730
2127,-16730
2127,-16722
2124,-16722
2124,-16730
1725,-16730
1650,-16656
1650,-16436
1695,-16327
1779,-16243
1782,-16242
1745,-16188
1728,-16102
1728,-15629
1743,-15549
1790,-15475
1830,-15448
1830,-14783
1825,-14781
1675,-14632
1594,-14436
1594,-14225
1675,-14030
1824,-13880
2019,-13799
2231,-13799
2426,-13879
2576,-14029
2578,-14035
2653,-14035
4299,-12389
4394,-12325
4507,-12303
4661,-12303
4684,-12267
4756,-12217
4842,-12200
5314,-12200
5395,-12215
5468,-12263
5512,-12326
5550,-12267
5622,-12217
5708,-12200
6181,-12200
6261,-12215
6335,-12263
6375,-12322
6933,-12322
8220,-11035
8309,-10975
8415,-10954
9415,-10954
9392,-10931
9311,-10736
9310,-10524
9391,-10329
9541,-10179
9736,-10098
9891,-10098
9891,-9216
9856,-9194
9800,-9250
9401,-9250
9401,-9242
9398,-9242
9398,-9250
8998,-9250
8924,-9175
8924,-9035
8969,-8925
9053,-8841
9083,-8829
9068,-8819
9019,-8747
9001,-8661
9001,-8346
9016,-8266
9064,-8192
9104,-8165
9104,-6396
9055,-6363
8940,-6190
8931,-6145
8922,-6190
8806,-6363
8634,-6478
8431,-6519
8389,-6510
7027,-7730
7027,-8184
7063,-8207
7112,-8280
7130,-8366
7130,-8681
7115,-8761
7067,-8835
7047,-8848
7078,-8861
7121,-8904
7121,-8740
7136,-8659
7184,-8586
7256,-8536
7342,-8519
7696,-8519
7777,-8534
7850,-8581
7900,-8654
7917,-8740
7917,-9055
7902,-9135
7855,-9209
7814,-9236
7814,-9468
8924,-9468
8924,-9328
8998,-9253
9398,-9253
9398,-9633
9401,-9633
9401,-9253
9800,-9253
9875,-9328
9875,-9468
9829,-9578
9745,-9662
9636,-9707
9475,-9707
9401,-9633
9398,-9633
9323,-9707
9163,-9707
9053,-9662
8969,-9578
8924,-9468
7814,-9468
7814,-10212
7930,-10328
8011,-10523
8011,-10735
7931,-10930
7781,-11080
7586,-11161
7375,-11161
7179,-11080
7029,-10931
6948,-10736
6948,-10524
7029,-10329
7178,-10179
7224,-10160
7224,-9236
7189,-9213
7133,-9270
6733,-9270
6733,-9262
6730,-9262
6730,-9270
6331,-9270
6256,-9195
6256,-9054
6302,-8945
6386,-8861
6415,-8848
6401,-8839
6351,-8766
6334,-8681
6334,-8366
6349,-8285
6396,-8212
6437,-8184
6437,-7681
5759,-8358
5664,-8422
5551,-8444
4413,-8444
4394,-8464
4394,-8641
4378,-8721
4331,-8795
4311,-8809
4342,-8821
4385,-8865
4385,-8700
4400,-8620
4448,-8546
4520,-8497
4606,-8480
4960,-8480
5040,-8495
5114,-8542
5164,-8614
5181,-8700
5181,-9015
5166,-9095
5118,-9169
5078,-9197
5078,-9488
6256,-9488
6256,-9347
6331,-9273
6730,-9273
6730,-9652
6733,-9652
6733,-9273
7133,-9273
7207,-9347
7207,-9488
7162,-9598
7078,-9682
6968,-9727
6808,-9727
6733,-9652
6730,-9652
6656,-9727
6495,-9727
6386,-9682
6302,-9598
6256,-9488
5078,-9488
5078,-10153
5095,-10170
5177,-10366
5177,-10577
5096,-10773
4947,-10922
4751,-11003
4540,-11004
4344,-10923
4195,-10773
4114,-10578
4114,-10367
4194,-10171
4344,-10022
4488,-9962
4488,-9197
4453,-9174
4397,-9230
3997,-9230
3997,-9222
3994,-9222
3994,-9230
3595,-9230
3520,-9156
3520,-9015
3565,-8905
3649,-8821
3679,-8809
3664,-8799
3615,-8727
3598,-8641
3598,-8326
3613,-8246
3660,-8172
3733,-8123
3818,-8105
3917,-8105
4082,-7940
4138,-7903
2218,-7903
1894,-8228
1894,-8366
1878,-8446
1831,-8520
1811,-8533
1842,-8546
1885,-8589
1885,-8425
1900,-8344
1948,-8271
2020,-8221
2106,-8204
2460,-8204
2540,-8219
2614,-8266
2664,-8339
2681,-8425
2681,-8740
2666,-8820
2618,-8894
2578,-8921
2578,-9449
3520,-9449
3520,-9308
3595,-9233
3994,-9233
3994,-9613
3997,-9613
3997,-9233
4397,-9233
4471,-9308
4471,-9449
4426,-9558
4342,-9642
4232,-9688
4072,-9688
3997,-9613
3994,-9613
3919,-9688
3759,-9688
3649,-9642
3565,-9558
3520,-9449
2578,-9449
2578,-10019
2657,-10208
2657,-10420
2576,-10615
2427,-10765
2232,-10846
2020,-10846
1825,-10765
1675,-10616
1594,-10421
1594,-10209
1675,-10014
1824,-9864
1988,-9796
1988,-8921
1953,-8898
1897,-8955
1497,-8955
1497,-8947
1494,-8947
1494,-8955
1095,-8955
1020,-8880
600,-8880
600,-9173
1020,-9173
1020,-9032
1095,-8958
1494,-8958
1494,-9337
1497,-9337
1497,-8958
1897,-8958
1971,-9032
1971,-9173
1926,-9283
1842,-9367
1732,-9412
1572,-9412
1497,-9337
1494,-9337
1419,-9412
1259,-9412
1149,-9367
1065,-9283
1020,-9173
600,-9173
600,-17027
1650,-17027
1650,-16808
1725,-16733
2124,-16733
2124,-17192
2127,-17192
2127,-16733
2526,-16733
2601,-16808
2601,-17027
7398,-17027
7398,-16808
7473,-16733
7872,-16733
7872,-17192
7875,-17192
7875,-16733
8275,-16733
8349,-16808
8349,-17027
8333,-17067
8618,-17067
8618,-16847
8693,-16773
9092,-16773
9092,-17231
9096,-17231
9096,-16773
9495,-16773
9570,-16847
9570,-16988
12004,-16988
12004,-16769
12079,-16694
12478,-16694
12478,-17152
12481,-17152
12481,-16694
12881,-16694
12955,-16769
12955,-16988
13658,-16988
13658,-16769
13732,-16694
14132,-16694
14132,-17152
14135,-17152
14135,-16694
14534,-16694
14609,-16769
14609,-16909
17752,-16909
17752,-16690
17827,-16615
18226,-16615
18226,-17074
18229,-17074
18229,-16615
18629,-16615
18700,-16687
18772,-16615
19171,-16615
19171,-17074
19174,-17074
19174,-16615
19574,-16615
19648,-16690
19648,-16909
19632,-16949
22870,-16949
22870,-16729
22945,-16655
23344,-16655
23344,-17113
23348,-17113
23348,-16655
23747,-16655
23822,-16729
23822,-16949
23776,-17058
23692,-17142
23582,-17188
23422,-17188
23348,-17113
23344,-17113
23270,-17188
23109,-17188
23000,-17142
22916,-17058
22870,-16949
19632,-16949
19603,-17019
19519,-17103
19409,-17148
19249,-17148
19174,-17074
19171,-17074
19097,-17148
18936,-17148
18827,-17103
18743,-17019
18700,-16917
18658,-17019
18574,-17103
18464,-17148
18304,-17148
18229,-17074
18226,-17074
18152,-17148
17991,-17148
17882,-17103
17798,-17019
17752,-16909
14609,-16909
14609,-16988
14564,-17098
14480,-17182
14370,-17227
14210,-17227
14135,-17152
14132,-17152
14057,-17227
13897,-17227
13787,-17182
13703,-17098
13658,-16988
12955,-16988
12910,-17098
12826,-17182
12716,-17227
12556,-17227
12481,-17152
12478,-17152
12404,-17227
12243,-17227
12134,-17182
12050,-17098
12004,-16988
9570,-16988
9570,-17067
9524,-17176
9440,-17260
9331,-17306
9170,-17306
9096,-17231
9092,-17231
9018,-17306
8857,-17306
8748,-17260
8664,-17176
8618,-17067
8333,-17067
8304,-17137
8220,-17221
8110,-17266
7950,-17266
7875,-17192
7872,-17192
7797,-17266
7637,-17266
7527,-17221
7443,-17137
7398,-17027
2601,-17027
2556,-17137
2472,-17221
2362,-17266
2202,-17266
2127,-17192
2124,-17192
2049,-17266
1889,-17266
1779,-17221
1695,-17137
1650,-17027
600,-17027
600,-17903
26919,-17903
26919,344
" /> 
<polyline style="fill-rule:evenodd;"
points="21586,-2019
21594,-2019
21594,-2016
21586,-2016
21586,-2008
21583,-2008
21583,-2016
21575,-2016
21575,-2019
21583,-2019
21583,-2027
21586,-2027
21586,-2019
" /> 
<polyline style="fill-rule:evenodd;"
points="21566,-3952
21566,-3870
21641,-3796
21712,-3796
21822,-3841
21854,-3873
21909,-3873
21950,-3881
21988,-3873
22037,-3873
22037,-3858
22059,-3745
22123,-3649
22185,-3588
22185,-3419
22169,-3409
22117,-3461
22008,-3507
21729,-3507
21655,-3432
21655,-2964
21662,-2964
21662,-2961
21655,-2961
21655,-2953
21651,-2953
21651,-2961
21644,-2961
21644,-2964
21651,-2964
21651,-3432
21577,-3507
21348,-3507
21348,-3824
21417,-3796
21488,-3796
21563,-3870
21563,-3953
21564,-3955
21566,-3952
" /> 
</g>
<g style="fill:#FFFFFF; fill-opacity:1.0; 
stroke:#FFFFFF; stroke-width:196.85; stroke-opacity:1; 
stroke-linecap:round; stroke-linejoin:round;">
</g>
<g style="fill:#FFFFFF; fill-opacity:1.0; 
stroke:#FFFFFF; stroke-width:0; stroke-opacity:1; 
stroke-linecap:round; stroke-linejoin:round;">
<circle cx="2125.98" cy="-10315" r="68.8976" /> 
</g>
<g style="fill:#FFFFFF; fill-opacity:1.0; 
stroke:#FFFFFF; stroke-width:39.3701; stroke-opacity:1; 
stroke-linecap:round; stroke-linejoin:round;">
</g>
<g style="fill:#FFFFFF; fill-opacity:1.0; 
stroke:#FFFFFF; stroke-width:0; stroke-opacity:1; 
stroke-linecap:round; stroke-linejoin:round;">
<circle cx="7480.31" cy="-10629.9" r="68.8976" /> 
</g>
<g style="fill:#FFFFFF; fill-opacity:1.0; 
stroke:#FFFFFF; stroke-width:39.3701; stroke-opacity:1; 
stroke-linecap:round; stroke-linejoin:round;">
</g>
<g style="fill:#FFFFFF; fill-opacity:1.0; 
stroke:#FFFFFF; stroke-width:0; stroke-opacity:1; 
stroke-linecap:round; stroke-linejoin:round;">
<circle cx="2125.98" cy="-14330.7" r="68.8976" /> 
</g>
<g style="fill:#FFFFFF; fill-opacity:1.0; 
stroke:#FFFFFF; stroke-width:39.3701; stroke-opacity:1; 
stroke-linecap:round; stroke-linejoin:round;">
</g>
<g style="fill:#FFFFFF; fill-opacity:1.0; 
stroke:#FFFFFF; stroke-width:0; stroke-opacity:1; 
stroke-linecap:round; stroke-linejoin:round;">
<circle cx="9094.49" cy="-14094.5" r="68.8976" /> 
</g>
<g style="fill:#FFFFFF; fill-opacity:1.0; 
stroke:#FFFFFF; stroke-width:39.3701; stroke-opacity:1; 
stroke-linecap:round; stroke-linejoin:round;">
</g>
<g style="fill:#FFFFFF; fill-opacity:1.0; 
stroke:#FFFFFF; stroke-width:0; stroke-opacity:1; 
stroke-linecap:round; stroke-linejoin:round;">
<circle cx="7874.02" cy="-14015.7" r="68.8976" /> 
</g>
<g style="fill:#FFFFFF; fill-opacity:1.0; 
stroke:#FFFFFF; stroke-width:39.3701; stroke-opacity:1; 
stroke-linecap:round; stroke-linejoin:round;">
</g>
<g style="fill:#FFFFFF; fill-opacity:1.0; 
stroke:#FFFFFF; stroke-width:0; stroke-opacity:1; 
stroke-linecap:round; stroke-linejoin:round;">
<circle cx="12913.4" cy="-14015.7" r="68.8976" /> 
</g>
<g style="fill:#FFFFFF; fill-opacity:1.0; 
stroke:#FFFFFF; stroke-width:39.3701; stroke-opacity:1; 
stroke-linecap:round; stroke-linejoin:round;">
</g>
<g style="fill:#FFFFFF; fill-opacity:1.0; 
stroke:#FFFFFF; stroke-width:0; stroke-opacity:1; 
stroke-linecap:round; stroke-linejoin:round;">
<circle cx="4645.67" cy="-10472.4" r="68.8976" /> 
</g>
<g style="fill:#FFFFFF; fill-opacity:1.0; 
stroke:#FFFFFF; stroke-width:39.3701; stroke-opacity:1; 
stroke-linecap:round; stroke-linejoin:round;">
</g>
<g style="fill:#FFFFFF; fill-opacity:1.0; 
stroke:#FFFFFF; stroke-width:0; stroke-opacity:1; 
stroke-linecap:round; stroke-linejoin:round;">
<circle cx="9842.52" cy="-10629.9" r="68.8976" /> 
</g>
<g style="fill:#FFFFFF; fill-opacity:1.0; 
stroke:#FFFFFF; stroke-width:39.3701; stroke-opacity:1; 
stroke-linecap:round; stroke-linejoin:round;">
</g>
<g style="fill:#FFFFFF; fill-opacity:1.0; 
stroke:#FFFFFF; stroke-width:0; stroke-opacity:1; 
stroke-linecap:round; stroke-linejoin:round;">
<circle cx="12559.1" cy="-10039.4" r="68.8976" /> 
</g>
<g style="fill:#FFFFFF; fill-opacity:1.0; 
stroke:#FFFFFF; stroke-width:39.3701; stroke-opacity:1; 
stroke-linecap:round; stroke-linejoin:round;">
</g>
<g style="fill:#FFFFFF; fill-opacity:1.0; 
stroke:#FFFFFF; stroke-width:0; stroke-opacity:1; 
stroke-linecap:round; stroke-linejoin:round;">
<circle cx="17322.8" cy="-9724.41" r="68.8976" /> 
</g>
<g style="fill:#FFFFFF; fill-opacity:1.0; 
stroke:#FFFFFF; stroke-width:39.3701; stroke-opacity:1; 
stroke-linecap:round; stroke-linejoin:round;">
</g>
<g style="fill:#FFFFFF; fill-opacity:1.0; 
stroke:#FFFFFF; stroke-width:0; stroke-opacity:1; 
stroke-linecap:round; stroke-linejoin:round;">
<circle cx="14173.2" cy="-14055.1" r="68.8976" /> 
</g>
<g style="fill:#FFFFFF; fill-opacity:1.0; 
stroke:#FFFFFF; stroke-width:39.3701; stroke-opacity:1; 
stroke-linecap:round; stroke-linejoin:round;">
</g>
<g style="fill:#FFFFFF; fill-opacity:1.0; 
stroke:#FFFFFF; stroke-width:0; stroke-opacity:1; 
stroke-linecap:round; stroke-linejoin:round;">
<circle cx="19173.2" cy="-14094.5" r="68.8976" /> 
</g>
<g style="fill:#FFFFFF; fill-opacity:1.0; 
stroke:#FFFFFF; stroke-width:39.3701; stroke-opacity:1; 
stroke-linecap:round; stroke-linejoin:round;">
</g>
<g style="fill:#FFFFFF; fill-opacity:1.0; 
stroke:#FFFFFF; stroke-width:0; stroke-opacity:1; 
stroke-linecap:round; stroke-linejoin:round;">
<circle cx="18228.3" cy="-14055.1" r="68.8976" /> 
</g>
<g style="fill:#FFFFFF; fill-opacity:1.0; 
stroke:#FFFFFF; stroke-width:39.3701; stroke-opacity:1; 
stroke-linecap:round; stroke-linejoin:round;">
</g>
<g style="fill:#FFFFFF; fill-opacity:1.0; 
stroke:#FFFFFF; stroke-width:0; stroke-opacity:1; 
stroke-linecap:round; stroke-linejoin:round;">
<circle cx="23346.5" cy="-14094.5" r="68.8976" /> 
</g>
<g style="fill:#FFFFFF; fill-opacity:1.0; 
stroke:#FFFFFF; stroke-width:39.3701; stroke-opacity:1; 
stroke-linecap:round; stroke-linejoin:round;">
</g>
<g style="fill:#FFFFFF; fill-opacity:1.0; 
stroke:#FFFFFF; stroke-width:0; stroke-opacity:1; 
stroke-linecap:round; stroke-linejoin:round;">
<circle cx="15039.4" cy="-9921.26" r="68.8976" /> 
</g>
<g style="fill:#FFFFFF; fill-opacity:1.0; 
stroke:#FFFFFF; stroke-width:39.3701; stroke-opacity:1; 
stroke-linecap:round; stroke-linejoin:round;">
</g>
<g style="fill:#FFFFFF; fill-opacity:1.0; 
stroke:#FFFFFF; stroke-width:0; stroke-opacity:1; 
stroke-linecap:round; stroke-linejoin:round;">
<circle cx="19291.3" cy="-7637.8" r="68.8976" /> 
</g>
<g style="fill:#FFFFFF; fill-opacity:1.0; 
stroke:#FFFFFF; stroke-width:39.3701; stroke-opacity:1; 
stroke-linecap:round; stroke-linejoin:round;">
</g>
<g style="fill:#FFFFFF; fill-opacity:1.0; 
stroke:#FFFFFF; stroke-width:0; stroke-opacity:1; 
stroke-linecap:round; stroke-linejoin:round;">
<circle cx="17244.1" cy="-3464.57" r="68.8976" /> 
</g>
<g style="fill:#FFFFFF; fill-opacity:1.0; 
stroke:#FFFFFF; stroke-width:39.3701; stroke-opacity:1; 
stroke-linecap:round; stroke-linejoin:round;">
</g>
<g style="fill:#FFFFFF; fill-opacity:1.0; 
stroke:#FFFFFF; stroke-width:0; stroke-opacity:1; 
stroke-linecap:round; stroke-linejoin:round;">
<circle cx="25472.4" cy="-12755.9" r="68.8976" /> 
</g>
<g style="fill:#FFFFFF; fill-opacity:1.0; 
stroke:#FFFFFF; stroke-width:39.3701; stroke-opacity:1; 
stroke-linecap:round; stroke-linejoin:round;">
</g>
<g style="fill:#FFFFFF; fill-opacity:1.0; 
stroke:#FFFFFF; stroke-width:0; stroke-opacity:1; 
stroke-linecap:round; stroke-linejoin:round;">
<circle cx="25472.4" cy="-9566.93" r="68.8976" /> 
</g>
<g style="fill:#FFFFFF; fill-opacity:1.0; 
stroke:#FFFFFF; stroke-width:39.3701; stroke-opacity:1; 
stroke-linecap:round; stroke-linejoin:round;">
</g>
<g style="fill:#FFFFFF; fill-opacity:1.0; 
stroke:#FFFFFF; stroke-width:0; stroke-opacity:1; 
stroke-linecap:round; stroke-linejoin:round;">
<circle cx="25393.7" cy="-16338.6" r="68.8976" /> 
</g>
<g style="fill:#FFFFFF; fill-opacity:1.0; 
stroke:#FFFFFF; stroke-width:39.3701; stroke-opacity:1; 
stroke-linecap:round; stroke-linejoin:round;">
</g>
<g style="fill:#FFFFFF; fill-opacity:1.0; 
stroke:#FFFFFF; stroke-width:0; stroke-opacity:1; 
stroke-linecap:round; stroke-linejoin:round;">
<circle cx="5374.02" cy="-13976.4" r="68.8976" /> 
</g>
<g style="fill:#FFFFFF; fill-opacity:1.0; 
stroke:#FFFFFF; stroke-width:39.3701; stroke-opacity:1; 
stroke-linecap:round; stroke-linejoin:round;">
</g>
<g style="fill:#FFFFFF; fill-opacity:1.0; 
stroke:#FFFFFF; stroke-width:0; stroke-opacity:1; 
stroke-linecap:round; stroke-linejoin:round;">
<circle cx="6374.02" cy="-13976.4" r="68.8976" /> 
</g>
<g style="fill:#FFFFFF; fill-opacity:1.0; 
stroke:#FFFFFF; stroke-width:39.3701; stroke-opacity:1; 
stroke-linecap:round; stroke-linejoin:round;">
</g>
<g style="fill:#FFFFFF; fill-opacity:1.0; 
stroke:#FFFFFF; stroke-width:0; stroke-opacity:1; 
stroke-linecap:round; stroke-linejoin:round;">
<circle cx="10551.2" cy="-13976.4" r="68.8976" /> 
</g>
<g style="fill:#FFFFFF; fill-opacity:1.0; 
stroke:#FFFFFF; stroke-width:39.3701; stroke-opacity:1; 
stroke-linecap:round; stroke-linejoin:round;">
</g>
<g style="fill:#FFFFFF; fill-opacity:1.0; 
stroke:#FFFFFF; stroke-width:0; stroke-opacity:1; 
stroke-linecap:round; stroke-linejoin:round;">
<circle cx="11551.2" cy="-13976.4" r="68.8976" /> 
</g>
<g style="fill:#FFFFFF; fill-opacity:1.0; 
stroke:#FFFFFF; stroke-width:39.3701; stroke-opacity:1; 
stroke-linecap:round; stroke-linejoin:round;">
</g>
<g style="fill:#FFFFFF; fill-opacity:1.0; 
stroke:#FFFFFF; stroke-width:0; stroke-opacity:1; 
stroke-linecap:round; stroke-linejoin:round;">
<circle cx="25078.7" cy="-4527.56" r="68.8976" /> 
</g>
<g style="fill:#FFFFFF; fill-opacity:1.0; 
stroke:#FFFFFF; stroke-width:39.3701; stroke-opacity:1; 
stroke-linecap:round; stroke-linejoin:round;">
</g>
<g style="fill:#FFFFFF; fill-opacity:1.0; 
stroke:#FFFFFF; stroke-width:0; stroke-opacity:1; 
stroke-linecap:round; stroke-linejoin:round;">
<circle cx="25078.7" cy="-7322.83" r="68.8976" /> 
</g>
<g style="fill:#FFFFFF; fill-opacity:1.0; 
stroke:#FFFFFF; stroke-width:39.3701; stroke-opacity:1; 
stroke-linecap:round; stroke-linejoin:round;">
</g>
<g style="fill:#FFFFFF; fill-opacity:1.0; 
stroke:#FFFFFF; stroke-width:0; stroke-opacity:1; 
stroke-linecap:round; stroke-linejoin:round;">
<circle cx="15669.3" cy="-13976.4" r="68.8976" /> 
</g>
<g style="fill:#FFFFFF; fill-opacity:1.0; 
stroke:#FFFFFF; stroke-width:39.3701; stroke-opacity:1; 
stroke-linecap:round; stroke-linejoin:round;">
</g>
<g style="fill:#FFFFFF; fill-opacity:1.0; 
stroke:#FFFFFF; stroke-width:0; stroke-opacity:1; 
stroke-linecap:round; stroke-linejoin:round;">
<circle cx="16669.3" cy="-13976.4" r="68.8976" /> 
</g>
<g style="fill:#FFFFFF; fill-opacity:1.0; 
stroke:#FFFFFF; stroke-width:39.3701; stroke-opacity:1; 
stroke-linecap:round; stroke-linejoin:round;">
</g>
<g style="fill:#FFFFFF; fill-opacity:1.0; 
stroke:#FFFFFF; stroke-width:0; stroke-opacity:1; 
stroke-linecap:round; stroke-linejoin:round;">
<circle cx="20826.8" cy="-13976.4" r="68.8976" /> 
</g>
<g style="fill:#FFFFFF; fill-opacity:1.0; 
stroke:#FFFFFF; stroke-width:39.3701; stroke-opacity:1; 
stroke-linecap:round; stroke-linejoin:round;">
</g>
<g style="fill:#FFFFFF; fill-opacity:1.0; 
stroke:#FFFFFF; stroke-width:0; stroke-opacity:1; 
stroke-linecap:round; stroke-linejoin:round;">
<circle cx="21826.8" cy="-13976.4" r="68.8976" /> 
</g>
<g style="fill:#FFFFFF; fill-opacity:1.0; 
stroke:#FFFFFF; stroke-width:39.3701; stroke-opacity:1; 
stroke-linecap:round; stroke-linejoin:round;">
</g>
<g style="fill:#FFFFFF; fill-opacity:1.0; 
stroke:#FFFFFF; stroke-width:0; stroke-opacity:1; 
stroke-linecap:round; stroke-linejoin:round;">
<circle cx="12431.1" cy="-5836.61" r="68.8976" /> 
</g>
<g style="fill:#FFFFFF; fill-opacity:1.0; 
stroke:#FFFFFF; stroke-width:39.3701; stroke-opacity:1; 
stroke-linecap:round; stroke-linejoin:round;">
</g>
<g style="fill:#FFFFFF; fill-opacity:1.0; 
stroke:#FFFFFF; stroke-width:0; stroke-opacity:1; 
stroke-linecap:round; stroke-linejoin:round;">
<circle cx="11431.1" cy="-5836.61" r="68.8976" /> 
</g>
<g style="fill:#FFFFFF; fill-opacity:1.0; 
stroke:#FFFFFF; stroke-width:39.3701; stroke-opacity:1; 
stroke-linecap:round; stroke-linejoin:round;">
</g>
<g style="fill:#FFFFFF; fill-opacity:1.0; 
stroke:#FFFFFF; stroke-width:0; stroke-opacity:1; 
stroke-linecap:round; stroke-linejoin:round;">
<circle cx="10431.1" cy="-5836.61" r="68.8976" /> 
</g>
<g style="fill:#FFFFFF; fill-opacity:1.0; 
stroke:#FFFFFF; stroke-width:39.3701; stroke-opacity:1; 
stroke-linecap:round; stroke-linejoin:round;">
</g>
<g style="fill:#FFFFFF; fill-opacity:1.0; 
stroke:#FFFFFF; stroke-width:0; stroke-opacity:1; 
stroke-linecap:round; stroke-linejoin:round;">
<circle cx="9431.1" cy="-5836.61" r="68.8976" /> 
</g>
<g style="fill:#FFFFFF; fill-opacity:1.0; 
stroke:#FFFFFF; stroke-width:39.3701; stroke-opacity:1; 
stroke-linecap:round; stroke-linejoin:round;">
</g>
<g style="fill:#FFFFFF; fill-opacity:1.0; 
stroke:#FFFFFF; stroke-width:0; stroke-opacity:1; 
stroke-linecap:round; stroke-linejoin:round;">
<circle cx="8431.1" cy="-5836.61" r="68.8976" /> 
</g>
<g style="fill:#FFFFFF; fill-opacity:1.0; 
stroke:#FFFFFF; stroke-width:39.3701; stroke-opacity:1; 
stroke-linecap:round; stroke-linejoin:round;">
</g>
<g style="fill:#FFFFFF; fill-opacity:1.0; 
stroke:#FFFFFF; stroke-width:0; stroke-opacity:1; 
stroke-linecap:round; stroke-linejoin:round;">
<circle cx="7431.1" cy="-5836.61" r="68.8976" /> 
</g>
<g style="fill:#FFFFFF; fill-opacity:1.0; 
stroke:#FFFFFF; stroke-width:39.3701; stroke-opacity:1; 
stroke-linecap:round; stroke-linejoin:round;">
</g>
<g style="fill:#FFFFFF; fill-opacity:1.0; 
stroke:#FFFFFF; stroke-width:0; stroke-opacity:1; 
stroke-linecap:round; stroke-linejoin:round;">
<circle cx="6431.1" cy="-5836.61" r="68.8976" /> 
</g>
<g style="fill:#FFFFFF; fill-opacity:1.0; 
stroke:#FFFFFF; stroke-width:39.3701; stroke-opacity:1; 
stroke-linecap:round; stroke-linejoin:round;">
</g>
<g style="fill:#FFFFFF; fill-opacity:1.0; 
stroke:#FFFFFF; stroke-width:0; stroke-opacity:1; 
stroke-linecap:round; stroke-linejoin:round;">
<circle cx="5431.1" cy="-5836.61" r="68.8976" /> 
</g>
<g style="fill:#FFFFFF; fill-opacity:1.0; 
stroke:#FFFFFF; stroke-width:39.3701; stroke-opacity:1; 
stroke-linecap:round; stroke-linejoin:round;">
</g>
<g style="fill:#FFFFFF; fill-opacity:1.0; 
stroke:#FFFFFF; stroke-width:0; stroke-opacity:1; 
stroke-linecap:round; stroke-linejoin:round;">
<circle cx="5431.1" cy="-2836.61" r="68.8976" /> 
</g>
<g style="fill:#FFFFFF; fill-opacity:1.0; 
stroke:#FFFFFF; stroke-width:39.3701; stroke-opacity:1; 
stroke-linecap:round; stroke-linejoin:round;">
</g>
<g style="fill:#FFFFFF; fill-opacity:1.0; 
stroke:#FFFFFF; stroke-width:0; stroke-opacity:1; 
stroke-linecap:round; stroke-linejoin:round;">
<circle cx="6431.1" cy="-2836.61" r="68.8976" /> 
</g>
<g style="fill:#FFFFFF; fill-opacity:1.0; 
stroke:#FFFFFF; stroke-width:39.3701; stroke-opacity:1; 
stroke-linecap:round; stroke-linejoin:round;">
</g>
<g style="fill:#FFFFFF; fill-opacity:1.0; 
stroke:#FFFFFF; stroke-width:0; stroke-opacity:1; 
stroke-linecap:round; stroke-linejoin:round;">
<circle cx="7431.1" cy="-2836.61" r="68.8976" /> 
</g>
<g style="fill:#FFFFFF; fill-opacity:1.0; 
stroke:#FFFFFF; stroke-width:39.3701; stroke-opacity:1; 
stroke-linecap:round; stroke-linejoin:round;">
</g>
<g style="fill:#FFFFFF; fill-opacity:1.0; 
stroke:#FFFFFF; stroke-width:0; stroke-opacity:1; 
stroke-linecap:round; stroke-linejoin:round;">
<circle cx="8431.1" cy="-2836.61" r="68.8976" /> 
</g>
<g style="fill:#FFFFFF; fill-opacity:1.0; 
stroke:#FFFFFF; stroke-width:39.3701; stroke-opacity:1; 
stroke-linecap:round; stroke-linejoin:round;">
</g>
<g style="fill:#FFFFFF; fill-opacity:1.0; 
stroke:#FFFFFF; stroke-width:0; stroke-opacity:1; 
stroke-linecap:round; stroke-linejoin:round;">
<circle cx="9431.1" cy="-2836.61" r="68.8976" /> 
</g>
<g style="fill:#FFFFFF; fill-opacity:1.0; 
stroke:#FFFFFF; stroke-width:39.3701; stroke-opacity:1; 
stroke-linecap:round; stroke-linejoin:round;">
</g>
<g style="fill:#FFFFFF; fill-opacity:1.0; 
stroke:#FFFFFF; stroke-width:0; stroke-opacity:1; 
stroke-linecap:round; stroke-linejoin:round;">
<circle cx="10431.1" cy="-2836.61" r="68.8976" /> 
</g>
<g style="fill:#FFFFFF; fill-opacity:1.0; 
stroke:#FFFFFF; stroke-width:39.3701; stroke-opacity:1; 
stroke-linecap:round; stroke-linejoin:round;">
</g>
<g style="fill:#FFFFFF; fill-opacity:1.0; 
stroke:#FFFFFF; stroke-width:0; stroke-opacity:1; 
stroke-linecap:round; stroke-linejoin:round;">
<circle cx="11431.1" cy="-2836.61" r="68.8976" /> 
</g>
<g style="fill:#FFFFFF; fill-opacity:1.0; 
stroke:#FFFFFF; stroke-width:39.3701; stroke-opacity:1; 
stroke-linecap:round; stroke-linejoin:round;">
</g>
<g style="fill:#FFFFFF; fill-opacity:1.0; 
stroke:#FFFFFF; stroke-width:0; stroke-opacity:1; 
stroke-linecap:round; stroke-linejoin:round;">
<circle cx="12431.1" cy="-2836.61" r="68.8976" /> 
</g>
<g style="fill:#FFFFFF; fill-opacity:1.0; 
stroke:#FFFFFF; stroke-width:39.3701; stroke-opacity:1; 
stroke-linecap:round; stroke-linejoin:round;">
</g>
<g style="fill:#FFFFFF; fill-opacity:1.0; 
stroke:#FFFFFF; stroke-width:0; stroke-opacity:1; 
stroke-linecap:round; stroke-linejoin:round;">
<circle cx="17204.7" cy="-2047.24" r="68.8976" /> 
</g>
<g style="fill:#FFFFFF; fill-opacity:1.0; 
stroke:#FFFFFF; stroke-width:39.3701; stroke-opacity:1; 
stroke-linecap:round; stroke-linejoin:round;">
</g>
<g style="fill:#FFFFFF; fill-opacity:1.0; 
stroke:#FFFFFF; stroke-width:0; stroke-opacity:1; 
stroke-linecap:round; stroke-linejoin:round;">
<circle cx="2165.35" cy="-2165.35" r="68.8976" /> 
</g>
<g style="fill:#FFFFFF; fill-opacity:1.0; 
stroke:#FFFFFF; stroke-width:39.3701; stroke-opacity:1; 
stroke-linecap:round; stroke-linejoin:round;">
</g>
<g style="fill:#FFFFFF; fill-opacity:1.0; 
stroke:#FFFFFF; stroke-width:0; stroke-opacity:1; 
stroke-linecap:round; stroke-linejoin:round;">
<circle cx="24094.5" cy="-9566.93" r="68.8976" /> 
</g>
<g style="fill:#FFFFFF; fill-opacity:1.0; 
stroke:#FFFFFF; stroke-width:39.3701; stroke-opacity:1; 
stroke-linecap:round; stroke-linejoin:round;">
</g>
<g style="fill:#FFFFFF; fill-opacity:1.0; 
stroke:#FFFFFF; stroke-width:0; stroke-opacity:1; 
stroke-linecap:round; stroke-linejoin:round;">
<circle cx="25472.4" cy="-11338.6" r="68.8976" /> 
</g>
<g style="fill:#FFFFFF; fill-opacity:1.0; 
stroke:#FFFFFF; stroke-width:39.3701; stroke-opacity:1; 
stroke-linecap:round; stroke-linejoin:round;">
</g>
<g style="fill:#000000; fill-opacity:1.0; 
stroke:#000000; stroke-width:39.3701; stroke-opacity:1; 
stroke-linecap:round; stroke-linejoin:round;">
</g> 
</svg>
