<?xml version="1.0" standalone="no"?>
 <!DOCTYPE svg PUBLIC "-//W3C//DTD SVG 1.1//EN" 
 "http://www.w3.org/Graphics/SVG/1.1/DTD/svg11.dtd"> 
<svg xmlns="http://www.w3.org/2000/svg" version="1.1" 
    width="29.7002cm" height="21.0007cm" viewBox="0 0 116930 82680 ">
<title>SVG Picture created as hmost-F.Cu.svg date 2017/02/19 16:46:33 </title>
  <desc>Picture generated by PCBNEW </desc>
<g style="fill:#000000; fill-opacity:1;stroke:#000000; stroke-opacity:1;
stroke-linecap:round; stroke-linejoin:round; "
 transform="translate(0 0) scale(1 1)">
</g>
<g style="fill:#000000; fill-opacity:0.0; 
stroke:#000000; stroke-width:-0.000393701; stroke-opacity:1; 
stroke-linecap:round; stroke-linejoin:round;">
</g>
<g style="fill:#000000; fill-opacity:0.0; 
stroke:#000000; stroke-width:0; stroke-opacity:1; 
stroke-linecap:round; stroke-linejoin:round;">
</g>
<g style="fill:#000000; fill-opacity:1.0; 
stroke:#000000; stroke-width:0; stroke-opacity:1; 
stroke-linecap:round; stroke-linejoin:round;">
<polyline style="fill-rule:evenodd;"
points="16909,-3129
16909,-3799
17578,-3799
17578,-3129
16909,-3129
" /> 
<polyline style="fill-rule:evenodd;"
points="25137,-12421
25137,-13090
25807,-13090
25807,-12421
25137,-12421
" /> 
<polyline style="fill-rule:evenodd;"
points="25137,-9232
25137,-9901
25807,-9901
25807,-9232
25137,-9232
" /> 
<polyline style="fill-rule:evenodd;"
points="4974,-14376
5774,-14376
5774,-13576
4974,-13576
4974,-14376
" /> 
</g>
<g style="fill:#000000; fill-opacity:1.0; 
stroke:#000000; stroke-width:800; stroke-opacity:1; 
stroke-linecap:round; stroke-linejoin:round;">
</g>
<g style="fill:#000000; fill-opacity:0.0; 
stroke:#000000; stroke-width:800; stroke-opacity:1; 
stroke-linecap:round; stroke-linejoin:round;">
<path d="M6374 -13976
L6374 -13976
" />
</g>
<g style="fill:#000000; fill-opacity:0.0; 
stroke:#000000; stroke-width:0; stroke-opacity:1; 
stroke-linecap:round; stroke-linejoin:round;">
</g>
<g style="fill:#000000; fill-opacity:1.0; 
stroke:#000000; stroke-width:0; stroke-opacity:1; 
stroke-linecap:round; stroke-linejoin:round;">
<polyline style="fill-rule:evenodd;"
points="10951,-13576
10151,-13576
10151,-14376
10951,-14376
10951,-13576
" /> 
</g>
<g style="fill:#000000; fill-opacity:1.0; 
stroke:#000000; stroke-width:800; stroke-opacity:1; 
stroke-linecap:round; stroke-linejoin:round;">
</g>
<g style="fill:#000000; fill-opacity:0.0; 
stroke:#000000; stroke-width:800; stroke-opacity:1; 
stroke-linecap:round; stroke-linejoin:round;">
<path d="M11551 -13976
L11551 -13976
" />
</g>
<g style="fill:#000000; fill-opacity:0.0; 
stroke:#000000; stroke-width:0; stroke-opacity:1; 
stroke-linecap:round; stroke-linejoin:round;">
</g>
<g style="fill:#000000; fill-opacity:1.0; 
stroke:#000000; stroke-width:0; stroke-opacity:1; 
stroke-linecap:round; stroke-linejoin:round;">
<polyline style="fill-rule:evenodd;"
points="24638,-4087
24638,-4967
25518,-4967
25518,-4087
24638,-4087
" /> 
<polyline style="fill-rule:evenodd;"
points="24638,-6882
24638,-7762
25518,-7762
25518,-6882
24638,-6882
" /> 
<polyline style="fill-rule:evenodd;"
points="16069,-13576
15269,-13576
15269,-14376
16069,-14376
16069,-13576
" /> 
</g>
<g style="fill:#000000; fill-opacity:1.0; 
stroke:#000000; stroke-width:800; stroke-opacity:1; 
stroke-linecap:round; stroke-linejoin:round;">
</g>
<g style="fill:#000000; fill-opacity:0.0; 
stroke:#000000; stroke-width:800; stroke-opacity:1; 
stroke-linecap:round; stroke-linejoin:round;">
<path d="M16669 -13976
L16669 -13976
" />
</g>
<g style="fill:#000000; fill-opacity:0.0; 
stroke:#000000; stroke-width:0; stroke-opacity:1; 
stroke-linecap:round; stroke-linejoin:round;">
</g>
<g style="fill:#000000; fill-opacity:1.0; 
stroke:#000000; stroke-width:0; stroke-opacity:1; 
stroke-linecap:round; stroke-linejoin:round;">
<polyline style="fill-rule:evenodd;"
points="21226,-13576
20426,-13576
20426,-14376
21226,-14376
21226,-13576
" /> 
</g>
<g style="fill:#000000; fill-opacity:1.0; 
stroke:#000000; stroke-width:800; stroke-opacity:1; 
stroke-linecap:round; stroke-linejoin:round;">
</g>
<g style="fill:#000000; fill-opacity:0.0; 
stroke:#000000; stroke-width:800; stroke-opacity:1; 
stroke-linecap:round; stroke-linejoin:round;">
<path d="M21826 -13976
L21826 -13976
" />
</g>
<g style="fill:#000000; fill-opacity:0.0; 
stroke:#000000; stroke-width:0; stroke-opacity:1; 
stroke-linecap:round; stroke-linejoin:round;">
</g>
<g style="fill:#000000; fill-opacity:1.0; 
stroke:#000000; stroke-width:0; stroke-opacity:1; 
stroke-linecap:round; stroke-linejoin:round;">
<polyline style="fill-rule:evenodd;"
points="3681,-12342
3681,-12657
4035,-12657
4035,-12342
3681,-12342
" /> 
<polyline style="fill-rule:evenodd;"
points="3681,-11594
3681,-11909
4035,-11909
4035,-11594
3681,-11594
" /> 
<polyline style="fill-rule:evenodd;"
points="4468,-11968
4468,-12283
4822,-12283
4822,-11968
4468,-11968
" /> 
<polyline style="fill-rule:evenodd;"
points="3996,-16318
3996,-16633
4350,-16633
4350,-16318
3996,-16318
" /> 
<polyline style="fill-rule:evenodd;"
points="3996,-15570
3996,-15885
4350,-15885
4350,-15570
3996,-15570
" /> 
<polyline style="fill-rule:evenodd;"
points="4783,-15944
4783,-16259
5137,-16259
5137,-15944
4783,-15944
" /> 
<polyline style="fill-rule:evenodd;"
points="9153,-12421
9153,-12736
9507,-12736
9507,-12421
9153,-12421
" /> 
<polyline style="fill-rule:evenodd;"
points="9153,-11673
9153,-11988
9507,-11988
9507,-11673
9153,-11673
" /> 
<polyline style="fill-rule:evenodd;"
points="9940,-12047
9940,-12362
10295,-12362
10295,-12047
9940,-12047
" /> 
<polyline style="fill-rule:evenodd;"
points="9862,-16633
10177,-16633
10177,-16279
9862,-16279
9862,-16633
" /> 
<polyline style="fill-rule:evenodd;"
points="9114,-16633
9429,-16633
9429,-16279
9114,-16279
9114,-16633
" /> 
<polyline style="fill-rule:evenodd;"
points="9488,-15846
9803,-15846
9803,-15492
9488,-15492
9488,-15846
" /> 
<polyline style="fill-rule:evenodd;"
points="6397,-12381
6397,-12696
6751,-12696
6751,-12381
6397,-12381
" /> 
<polyline style="fill-rule:evenodd;"
points="6397,-11633
6397,-11948
6751,-11948
6751,-11633
6397,-11633
" /> 
<polyline style="fill-rule:evenodd;"
points="7185,-12007
7185,-12322
7539,-12322
7539,-12007
7185,-12007
" /> 
<polyline style="fill-rule:evenodd;"
points="7578,-15885
7578,-15570
7224,-15570
7224,-15885
7578,-15885
" /> 
<polyline style="fill-rule:evenodd;"
points="7578,-16633
7578,-16318
7224,-16318
7224,-16633
7578,-16633
" /> 
<polyline style="fill-rule:evenodd;"
points="6791,-16259
6791,-15944
6437,-15944
6437,-16259
6791,-16259
" /> 
<polyline style="fill-rule:evenodd;"
points="11633,-12381
11633,-12696
11988,-12696
11988,-12381
11633,-12381
" /> 
<polyline style="fill-rule:evenodd;"
points="11633,-11633
11633,-11948
11988,-11948
11988,-11633
11633,-11633
" /> 
<polyline style="fill-rule:evenodd;"
points="12421,-12007
12421,-12322
12775,-12322
12775,-12007
12421,-12007
" /> 
<polyline style="fill-rule:evenodd;"
points="12736,-15925
12736,-15610
12381,-15610
12381,-15925
12736,-15925
" /> 
<polyline style="fill-rule:evenodd;"
points="12736,-16673
12736,-16358
12381,-16358
12381,-16673
12736,-16673
" /> 
<polyline style="fill-rule:evenodd;"
points="11948,-16299
11948,-15984
11594,-15984
11594,-16299
11948,-16299
" /> 
<polyline style="fill-rule:evenodd;"
points="14271,-12381
14271,-12696
14625,-12696
14625,-12381
14271,-12381
" /> 
<polyline style="fill-rule:evenodd;"
points="14271,-11633
14271,-11948
14625,-11948
14625,-11633
14271,-11633
" /> 
<polyline style="fill-rule:evenodd;"
points="15059,-12007
15059,-12322
15413,-12322
15413,-12007
15059,-12007
" /> 
<polyline style="fill-rule:evenodd;"
points="14271,-16318
14271,-16633
14625,-16633
14625,-16318
14271,-16318
" /> 
<polyline style="fill-rule:evenodd;"
points="14271,-15570
14271,-15885
14625,-15885
14625,-15570
14271,-15570
" /> 
<polyline style="fill-rule:evenodd;"
points="15059,-15944
15059,-16259
15413,-16259
15413,-15944
15059,-15944
" /> 
<polyline style="fill-rule:evenodd;"
points="19468,-12303
19468,-12618
19822,-12618
19822,-12303
19468,-12303
" /> 
<polyline style="fill-rule:evenodd;"
points="19468,-11555
19468,-11870
19822,-11870
19822,-11555
19468,-11555
" /> 
<polyline style="fill-rule:evenodd;"
points="20255,-11929
20255,-12244
20610,-12244
20610,-11929
20255,-11929
" /> 
<polyline style="fill-rule:evenodd;"
points="19429,-16279
19429,-16594
19783,-16594
19783,-16279
19429,-16279
" /> 
<polyline style="fill-rule:evenodd;"
points="19429,-15531
19429,-15846
19783,-15846
19783,-15531
19429,-15531
" /> 
<polyline style="fill-rule:evenodd;"
points="20216,-15905
20216,-16220
20570,-16220
20570,-15905
20216,-15905
" /> 
<polyline style="fill-rule:evenodd;"
points="16673,-12421
16673,-12736
17027,-12736
17027,-12421
16673,-12421
" /> 
<polyline style="fill-rule:evenodd;"
points="16673,-11673
16673,-11988
17027,-11988
17027,-11673
16673,-11673
" /> 
<polyline style="fill-rule:evenodd;"
points="17460,-12047
17460,-12362
17814,-12362
17814,-12047
17460,-12047
" /> 
<polyline style="fill-rule:evenodd;"
points="17854,-15885
17854,-15570
17500,-15570
17500,-15885
17854,-15885
" /> 
<polyline style="fill-rule:evenodd;"
points="17854,-16633
17854,-16318
17500,-16318
17500,-16633
17854,-16633
" /> 
<polyline style="fill-rule:evenodd;"
points="17066,-16259
17066,-15944
16712,-15944
16712,-16259
17066,-16259
" /> 
<polyline style="fill-rule:evenodd;"
points="22263,-12342
22263,-12657
22618,-12657
22618,-12342
22263,-12342
" /> 
<polyline style="fill-rule:evenodd;"
points="22263,-11594
22263,-11909
22618,-11909
22618,-11594
22263,-11594
" /> 
<polyline style="fill-rule:evenodd;"
points="23051,-11968
23051,-12283
23405,-12283
23405,-11968
23051,-11968
" /> 
<polyline style="fill-rule:evenodd;"
points="23011,-15807
23011,-15492
22657,-15492
22657,-15807
23011,-15807
" /> 
<polyline style="fill-rule:evenodd;"
points="23011,-16555
23011,-16240
22657,-16240
22657,-16555
23011,-16555
" /> 
<polyline style="fill-rule:evenodd;"
points="22224,-16181
22224,-15866
21870,-15866
21870,-16181
22224,-16181
" /> 
</g>
<g style="fill:#000000; fill-opacity:1.0; 
stroke:#000000; stroke-width:629.921; stroke-opacity:1; 
stroke-linecap:round; stroke-linejoin:round;">
</g>
<g style="fill:#000000; fill-opacity:0.0; 
stroke:#000000; stroke-width:629.921; stroke-opacity:1; 
stroke-linecap:round; stroke-linejoin:round;">
<path d="M12431 -5974
L12431 -5698
" />
<path d="M11431 -5974
L11431 -5698
" />
<path d="M10431 -5974
L10431 -5698
" />
<path d="M9431 -5974
L9431 -5698
" />
<path d="M8431 -5974
L8431 -5698
" />
<path d="M7431 -5974
L7431 -5698
" />
<path d="M6431 -5974
L6431 -5698
" />
<path d="M5431 -5974
L5431 -5698
" />
<path d="M5431 -2974
L5431 -2698
" />
<path d="M6431 -2974
L6431 -2698
" />
<path d="M7431 -2974
L7431 -2698
" />
<path d="M8431 -2974
L8431 -2698
" />
<path d="M9431 -2974
L9431 -2698
" />
<path d="M10431 -2974
L10431 -2698
" />
<path d="M11431 -2974
L11431 -2698
" />
<path d="M12431 -2974
L12431 -2698
" />
</g>
<g style="fill:#000000; fill-opacity:0.0; 
stroke:#000000; stroke-width:0; stroke-opacity:1; 
stroke-linecap:round; stroke-linejoin:round;">
</g>
<g style="fill:#000000; fill-opacity:1.0; 
stroke:#000000; stroke-width:0; stroke-opacity:1; 
stroke-linecap:round; stroke-linejoin:round;">
<polyline style="fill-rule:evenodd;"
points="3307,-9694
2952,-9694
2952,-10167
3307,-10167
3307,-9694
" /> 
<polyline style="fill-rule:evenodd;"
points="3307,-10561
2952,-10561
2952,-11033
3307,-11033
3307,-10561
" /> 
<polyline style="fill-rule:evenodd;"
points="8681,-9724
8326,-9724
8326,-10196
8681,-10196
8681,-9724
" /> 
<polyline style="fill-rule:evenodd;"
points="8681,-10590
8326,-10590
8326,-11062
8681,-11062
8681,-10590
" /> 
<polyline style="fill-rule:evenodd;"
points="2303,-11338
1948,-11338
1948,-11811
2303,-11811
2303,-11338
" /> 
<polyline style="fill-rule:evenodd;"
points="2303,-12204
1948,-12204
1948,-12677
2303,-12677
2303,-12204
" /> 
<polyline style="fill-rule:evenodd;"
points="8366,-11456
8011,-11456
8011,-11929
8366,-11929
8366,-11456
" /> 
<polyline style="fill-rule:evenodd;"
points="8366,-12322
8011,-12322
8011,-12795
8366,-12795
8366,-12322
" /> 
<polyline style="fill-rule:evenodd;"
points="5334,-12716
5688,-12716
5688,-12244
5334,-12244
5334,-12716
" /> 
<polyline style="fill-rule:evenodd;"
points="5334,-11850
5688,-11850
5688,-11377
5334,-11377
5334,-11850
" /> 
<polyline style="fill-rule:evenodd;"
points="10659,-12785
11013,-12785
11013,-12312
10659,-12312
10659,-12785
" /> 
<polyline style="fill-rule:evenodd;"
points="10659,-11919
11013,-11919
11013,-11446
10659,-11446
10659,-11919
" /> 
<polyline style="fill-rule:evenodd;"
points="5570,-10984
5925,-10984
5925,-10511
5570,-10511
5570,-10984
" /> 
<polyline style="fill-rule:evenodd;"
points="5570,-10118
5925,-10118
5925,-9645
5570,-9645
5570,-10118
" /> 
<polyline style="fill-rule:evenodd;"
points="11161,-11082
11515,-11082
11515,-10610
11161,-10610
11161,-11082
" /> 
<polyline style="fill-rule:evenodd;"
points="11161,-10216
11515,-10216
11515,-9744
11161,-9744
11161,-10216
" /> 
<polyline style="fill-rule:evenodd;"
points="14035,-9685
13681,-9685
13681,-10157
14035,-10157
14035,-9685
" /> 
<polyline style="fill-rule:evenodd;"
points="14035,-10551
13681,-10551
13681,-11023
14035,-11023
14035,-10551
" /> 
<polyline style="fill-rule:evenodd;"
points="19153,-9330
18799,-9330
18799,-9803
19153,-9803
19153,-9330
" /> 
<polyline style="fill-rule:evenodd;"
points="19153,-10196
18799,-10196
18799,-10669
19153,-10669
19153,-10196
" /> 
<polyline style="fill-rule:evenodd;"
points="13484,-11456
13129,-11456
13129,-11929
13484,-11929
13484,-11456
" /> 
<polyline style="fill-rule:evenodd;"
points="13484,-12322
13129,-12322
13129,-12795
13484,-12795
13484,-12322
" /> 
<polyline style="fill-rule:evenodd;"
points="18523,-11456
18169,-11456
18169,-11929
18523,-11929
18523,-11456
" /> 
<polyline style="fill-rule:evenodd;"
points="18523,-12322
18169,-12322
18169,-12795
18523,-12795
18523,-12322
" /> 
<polyline style="fill-rule:evenodd;"
points="15748,-12736
16102,-12736
16102,-12263
15748,-12263
15748,-12736
" /> 
<polyline style="fill-rule:evenodd;"
points="15748,-11870
16102,-11870
16102,-11397
15748,-11397
15748,-11870
" /> 
<polyline style="fill-rule:evenodd;"
points="21003,-12716
21358,-12716
21358,-12244
21003,-12244
21003,-12716
" /> 
<polyline style="fill-rule:evenodd;"
points="21003,-11850
21358,-11850
21358,-11377
21003,-11377
21003,-11850
" /> 
<polyline style="fill-rule:evenodd;"
points="16200,-10944
16555,-10944
16555,-10472
16200,-10472
16200,-10944
" /> 
<polyline style="fill-rule:evenodd;"
points="16200,-10078
16555,-10078
16555,-9606
16200,-9606
16200,-10078
" /> 
<polyline style="fill-rule:evenodd;"
points="21555,-10669
21909,-10669
21909,-10196
21555,-10196
21555,-10669
" /> 
<polyline style="fill-rule:evenodd;"
points="21555,-9803
21909,-9803
21909,-9330
21555,-9330
21555,-9803
" /> 
<polyline style="fill-rule:evenodd;"
points="16870,-1712
16870,-2381
17539,-2381
17539,-1712
16870,-1712
" /> 
<polyline style="fill-rule:evenodd;"
points="20590,-5344
20590,-5836
21181,-5836
21181,-5344
20590,-5344
" /> 
<polyline style="fill-rule:evenodd;"
points="21574,-5344
21574,-5836
22165,-5836
22165,-5344
21574,-5344
" /> 
<polyline style="fill-rule:evenodd;"
points="19931,-1614
19438,-1614
19438,-2204
19931,-2204
19931,-1614
" /> 
<polyline style="fill-rule:evenodd;"
points="19931,-2598
19438,-2598
19438,-3188
19931,-3188
19931,-2598
" /> 
<polyline style="fill-rule:evenodd;"
points="20984,-2381
22480,-2381
22480,-1594
20984,-1594
20984,-2381
" /> 
<polyline style="fill-rule:evenodd;"
points="21437,-4862
22027,-4862
22027,-4074
21437,-4074
21437,-4862
" /> 
<polyline style="fill-rule:evenodd;"
points="20531,-4862
21122,-4862
21122,-4074
20531,-4074
20531,-4862
" /> 
<polyline style="fill-rule:evenodd;"
points="22342,-4862
22933,-4862
22933,-4074
22342,-4074
22342,-4862
" /> 
<polyline style="fill-rule:evenodd;"
points="23759,-9232
23759,-9901
24429,-9901
24429,-9232
23759,-9232
" /> 
<polyline style="fill-rule:evenodd;"
points="25137,-11003
25137,-11673
25807,-11673
25807,-11003
25137,-11003
" /> 
<circle cx="2125.98" cy="-10315" r="314.961" /> 
</g>
<g style="fill:#000000; fill-opacity:1.0; 
stroke:#000000; stroke-width:39.3701; stroke-opacity:1; 
stroke-linecap:round; stroke-linejoin:round;">
</g>
<g style="fill:#000000; fill-opacity:1.0; 
stroke:#000000; stroke-width:0; stroke-opacity:1; 
stroke-linecap:round; stroke-linejoin:round;">
<circle cx="7480.31" cy="-10629.9" r="314.961" /> 
</g>
<g style="fill:#000000; fill-opacity:1.0; 
stroke:#000000; stroke-width:39.3701; stroke-opacity:1; 
stroke-linecap:round; stroke-linejoin:round;">
</g>
<g style="fill:#000000; fill-opacity:1.0; 
stroke:#000000; stroke-width:0; stroke-opacity:1; 
stroke-linecap:round; stroke-linejoin:round;">
<circle cx="2125.98" cy="-14330.7" r="314.961" /> 
</g>
<g style="fill:#000000; fill-opacity:1.0; 
stroke:#000000; stroke-width:39.3701; stroke-opacity:1; 
stroke-linecap:round; stroke-linejoin:round;">
</g>
<g style="fill:#000000; fill-opacity:1.0; 
stroke:#000000; stroke-width:0; stroke-opacity:1; 
stroke-linecap:round; stroke-linejoin:round;">
<circle cx="9094.49" cy="-14094.5" r="314.961" /> 
</g>
<g style="fill:#000000; fill-opacity:1.0; 
stroke:#000000; stroke-width:39.3701; stroke-opacity:1; 
stroke-linecap:round; stroke-linejoin:round;">
</g>
<g style="fill:#000000; fill-opacity:1.0; 
stroke:#000000; stroke-width:0; stroke-opacity:1; 
stroke-linecap:round; stroke-linejoin:round;">
<circle cx="7874.02" cy="-14015.7" r="314.961" /> 
</g>
<g style="fill:#000000; fill-opacity:1.0; 
stroke:#000000; stroke-width:39.3701; stroke-opacity:1; 
stroke-linecap:round; stroke-linejoin:round;">
</g>
<g style="fill:#000000; fill-opacity:1.0; 
stroke:#000000; stroke-width:0; stroke-opacity:1; 
stroke-linecap:round; stroke-linejoin:round;">
<circle cx="12913.4" cy="-14015.7" r="314.961" /> 
</g>
<g style="fill:#000000; fill-opacity:1.0; 
stroke:#000000; stroke-width:39.3701; stroke-opacity:1; 
stroke-linecap:round; stroke-linejoin:round;">
</g>
<g style="fill:#000000; fill-opacity:1.0; 
stroke:#000000; stroke-width:0; stroke-opacity:1; 
stroke-linecap:round; stroke-linejoin:round;">
<circle cx="4645.67" cy="-10472.4" r="314.961" /> 
</g>
<g style="fill:#000000; fill-opacity:1.0; 
stroke:#000000; stroke-width:39.3701; stroke-opacity:1; 
stroke-linecap:round; stroke-linejoin:round;">
</g>
<g style="fill:#000000; fill-opacity:1.0; 
stroke:#000000; stroke-width:0; stroke-opacity:1; 
stroke-linecap:round; stroke-linejoin:round;">
<circle cx="9842.52" cy="-10629.9" r="314.961" /> 
</g>
<g style="fill:#000000; fill-opacity:1.0; 
stroke:#000000; stroke-width:39.3701; stroke-opacity:1; 
stroke-linecap:round; stroke-linejoin:round;">
</g>
<g style="fill:#000000; fill-opacity:1.0; 
stroke:#000000; stroke-width:0; stroke-opacity:1; 
stroke-linecap:round; stroke-linejoin:round;">
<circle cx="12559.1" cy="-10039.4" r="314.961" /> 
</g>
<g style="fill:#000000; fill-opacity:1.0; 
stroke:#000000; stroke-width:39.3701; stroke-opacity:1; 
stroke-linecap:round; stroke-linejoin:round;">
</g>
<g style="fill:#000000; fill-opacity:1.0; 
stroke:#000000; stroke-width:0; stroke-opacity:1; 
stroke-linecap:round; stroke-linejoin:round;">
<circle cx="17322.8" cy="-9724.41" r="314.961" /> 
</g>
<g style="fill:#000000; fill-opacity:1.0; 
stroke:#000000; stroke-width:39.3701; stroke-opacity:1; 
stroke-linecap:round; stroke-linejoin:round;">
</g>
<g style="fill:#000000; fill-opacity:1.0; 
stroke:#000000; stroke-width:0; stroke-opacity:1; 
stroke-linecap:round; stroke-linejoin:round;">
<circle cx="14173.2" cy="-14055.1" r="314.961" /> 
</g>
<g style="fill:#000000; fill-opacity:1.0; 
stroke:#000000; stroke-width:39.3701; stroke-opacity:1; 
stroke-linecap:round; stroke-linejoin:round;">
</g>
<g style="fill:#000000; fill-opacity:1.0; 
stroke:#000000; stroke-width:0; stroke-opacity:1; 
stroke-linecap:round; stroke-linejoin:round;">
<circle cx="19173.2" cy="-14094.5" r="314.961" /> 
</g>
<g style="fill:#000000; fill-opacity:1.0; 
stroke:#000000; stroke-width:39.3701; stroke-opacity:1; 
stroke-linecap:round; stroke-linejoin:round;">
</g>
<g style="fill:#000000; fill-opacity:1.0; 
stroke:#000000; stroke-width:0; stroke-opacity:1; 
stroke-linecap:round; stroke-linejoin:round;">
<circle cx="18228.3" cy="-14055.1" r="314.961" /> 
</g>
<g style="fill:#000000; fill-opacity:1.0; 
stroke:#000000; stroke-width:39.3701; stroke-opacity:1; 
stroke-linecap:round; stroke-linejoin:round;">
</g>
<g style="fill:#000000; fill-opacity:1.0; 
stroke:#000000; stroke-width:0; stroke-opacity:1; 
stroke-linecap:round; stroke-linejoin:round;">
<circle cx="23346.5" cy="-14094.5" r="314.961" /> 
</g>
<g style="fill:#000000; fill-opacity:1.0; 
stroke:#000000; stroke-width:39.3701; stroke-opacity:1; 
stroke-linecap:round; stroke-linejoin:round;">
</g>
<g style="fill:#000000; fill-opacity:1.0; 
stroke:#000000; stroke-width:0; stroke-opacity:1; 
stroke-linecap:round; stroke-linejoin:round;">
<circle cx="15039.4" cy="-9921.26" r="314.961" /> 
</g>
<g style="fill:#000000; fill-opacity:1.0; 
stroke:#000000; stroke-width:39.3701; stroke-opacity:1; 
stroke-linecap:round; stroke-linejoin:round;">
</g>
<g style="fill:#000000; fill-opacity:1.0; 
stroke:#000000; stroke-width:0; stroke-opacity:1; 
stroke-linecap:round; stroke-linejoin:round;">
<circle cx="19291.3" cy="-7637.8" r="314.961" /> 
</g>
<g style="fill:#000000; fill-opacity:1.0; 
stroke:#000000; stroke-width:39.3701; stroke-opacity:1; 
stroke-linecap:round; stroke-linejoin:round;">
</g>
<g style="fill:#000000; fill-opacity:1.0; 
stroke:#000000; stroke-width:98.4252; stroke-opacity:1; 
stroke-linecap:round; stroke-linejoin:round;">
</g>
<g style="fill:#000000; fill-opacity:0.0; 
stroke:#000000; stroke-width:98.4252; stroke-opacity:1; 
stroke-linecap:round; stroke-linejoin:round;">
<path d="M22834 -16437
L23464 -17283
" />
<path d="M19606 -15688
L19507 -15688
" />
</g>
<g style="fill:#000000; fill-opacity:0.0; 
stroke:#000000; stroke-width:393.701; stroke-opacity:1; 
stroke-linecap:round; stroke-linejoin:round;">
<path d="M23425 -17165
L23543 -17283
" />
</g>
<g style="fill:#000000; fill-opacity:0.0; 
stroke:#000000; stroke-width:98.4252; stroke-opacity:1; 
stroke-linecap:round; stroke-linejoin:round;">
<path d="M19507 -15688
L19015 -16181
" />
<path d="M19015 -16181
L19015 -17165
" />
</g>
<g style="fill:#000000; fill-opacity:0.0; 
stroke:#000000; stroke-width:393.701; stroke-opacity:1; 
stroke-linecap:round; stroke-linejoin:round;">
<path d="M19015 -17165
L23425 -17165
" />
<path d="M13858 -17204
L18267 -17204
" />
</g>
<g style="fill:#000000; fill-opacity:0.0; 
stroke:#000000; stroke-width:98.4252; stroke-opacity:1; 
stroke-linecap:round; stroke-linejoin:round;">
<path d="M13858 -16220
L13858 -17204
" />
<path d="M14350 -15728
L13858 -16220
" />
</g>
<g style="fill:#000000; fill-opacity:0.0; 
stroke:#000000; stroke-width:393.701; stroke-opacity:1; 
stroke-linecap:round; stroke-linejoin:round;">
<path d="M18267 -17204
L18385 -17322
" />
</g>
<g style="fill:#000000; fill-opacity:0.0; 
stroke:#000000; stroke-width:98.4252; stroke-opacity:1; 
stroke-linecap:round; stroke-linejoin:round;">
<path d="M14448 -15728
L14350 -15728
" />
<path d="M17677 -16476
L18307 -17322
" />
<path d="M12559 -16476
L13188 -17322
" />
<path d="M4173 -15728
L4074 -15728
" />
<path d="M9330 -16476
L9330 -16377
" />
</g>
<g style="fill:#000000; fill-opacity:0.0; 
stroke:#000000; stroke-width:157.48; stroke-opacity:1; 
stroke-linecap:round; stroke-linejoin:round;">
<path d="M4960 -16102
L5039 -16102
" />
<path d="M5039 -16102
L5374 -15767
" />
<path d="M5374 -15767
L5374 -13976
" />
<path d="M4645 -12125
L4645 -13248
" />
<path d="M4645 -13248
L5374 -13976
" />
</g>
<g style="fill:#000000; fill-opacity:0.0; 
stroke:#000000; stroke-width:98.4252; stroke-opacity:1; 
stroke-linecap:round; stroke-linejoin:round;">
<path d="M5039 -13641
L5374 -13976
" />
</g>
<g style="fill:#000000; fill-opacity:0.0; 
stroke:#000000; stroke-width:157.48; stroke-opacity:1; 
stroke-linecap:round; stroke-linejoin:round;">
<path d="M6374 -13976
L6374 -15862
" />
<path d="M6374 -15862
L6614 -16102
" />
<path d="M7362 -12165
L7362 -12988
" />
<path d="M7362 -12988
L6374 -13976
" />
</g>
<g style="fill:#000000; fill-opacity:0.0; 
stroke:#000000; stroke-width:98.4252; stroke-opacity:1; 
stroke-linecap:round; stroke-linejoin:round;">
<path d="M6574 -14177
L6374 -13976
" />
<path d="M6614 -13736
L6374 -13976
" />
<path d="M7322 -12125
L7322 -13027
" />
<path d="M7322 -13027
L6374 -13976
" />
</g>
<g style="fill:#000000; fill-opacity:0.0; 
stroke:#000000; stroke-width:196.85; stroke-opacity:1; 
stroke-linecap:round; stroke-linejoin:round;">
<path d="M10551 -13976
L10551 -14763
" />
<path d="M10551 -14763
L9645 -15669
" />
<path d="M10118 -12204
L10118 -13543
" />
<path d="M10118 -13543
L10551 -13976
" />
</g>
<g style="fill:#000000; fill-opacity:0.0; 
stroke:#000000; stroke-width:98.4252; stroke-opacity:1; 
stroke-linecap:round; stroke-linejoin:round;">
<path d="M10196 -13641
L10531 -13976
" />
<path d="M10354 -14153
L10531 -13976
" />
</g>
<g style="fill:#000000; fill-opacity:0.0; 
stroke:#000000; stroke-width:196.85; stroke-opacity:1; 
stroke-linecap:round; stroke-linejoin:round;">
<path d="M11551 -13976
L11551 -15921
" />
<path d="M11551 -15921
L11771 -16141
" />
<path d="M12598 -12165
L12598 -12929
" />
<path d="M12598 -12929
L11551 -13976
" />
</g>
<g style="fill:#000000; fill-opacity:0.0; 
stroke:#000000; stroke-width:98.4252; stroke-opacity:1; 
stroke-linecap:round; stroke-linejoin:round;">
<path d="M11771 -13736
L11531 -13976
" />
<path d="M11732 -14177
L11531 -13976
" />
</g>
<g style="fill:#000000; fill-opacity:0.0; 
stroke:#000000; stroke-width:157.48; stroke-opacity:1; 
stroke-linecap:round; stroke-linejoin:round;">
<path d="M15669 -13976
L15669 -15669
" />
<path d="M15669 -15669
L15236 -16102
" />
</g>
<g style="fill:#000000; fill-opacity:0.0; 
stroke:#000000; stroke-width:98.4252; stroke-opacity:1; 
stroke-linecap:round; stroke-linejoin:round;">
<path d="M15472 -14153
L15649 -13976
" />
<path d="M16023 -13602
L15649 -13976
" />
</g>
<g style="fill:#000000; fill-opacity:0.0; 
stroke:#000000; stroke-width:196.85; stroke-opacity:1; 
stroke-linecap:round; stroke-linejoin:round;">
<path d="M15314 -12165
L15314 -13641
" />
<path d="M15314 -13641
L15649 -13976
" />
</g>
<g style="fill:#000000; fill-opacity:0.0; 
stroke:#000000; stroke-width:157.48; stroke-opacity:1; 
stroke-linecap:round; stroke-linejoin:round;">
<path d="M16669 -13976
L16669 -15881
" />
<path d="M16669 -15881
L16889 -16102
" />
</g>
<g style="fill:#000000; fill-opacity:0.0; 
stroke:#000000; stroke-width:98.4252; stroke-opacity:1; 
stroke-linecap:round; stroke-linejoin:round;">
<path d="M16850 -14177
L16649 -13976
" />
<path d="M16889 -13736
L16649 -13976
" />
</g>
<g style="fill:#000000; fill-opacity:0.0; 
stroke:#000000; stroke-width:157.48; stroke-opacity:1; 
stroke-linecap:round; stroke-linejoin:round;">
<path d="M17598 -12125
L17598 -13027
" />
<path d="M17598 -13027
L16649 -13976
" />
<path d="M20826 -13976
L20826 -15629
" />
<path d="M20826 -15629
L20393 -16062
" />
</g>
<g style="fill:#000000; fill-opacity:0.0; 
stroke:#000000; stroke-width:98.4252; stroke-opacity:1; 
stroke-linecap:round; stroke-linejoin:round;">
<path d="M20472 -13602
L20807 -13937
" />
</g>
<g style="fill:#000000; fill-opacity:0.0; 
stroke:#000000; stroke-width:157.48; stroke-opacity:1; 
stroke-linecap:round; stroke-linejoin:round;">
<path d="M20472 -12125
L20472 -13602
" />
</g>
<g style="fill:#000000; fill-opacity:0.0; 
stroke:#000000; stroke-width:98.4252; stroke-opacity:1; 
stroke-linecap:round; stroke-linejoin:round;">
<path d="M21181 -13562
L20807 -13937
" />
<path d="M20629 -14114
L20807 -13937
" />
</g>
<g style="fill:#000000; fill-opacity:0.0; 
stroke:#000000; stroke-width:157.48; stroke-opacity:1; 
stroke-linecap:round; stroke-linejoin:round;">
<path d="M21826 -13976
L21826 -15803
" />
<path d="M21826 -15803
L22047 -16023
" />
<path d="M23228 -12125
L23228 -12574
" />
<path d="M23228 -12574
L21826 -13976
" />
</g>
<g style="fill:#000000; fill-opacity:0.0; 
stroke:#000000; stroke-width:98.4252; stroke-opacity:1; 
stroke-linecap:round; stroke-linejoin:round;">
<path d="M22047 -13696
L21807 -13937
" />
<path d="M22007 -14137
L21807 -13937
" />
</g>
<g style="fill:#000000; fill-opacity:0.0; 
stroke:#000000; stroke-width:157.48; stroke-opacity:1; 
stroke-linecap:round; stroke-linejoin:round;">
<path d="M2125 -10314
L2125 -11574
" />
</g>
<g style="fill:#000000; fill-opacity:0.0; 
stroke:#000000; stroke-width:98.4252; stroke-opacity:1; 
stroke-linecap:round; stroke-linejoin:round;">
<path d="M2155 -11545
L2194 -11545
" />
</g>
<g style="fill:#000000; fill-opacity:0.0; 
stroke:#000000; stroke-width:157.48; stroke-opacity:1; 
stroke-linecap:round; stroke-linejoin:round;">
<path d="M7913 -11692
L7480 -11259
" />
<path d="M7480 -11259
L7480 -10629
" />
<path d="M7913 -11692
L8188 -11692
" />
<path d="M3129 -10797
L3129 -12381
" />
<path d="M3129 -12381
L3188 -12440
" />
<path d="M2125 -12440
L3188 -12440
" />
<path d="M3188 -12440
L3799 -12440
" />
<path d="M3799 -12440
L3858 -12500
" />
</g>
<g style="fill:#000000; fill-opacity:0.0; 
stroke:#000000; stroke-width:98.4252; stroke-opacity:1; 
stroke-linecap:round; stroke-linejoin:round;">
<path d="M2273 -12529
L2214 -12470
" />
</g>
<g style="fill:#000000; fill-opacity:0.0; 
stroke:#000000; stroke-width:157.48; stroke-opacity:1; 
stroke-linecap:round; stroke-linejoin:round;">
<path d="M16377 -9842
L16417 -9842
" />
<path d="M16417 -9842
L16811 -10236
" />
</g>
<g style="fill:#000000; fill-opacity:0.0; 
stroke:#000000; stroke-width:393.701; stroke-opacity:1; 
stroke-linecap:round; stroke-linejoin:round;">
<path d="M25078 -9566
L21732 -9566
" />
</g>
<g style="fill:#000000; fill-opacity:0.0; 
stroke:#000000; stroke-width:157.48; stroke-opacity:1; 
stroke-linecap:round; stroke-linejoin:round;">
<path d="M20767 -6437
L20767 -8602
" />
</g>
<g style="fill:#000000; fill-opacity:0.0; 
stroke:#000000; stroke-width:118.11; stroke-opacity:1; 
stroke-linecap:round; stroke-linejoin:round;">
<path d="M20767 -8602
L21732 -9566
" />
</g>
<g style="fill:#000000; fill-opacity:0.0; 
stroke:#000000; stroke-width:157.48; stroke-opacity:1; 
stroke-linecap:round; stroke-linejoin:round;">
<path d="M20767 -5629
L20767 -6437
" />
<path d="M20826 -4468
L20826 -5570
" />
<path d="M20826 -5570
L20767 -5629
" />
<path d="M2125 -14330
L2125 -15000
" />
<path d="M3602 -16476
L4173 -16476
" />
<path d="M2125 -15000
L3602 -16476
" />
</g>
<g style="fill:#000000; fill-opacity:0.0; 
stroke:#000000; stroke-width:98.4252; stroke-opacity:1; 
stroke-linecap:round; stroke-linejoin:round;">
<path d="M4173 -16476
L4173 -16377
" />
</g>
<g style="fill:#000000; fill-opacity:0.0; 
stroke:#000000; stroke-width:157.48; stroke-opacity:1; 
stroke-linecap:round; stroke-linejoin:round;">
<path d="M8740 -12598
L8740 -11062
" />
<path d="M8740 -11062
L8503 -10826
" />
<path d="M8188 -12598
L8740 -12598
" />
<path d="M8740 -12598
L9311 -12598
" />
</g>
<g style="fill:#000000; fill-opacity:0.0; 
stroke:#000000; stroke-width:98.4252; stroke-opacity:1; 
stroke-linecap:round; stroke-linejoin:round;">
<path d="M9311 -12598
L9330 -12578
" />
</g>
<g style="fill:#000000; fill-opacity:0.0; 
stroke:#000000; stroke-width:118.11; stroke-opacity:1; 
stroke-linecap:round; stroke-linejoin:round;">
<path d="M9094 -14094
L9094 -15944
" />
<path d="M9094 -15944
L9212 -16062
" />
<path d="M10019 -16456
L9960 -16456
" />
<path d="M9960 -16456
L9566 -16062
" />
<path d="M9566 -16062
L9212 -16062
" />
</g>
<g style="fill:#000000; fill-opacity:0.0; 
stroke:#000000; stroke-width:157.48; stroke-opacity:1; 
stroke-linecap:round; stroke-linejoin:round;">
<path d="M5748 -10748
L5748 -10826
" />
<path d="M5748 -10826
L6023 -11102
" />
<path d="M6023 -11102
L6023 -12480
" />
<path d="M5511 -12480
L6023 -12480
" />
<path d="M6023 -12480
L6515 -12480
" />
<path d="M6515 -12480
L6574 -12539
" />
</g>
<g style="fill:#000000; fill-opacity:0.0; 
stroke:#000000; stroke-width:98.4252; stroke-opacity:1; 
stroke-linecap:round; stroke-linejoin:round;">
<path d="M5748 -10748
L5748 -10787
" />
<path d="M5570 -12539
L5511 -12480
" />
</g>
<g style="fill:#000000; fill-opacity:0.0; 
stroke:#000000; stroke-width:157.48; stroke-opacity:1; 
stroke-linecap:round; stroke-linejoin:round;">
<path d="M7874 -14015
L7874 -15255
" />
<path d="M7874 -15255
L7401 -15728
" />
<path d="M11338 -10846
L11338 -12539
" />
<path d="M11338 -12539
L11328 -12539
" />
<path d="M11811 -12539
L11328 -12539
" />
<path d="M11328 -12539
L10885 -12539
" />
</g>
<g style="fill:#000000; fill-opacity:0.0; 
stroke:#000000; stroke-width:98.4252; stroke-opacity:1; 
stroke-linecap:round; stroke-linejoin:round;">
<path d="M10885 -12539
L10866 -12559
" />
</g>
<g style="fill:#000000; fill-opacity:0.0; 
stroke:#000000; stroke-width:157.48; stroke-opacity:1; 
stroke-linecap:round; stroke-linejoin:round;">
<path d="M12913 -14015
L12913 -15413
" />
<path d="M12913 -15413
L12559 -15767
" />
<path d="M4645 -10472
L4645 -11141
" />
<path d="M5118 -11614
L5511 -11614
" />
<path d="M4645 -11141
L5118 -11614
" />
</g>
<g style="fill:#000000; fill-opacity:0.0; 
stroke:#000000; stroke-width:98.4252; stroke-opacity:1; 
stroke-linecap:round; stroke-linejoin:round;">
<path d="M5511 -11614
L5354 -11614
" />
</g>
<g style="fill:#000000; fill-opacity:0.0; 
stroke:#000000; stroke-width:157.48; stroke-opacity:1; 
stroke-linecap:round; stroke-linejoin:round;">
<path d="M9842 -10629
L9842 -10688
" />
<path d="M9842 -10688
L10836 -11683
" />
<path d="M12559 -10039
L12559 -10944
" />
<path d="M12559 -10944
L13307 -11692
" />
<path d="M17322 -9724
L17322 -10669
" />
<path d="M17322 -10669
L18346 -11692
" />
</g>
<g style="fill:#000000; fill-opacity:0.0; 
stroke:#000000; stroke-width:98.4252; stroke-opacity:1; 
stroke-linecap:round; stroke-linejoin:round;">
<path d="M18346 -11692
L18346 -11653
" />
</g>
<g style="fill:#000000; fill-opacity:0.0; 
stroke:#000000; stroke-width:157.48; stroke-opacity:1; 
stroke-linecap:round; stroke-linejoin:round;">
<path d="M13858 -10787
L13858 -12559
" />
<path d="M13858 -12559
L13858 -12480
" />
<path d="M13858 -12480
L13858 -12559
" />
<path d="M13307 -12559
L13858 -12559
" />
<path d="M13858 -12559
L14429 -12559
" />
<path d="M14429 -12559
L14448 -12539
" />
</g>
<g style="fill:#000000; fill-opacity:0.0; 
stroke:#000000; stroke-width:98.4252; stroke-opacity:1; 
stroke-linecap:round; stroke-linejoin:round;">
<path d="M14429 -12559
L14448 -12539
" />
</g>
<g style="fill:#000000; fill-opacity:0.0; 
stroke:#000000; stroke-width:118.11; stroke-opacity:1; 
stroke-linecap:round; stroke-linejoin:round;">
<path d="M14842 -15157
L14173 -14055
" />
<path d="M14842 -16023
L14842 -15157
" />
<path d="M14842 -16023
L14448 -16377
" />
</g>
<g style="fill:#000000; fill-opacity:0.0; 
stroke:#000000; stroke-width:98.4252; stroke-opacity:1; 
stroke-linecap:round; stroke-linejoin:round;">
<path d="M14448 -16476
L14448 -16377
" />
</g>
<g style="fill:#000000; fill-opacity:0.0; 
stroke:#000000; stroke-width:157.48; stroke-opacity:1; 
stroke-linecap:round; stroke-linejoin:round;">
<path d="M19055 -12440
L19055 -10511
" />
</g>
<g style="fill:#000000; fill-opacity:0.0; 
stroke:#000000; stroke-width:98.4252; stroke-opacity:1; 
stroke-linecap:round; stroke-linejoin:round;">
<path d="M19055 -10511
L18976 -10433
" />
<path d="M19055 -12440
L19055 -12460
" />
</g>
<g style="fill:#000000; fill-opacity:0.0; 
stroke:#000000; stroke-width:157.48; stroke-opacity:1; 
stroke-linecap:round; stroke-linejoin:round;">
<path d="M19645 -12460
L19055 -12460
" />
<path d="M19055 -12460
L18444 -12460
" />
</g>
<g style="fill:#000000; fill-opacity:0.0; 
stroke:#000000; stroke-width:98.4252; stroke-opacity:1; 
stroke-linecap:round; stroke-linejoin:round;">
<path d="M18444 -12460
L18346 -12559
" />
<path d="M18366 -12460
L18267 -12559
" />
<path d="M18366 -12618
L18346 -12637
" />
</g>
<g style="fill:#000000; fill-opacity:0.0; 
stroke:#000000; stroke-width:118.11; stroke-opacity:1; 
stroke-linecap:round; stroke-linejoin:round;">
<path d="M20000 -15984
L19606 -16338
" />
<path d="M20000 -15118
L19173 -14094
" />
<path d="M20000 -15984
L20000 -15118
" />
</g>
<g style="fill:#000000; fill-opacity:0.0; 
stroke:#000000; stroke-width:98.4252; stroke-opacity:1; 
stroke-linecap:round; stroke-linejoin:round;">
<path d="M19606 -16437
L19606 -16338
" />
</g>
<g style="fill:#000000; fill-opacity:0.0; 
stroke:#000000; stroke-width:157.48; stroke-opacity:1; 
stroke-linecap:round; stroke-linejoin:round;">
<path d="M16377 -10708
L16377 -12559
" />
<path d="M16377 -12559
L16377 -12519
" />
<path d="M16377 -12519
L16377 -12559
" />
</g>
<g style="fill:#000000; fill-opacity:0.0; 
stroke:#000000; stroke-width:98.4252; stroke-opacity:1; 
stroke-linecap:round; stroke-linejoin:round;">
<path d="M16830 -12559
L16850 -12578
" />
</g>
<g style="fill:#000000; fill-opacity:0.0; 
stroke:#000000; stroke-width:157.48; stroke-opacity:1; 
stroke-linecap:round; stroke-linejoin:round;">
<path d="M16062 -12559
L16309 -12559
" />
</g>
<g style="fill:#000000; fill-opacity:0.0; 
stroke:#000000; stroke-width:98.4252; stroke-opacity:1; 
stroke-linecap:round; stroke-linejoin:round;">
<path d="M16309 -12559
L16377 -12559
" />
</g>
<g style="fill:#000000; fill-opacity:0.0; 
stroke:#000000; stroke-width:157.48; stroke-opacity:1; 
stroke-linecap:round; stroke-linejoin:round;">
<path d="M16377 -12559
L16830 -12559
" />
<path d="M18228 -14055
L18228 -15177
" />
<path d="M18228 -15177
L17677 -15728
" />
<path d="M21181 -12480
L21692 -12480
" />
<path d="M21732 -12440
L21732 -10433
" />
</g>
<g style="fill:#000000; fill-opacity:0.0; 
stroke:#000000; stroke-width:98.4252; stroke-opacity:1; 
stroke-linecap:round; stroke-linejoin:round;">
<path d="M21692 -12480
L21732 -12440
" />
</g>
<g style="fill:#000000; fill-opacity:0.0; 
stroke:#000000; stroke-width:157.48; stroke-opacity:1; 
stroke-linecap:round; stroke-linejoin:round;">
<path d="M22440 -12500
L21200 -12500
" />
</g>
<g style="fill:#000000; fill-opacity:0.0; 
stroke:#000000; stroke-width:98.4252; stroke-opacity:1; 
stroke-linecap:round; stroke-linejoin:round;">
<path d="M21200 -12500
L21181 -12480
" />
</g>
<g style="fill:#000000; fill-opacity:0.0; 
stroke:#000000; stroke-width:157.48; stroke-opacity:1; 
stroke-linecap:round; stroke-linejoin:round;">
<path d="M23346 -14094
L23346 -15137
" />
<path d="M23346 -15137
L22834 -15649
" />
<path d="M15039 -9921
L15039 -10748
" />
<path d="M15039 -10748
L15925 -11633
" />
<path d="M19291 -7637
L19291 -7677
" />
<path d="M20275 -8661
L20275 -9448
" />
<path d="M19291 -7677
L20275 -8661
" />
<path d="M20275 -10708
L21181 -11614
" />
<path d="M20275 -9448
L20275 -10708
" />
</g>
<g style="fill:#000000; fill-opacity:0.0; 
stroke:#000000; stroke-width:98.4252; stroke-opacity:1; 
stroke-linecap:round; stroke-linejoin:round;">
<path d="M21181 -11614
L21181 -11574
" />
</g>
<g style="fill:#000000; fill-opacity:0.0; 
stroke:#000000; stroke-width:157.48; stroke-opacity:1; 
stroke-linecap:round; stroke-linejoin:round;">
<path d="M19685 -1909
L17342 -1909
" />
<path d="M17342 -1909
L17204 -2047
" />
<path d="M6431 -2836
L6431 -2151
" />
<path d="M16496 -1338
L17204 -2047
" />
<path d="M7244 -1338
L16496 -1338
" />
<path d="M6431 -2151
L7244 -1338
" />
<path d="M21732 -4468
L21732 -1988
" />
<path d="M21732 -1988
L19763 -1988
" />
<path d="M19763 -1988
L19685 -1909
" />
</g>
<g style="fill:#000000; fill-opacity:0.0; 
stroke:#000000; stroke-width:98.4252; stroke-opacity:1; 
stroke-linecap:round; stroke-linejoin:round;">
<path d="M21732 -1988
L21732 -1594
" />
</g>
<g style="fill:#000000; fill-opacity:1.0; 
stroke:#000000; stroke-width:157.48; stroke-opacity:1; 
stroke-linecap:round; stroke-linejoin:round;">
<polyline style="fill-rule:evenodd;"
points="20860,-12104
20925,-12059
20984,-12047
20930,-12037
20863,-11994
20819,-11928
20803,-11850
20803,-11626
20080,-10903
20020,-10814
20017,-10794
20000,-10708
20000,-8775
19373,-8149
19189,-8149
19001,-8071
18857,-7928
18779,-7740
18779,-7536
18857,-7348
19001,-7204
19189,-7126
19392,-7125
19580,-7203
19724,-7347
19803,-7535
19803,-7739
19785,-7781
20470,-8466
20530,-8555
20551,-8661
20551,-9475
21276,-9475
21276,-9275
21318,-9172
21397,-9094
21499,-9051
21641,-9051
21711,-9121
21711,-9545
21753,-9545
21753,-9121
21823,-9051
21964,-9051
22067,-9094
22145,-9172
22188,-9275
22188,-9475
22118,-9545
21753,-9545
21711,-9545
21346,-9545
21276,-9475
20551,-9475
20551,-10594
21133,-11177
21358,-11177
21431,-11190
21456,-11207
21456,-10839
21415,-10813
21370,-10747
21354,-10669
21354,-10196
21368,-10123
21411,-10056
21421,-10049
21397,-10039
21318,-9961
21276,-9858
21276,-9657
21346,-9588
21711,-9588
21711,-9596
21753,-9596
21753,-9588
22118,-9588
22188,-9657
22188,-9858
22145,-9961
22067,-10039
22043,-10049
22049,-10052
22094,-10118
22110,-10196
22110,-10669
22096,-10742
22053,-10809
22007,-10840
22007,-11483
22027,-11436
22105,-11358
22208,-11315
22350,-11315
22419,-11385
22419,-11730
22462,-11730
22462,-11385
22531,-11315
22673,-11315
22776,-11358
22854,-11436
22896,-11539
22896,-11661
22827,-11730
22462,-11730
22419,-11730
22411,-11730
22411,-11773
22419,-11773
22419,-11781
22462,-11781
22462,-11773
22827,-11773
22896,-11842
22896,-11844
22907,-11828
22973,-11783
23051,-11767
23146,-11767
23110,-7046
2717,-6811
2736,-9516
2794,-9458
2897,-9416
3038,-9416
3108,-9485
3108,-9909
3151,-9909
3151,-9485
3220,-9416
3362,-9416
3464,-9458
3543,-9536
3585,-9639
3585,-9790
5292,-9790
5292,-9590
5334,-9487
5412,-9409
5515,-9366
5657,-9366
5726,-9436
5726,-9860
5769,-9860
5769,-9436
5838,-9366
5980,-9366
6083,-9409
6161,-9487
6203,-9590
6203,-9790
6134,-9860
5769,-9860
5726,-9860
5361,-9860
5292,-9790
3585,-9790
3585,-9840
3556,-9869
8048,-9869
8048,-9668
8090,-9566
8168,-9488
8271,-9445
8412,-9445
8482,-9515
8482,-9939
8525,-9939
8525,-9515
8594,-9445
8736,-9445
8838,-9488
8917,-9566
8959,-9668
8959,-9869
8940,-9889
10882,-9889
10882,-9688
10925,-9586
11003,-9507
11105,-9465
11247,-9465
11317,-9535
11317,-9959
11359,-9959
11359,-9535
11429,-9465
11571,-9465
11673,-9507
11752,-9586
11794,-9688
11794,-9889
11724,-9959
11359,-9959
11317,-9959
10952,-9959
10882,-9889
8940,-9889
8890,-9939
8525,-9939
8482,-9939
8117,-9939
8048,-9869
3556,-9869
3516,-9909
3151,-9909
3108,-9909
3100,-9909
3100,-9952
3108,-9952
3108,-9960
3151,-9960
3151,-9952
3516,-9952
3585,-10022
3585,-10222
3543,-10325
3464,-10403
3441,-10413
3447,-10417
3491,-10482
3507,-10561
3507,-11033
3494,-11106
3450,-11173
3405,-11204
3405,-11531
3444,-11436
3523,-11358
3625,-11315
3767,-11315
3837,-11385
3837,-11730
3879,-11730
3879,-11385
3949,-11315
4090,-11315
4193,-11358
4271,-11436
4314,-11539
4314,-11661
4244,-11730
3879,-11730
3837,-11730
3829,-11730
3829,-11773
3837,-11773
3837,-11781
3879,-11781
3879,-11773
4244,-11773
4314,-11842
4314,-11844
4324,-11828
4390,-11783
4468,-11767
4822,-11767
4895,-11781
4450,-11336
4391,-11247
4370,-11145
4370,-11141
4370,-10912
4356,-10906
4212,-10762
4133,-10574
4133,-10371
4211,-10182
4355,-10038
4543,-9960
4747,-9960
4935,-10038
5079,-10182
5157,-10370
5157,-10573
5079,-10761
4935,-10906
4921,-10912
4921,-11027
5167,-11273
5190,-11238
5256,-11193
5334,-11177
5529,-11177
5497,-11171
5430,-11128
5385,-11062
5370,-10984
5370,-10511
5383,-10438
5426,-10371
5437,-10364
5412,-10354
5334,-10276
5292,-10173
5292,-9972
5361,-9903
5726,-9903
5726,-9911
5769,-9911
5769,-9903
6134,-9903
6203,-9972
6203,-10173
6161,-10276
6083,-10354
6059,-10364
6065,-10367
6110,-10433
6125,-10511
6125,-10814
6218,-10907
6218,-10907
6278,-10996
6299,-11102
6299,-11372
6342,-11355
6483,-11355
6553,-11424
6553,-11770
6596,-11770
6596,-11424
6665,-11355
6807,-11355
6909,-11397
6988,-11475
7030,-11578
7030,-11700
6961,-11770
6596,-11770
6553,-11770
6545,-11770
6545,-11812
6553,-11812
6553,-11820
6596,-11820
6596,-11812
6961,-11812
7030,-11882
7030,-11884
7041,-11867
7106,-11822
7185,-11807
7539,-11807
7612,-11820
7679,-11864
7724,-11929
7740,-12007
7740,-12066
7867,-12067
7826,-12007
7815,-11948
7807,-11947
7718,-11887
7285,-11454
7225,-11365
7206,-11269
7204,-11259
7204,-11069
7190,-11064
7046,-10920
6968,-10732
6968,-10528
7046,-10340
7190,-10196
7378,-10118
7581,-10118
7769,-10195
7913,-10339
7992,-10527
7992,-10731
7914,-10919
7770,-11063
7755,-11069
7755,-11145
7903,-11292
7933,-11271
8011,-11255
8285,-11255
8253,-11249
8186,-11206
8141,-11141
8126,-11062
8126,-10590
8139,-10517
8182,-10450
8193,-10443
8168,-10433
8090,-10354
8048,-10252
8048,-10051
8117,-9981
8482,-9981
8482,-9989
8525,-9989
8525,-9981
8890,-9981
8959,-10051
8959,-10252
8917,-10354
8838,-10433
8815,-10442
8821,-10446
8865,-10512
8881,-10590
8881,-10814
8935,-10868
8994,-10957
9015,-11062
9015,-11428
9098,-11394
9239,-11394
9309,-11464
9309,-11809
9351,-11809
9351,-11464
9421,-11394
9563,-11394
9665,-11436
9744,-11515
9786,-11617
9786,-11739
9716,-11809
9351,-11809
9309,-11809
9301,-11809
9301,-11851
9309,-11851
9309,-11859
9351,-11859
9351,-11851
9716,-11851
9786,-11921
9786,-11923
9797,-11907
9862,-11862
9940,-11846
10295,-11846
10368,-11860
10435,-11903
10464,-11945
10458,-11919
10458,-11694
9905,-11141
9741,-11141
9552,-11064
9408,-10920
9330,-10732
9330,-10528
9408,-10340
9552,-10196
9740,-10118
9943,-10118
10132,-10195
10276,-10339
10354,-10527
10354,-10731
10331,-10787
10789,-11246
11013,-11246
11062,-11255
11062,-11253
11021,-11226
10976,-11160
10960,-11082
10960,-10610
10974,-10537
11017,-10470
11028,-10463
11003,-10452
10925,-10374
10882,-10271
10882,-10071
10952,-10001
11317,-10001
11317,-10009
11359,-10009
11359,-10001
11724,-10001
11794,-10071
11794,-10271
11752,-10374
11673,-10452
11649,-10462
11655,-10466
11700,-10532
11716,-10610
11716,-11082
11702,-11155
11659,-11222
11614,-11253
11614,-11355
11720,-11355
11789,-11424
11789,-11770
11832,-11770
11832,-11424
11901,-11355
12043,-11355
12146,-11397
12224,-11475
12266,-11578
12266,-11700
12197,-11770
11832,-11770
11789,-11770
11781,-11770
11781,-11812
11789,-11812
11789,-11820
11832,-11820
11832,-11812
12197,-11812
12266,-11882
12266,-11884
12277,-11867
12343,-11822
12421,-11807
12775,-11807
12848,-11820
12915,-11864
12929,-11884
12929,-11704
12364,-11139
12304,-11050
12293,-10996
12283,-10944
12283,-10479
12269,-10473
12125,-10329
12047,-10141
12047,-9938
12124,-9749
12268,-9605
12456,-9527
12660,-9527
12848,-9605
12992,-9749
13026,-9830
13402,-9830
13402,-9629
13444,-9527
13523,-9448
13625,-9406
13767,-9406
13837,-9475
13837,-9900
13879,-9900
13879,-9475
13949,-9406
14090,-9406
14193,-9448
14271,-9527
14314,-9629
14314,-9830
14244,-9900
13879,-9900
13837,-9900
13472,-9900
13402,-9830
13026,-9830
13070,-9937
13070,-10140
12993,-10328
12849,-10473
12834,-10479
12834,-10830
13259,-11255
13484,-11255
13557,-11269
13582,-11286
13582,-11194
13541,-11167
13496,-11101
13480,-11023
13480,-10551
13494,-10478
13537,-10411
13547,-10403
13523,-10393
13444,-10315
13402,-10212
13402,-10012
13472,-9942
13837,-9942
13837,-9950
13879,-9950
13879,-9942
14244,-9942
14314,-10012
14314,-10212
14271,-10315
14193,-10393
14169,-10403
14175,-10407
14220,-10473
14236,-10551
14236,-11023
14222,-11096
14179,-11163
14133,-11194
14133,-11389
14216,-11355
14357,-11355
14427,-11424
14427,-11770
14470,-11770
14470,-11424
14539,-11355
14681,-11355
14783,-11397
14862,-11475
14904,-11578
14904,-11700
14835,-11770
14470,-11770
14427,-11770
14419,-11770
14419,-11812
14427,-11812
14427,-11820
14470,-11820
14470,-11812
14835,-11812
14904,-11882
14904,-11884
14915,-11867
14980,-11822
15059,-11807
15413,-11807
15486,-11820
15547,-11860
15547,-11645
14844,-10942
14784,-10853
14779,-10826
14763,-10748
14763,-10361
14749,-10355
14605,-10211
14527,-10023
14527,-9819
14605,-9631
14749,-9487
14937,-9409
15140,-9409
15328,-9487
15473,-9630
15523,-9751
15922,-9751
15922,-9550
15964,-9448
16042,-9369
16145,-9327
16287,-9327
16356,-9397
16356,-9821
15991,-9821
15922,-9751
15523,-9751
15551,-9819
15551,-10022
15473,-10210
15329,-10354
15314,-10361
15314,-10633
15878,-11196
16102,-11196
16102,-11115
16060,-11088
16015,-11022
16000,-10944
16000,-10472
16013,-10399
16056,-10332
16067,-10325
16042,-10315
15964,-10236
15922,-10134
15922,-9933
15991,-9863
16356,-9863
16356,-9871
16399,-9871
16399,-9863
16407,-9863
16407,-9821
16399,-9821
16399,-9397
16468,-9327
16610,-9327
16713,-9369
16791,-9448
16833,-9550
16833,-9567
16888,-9434
17032,-9290
17220,-9212
17424,-9212
17612,-9290
17756,-9434
17773,-9475
18520,-9475
18520,-9275
18562,-9172
18641,-9094
18743,-9051
18885,-9051
18955,-9121
18955,-9545
18997,-9545
18997,-9121
19067,-9051
19208,-9051
19311,-9094
19389,-9172
19432,-9275
19432,-9475
19362,-9545
18997,-9545
18955,-9545
18590,-9545
18520,-9475
17773,-9475
17834,-9622
17834,-9825
17756,-10013
17613,-10158
17598,-10164
17598,-10555
18299,-11255
18523,-11255
18596,-11269
18663,-11312
18708,-11378
18724,-11456
18724,-11929
18710,-12002
18667,-12069
18610,-12108
18779,-12108
18779,-10866
18726,-10856
18659,-10813
18614,-10747
18598,-10669
18598,-10196
18612,-10123
18655,-10056
18665,-10049
18641,-10039
18562,-9961
18520,-9858
18520,-9657
18590,-9588
18955,-9588
18955,-9596
18997,-9596
18997,-9588
19362,-9588
19432,-9657
19432,-9858
19389,-9961
19311,-10039
19287,-10049
19293,-10052
19338,-10118
19354,-10196
19354,-10669
19340,-10742
19330,-10757
19330,-11310
19413,-11276
19554,-11276
19624,-11346
19624,-11691
19666,-11691
19666,-11346
19736,-11276
19878,-11276
19980,-11318
20059,-11397
20101,-11499
20101,-11621
20031,-11691
19666,-11691
19624,-11691
19616,-11691
19616,-11733
19624,-11733
19624,-11741
19666,-11741
19666,-11733
20031,-11733
20101,-11803
20101,-11805
20112,-11789
20177,-11744
20255,-11728
20610,-11728
20683,-11742
20750,-11785
20795,-11851
20810,-11929
20810,-12116
20851,-12116
20860,-12104
" /> 
<polyline style="fill-rule:evenodd;"
points="17316,-11907
17382,-11862
17460,-11846
17814,-11846
17887,-11860
17954,-11903
17968,-11923
17968,-11704
17127,-10864
17068,-10774
17062,-10748
17047,-10669
17047,-10164
17033,-10158
16889,-10014
16826,-9863
16764,-9863
16833,-9933
16833,-10134
16791,-10236
16713,-10315
16689,-10324
16695,-10328
16740,-10394
16755,-10472
16755,-10944
16742,-11017
16698,-11084
16653,-11115
16653,-11394
16759,-11394
16829,-11464
16829,-11809
16871,-11809
16871,-11464
16941,-11394
17083,-11394
17185,-11436
17263,-11515
17306,-11617
17306,-11739
17236,-11809
16871,-11809
16829,-11809
16821,-11809
16821,-11851
16829,-11851
16829,-11859
16871,-11859
16871,-11851
17236,-11851
17306,-11921
17306,-11923
17316,-11907
" /> 
</g>
<g style="fill:#000000; fill-opacity:1.0; 
stroke:#000000; stroke-width:196.85; stroke-opacity:1; 
stroke-linecap:round; stroke-linejoin:round;">
<polyline style="fill-rule:evenodd;"
points="26801,226
718,226
718,-2001
1338,-2001
1464,-1697
1696,-1464
2000,-1338
2329,-1338
2633,-1464
2865,-1696
2991,-2000
2992,-2329
2866,-2633
2634,-2865
2330,-2991
2001,-2992
1697,-2866
1464,-2634
1338,-2330
1338,-2001
718,-2001
718,-3858
16611,-3858
16611,-3540
16685,-3466
17242,-3466
17242,-4023
17245,-4023
17245,-3466
17802,-3466
17877,-3540
17877,-3858
17831,-3968
17747,-4052
17638,-4097
17320,-4097
17245,-4023
17242,-4023
17167,-4097
16850,-4097
16740,-4052
16656,-3968
16611,-3858
718,-3858
718,-5835
4817,-5835
4817,-5697
4865,-5462
4998,-5263
5197,-5131
5333,-5093
5429,-5160
5429,-5835
4817,-5835
718,-5835
718,-14202
1476,-14202
1574,-13963
1757,-13780
1996,-13681
2254,-13680
2493,-13779
2676,-13962
2775,-14200
2775,-14459
2677,-14698
2543,-14832
3362,-15652
3697,-15652
3697,-15511
3743,-15401
3827,-15317
3936,-15272
4097,-15272
4171,-15347
4171,-15726
3772,-15726
3697,-15652
3362,-15652
3727,-16016
3697,-15945
3697,-15804
3772,-15729
4171,-15729
4171,-15737
4174,-15737
4174,-15729
4182,-15729
4182,-15726
4174,-15726
4174,-15347
4249,-15272
4409,-15272
4519,-15317
4603,-15401
4648,-15511
4648,-15631
4650,-15630
4783,-15603
4953,-15603
4960,-15596
4960,-14715
4850,-14694
4736,-14620
4659,-14509
4632,-14376
4632,-13819
4353,-13540
4263,-13406
4232,-13248
4232,-12927
4168,-12971
4035,-12998
3681,-12998
3557,-12975
3443,-12902
3410,-12854
2586,-12854
2547,-12915
2435,-12991
2303,-13018
1948,-13018
1824,-12995
1710,-12921
1634,-12809
1607,-12677
1607,-12204
1630,-12080
1678,-12007
1634,-11943
1607,-11811
1607,-11338
1630,-11214
1704,-11100
1712,-11094
1712,-10820
1575,-10683
1476,-10444
1476,-10186
1574,-9947
1757,-9764
1996,-9665
2254,-9665
2324,-9694
2303,-6734
2327,-6607
2400,-6496
2511,-6422
2641,-6397
5022,-6425
4998,-6409
4865,-6210
4817,-5975
4817,-5838
5429,-5838
5429,-5846
5432,-5846
5432,-5838
5440,-5838
5440,-5835
5432,-5835
5432,-5160
5528,-5093
5664,-5131
5863,-5263
5904,-5324
5971,-5224
6182,-5083
6431,-5033
6679,-5083
6890,-5224
6931,-5284
6971,-5224
7182,-5083
7431,-5033
7679,-5083
7890,-5224
7931,-5284
7971,-5224
8182,-5083
8431,-5033
8679,-5083
8890,-5224
8931,-5284
8971,-5224
9182,-5083
9431,-5033
9679,-5083
9890,-5224
9931,-5284
9971,-5224
10182,-5083
10431,-5033
10679,-5083
10890,-5224
10931,-5284
10971,-5224
11182,-5083
11431,-5033
11679,-5083
11890,-5224
11931,-5284
11971,-5224
12182,-5083
12431,-5033
12679,-5083
12890,-5224
13031,-5434
13080,-5683
13080,-5989
13031,-6238
12890,-6449
12792,-6514
20354,-6601
20354,-6082
20352,-6081
20276,-5969
20249,-5836
20249,-5344
20272,-5220
20330,-5130
20293,-5106
20217,-4994
20190,-4862
20190,-4074
20213,-3950
20286,-3836
20398,-3760
20531,-3733
21122,-3733
21246,-3756
21278,-3777
21304,-3760
21318,-3757
21318,-2723
20984,-2723
20860,-2699
20746,-2626
20669,-2514
20647,-2401
20202,-2401
20184,-2429
20229,-2539
20229,-2817
20154,-2892
19686,-2892
19686,-2884
19683,-2884
19683,-2892
19215,-2892
19140,-2817
19140,-2539
19185,-2429
19186,-2428
19124,-2337
19121,-2322
17880,-2322
17880,-2381
17857,-2505
17783,-2619
17672,-2696
17539,-2723
16870,-2723
16746,-2699
16632,-2626
16555,-2514
16528,-2381
16528,-1956
16324,-1751
7415,-1751
6911,-2255
6931,-2284
6971,-2224
7182,-2083
7431,-2033
7679,-2083
7890,-2224
7931,-2284
7971,-2224
8182,-2083
8431,-2033
8679,-2083
8890,-2224
8957,-2324
8998,-2263
9197,-2131
9333,-2093
9429,-2160
9429,-2835
9421,-2835
9421,-2838
9429,-2838
9429,-3513
9432,-3513
9432,-2838
9440,-2838
9440,-2835
9432,-2835
9432,-2160
9528,-2093
9664,-2131
9863,-2263
9904,-2324
9971,-2224
10182,-2083
10431,-2033
10679,-2083
10890,-2224
10931,-2284
10971,-2224
11182,-2083
11431,-2033
11679,-2083
11890,-2224
11931,-2284
11971,-2224
12182,-2083
12431,-2033
12679,-2083
12890,-2224
13031,-2434
13080,-2683
13080,-2989
13031,-3238
12931,-3388
16611,-3388
16611,-3070
16656,-2960
16740,-2876
16850,-2831
17167,-2831
17242,-2906
17242,-3462
17245,-3462
17245,-2906
17320,-2831
17638,-2831
17747,-2876
17831,-2960
17877,-3070
17877,-3248
19140,-3248
19140,-2969
19215,-2895
19683,-2895
19683,-3412
19686,-3412
19686,-2895
20154,-2895
20229,-2969
20229,-3248
20184,-3358
20100,-3441
19990,-3487
19761,-3487
19686,-3412
19683,-3412
19608,-3487
19379,-3487
19269,-3441
19185,-3358
19140,-3248
17877,-3248
17877,-3388
17802,-3462
17245,-3462
17242,-3462
16685,-3462
16611,-3388
12931,-3388
12890,-3449
12679,-3589
12431,-3639
12182,-3589
11971,-3449
11931,-3388
11890,-3449
11679,-3589
11431,-3639
11182,-3589
10971,-3449
10931,-3388
10890,-3449
10679,-3589
10431,-3639
10182,-3589
9971,-3449
9904,-3348
9863,-3409
9664,-3541
9528,-3579
9432,-3513
9429,-3513
9333,-3579
9197,-3541
8998,-3409
8957,-3348
8890,-3449
8679,-3589
8431,-3639
8182,-3589
7971,-3449
7931,-3388
7890,-3449
7679,-3589
7431,-3639
7182,-3589
6971,-3449
6931,-3388
6890,-3449
6679,-3589
6431,-3639
6182,-3589
5971,-3449
5931,-3388
5890,-3449
5679,-3589
5431,-3639
5182,-3589
4971,-3449
4830,-3238
4781,-2989
4781,-2683
4830,-2434
4971,-2224
5182,-2083
5431,-2033
5679,-2083
5890,-2224
5931,-2284
5971,-2224
6017,-2193
6017,-2151
6049,-1993
6138,-1859
6951,-1046
7085,-956
7244,-925
16496,-925
16654,-956
16788,-1046
17113,-1371
17539,-1371
17663,-1394
17777,-1468
17796,-1496
19119,-1496
19121,-1490
19194,-1376
19306,-1299
19438,-1272
19931,-1272
20055,-1296
20169,-1369
20245,-1481
20264,-1574
20646,-1574
20666,-1470
20739,-1356
20851,-1280
20984,-1253
21565,-1253
21585,-1239
21732,-1210
21879,-1239
21899,-1253
22480,-1253
22604,-1276
22718,-1349
22794,-1461
22821,-1594
22821,-2381
22798,-2505
22724,-2619
22613,-2696
22480,-2723
22145,-2723
22145,-3755
22151,-3756
22221,-3801
22283,-3776
22561,-3776
22636,-3850
22636,-4466
22639,-4466
22639,-3850
22713,-3776
22992,-3776
23102,-3821
23186,-3905
23231,-4015
23231,-4392
23156,-4466
22639,-4466
22636,-4466
22628,-4466
22628,-4470
22636,-4470
22636,-5086
22639,-5086
22639,-4470
23156,-4470
23231,-4544
23231,-4921
23212,-4967
24297,-4967
24297,-4087
24320,-3963
24394,-3849
24505,-3773
24638,-3746
25518,-3746
25642,-3769
25756,-3842
25833,-3954
25859,-4087
25859,-4967
25836,-5091
25763,-5205
25651,-5281
25518,-5308
24638,-5308
24514,-5285
24400,-5212
24324,-5100
24297,-4967
23212,-4967
23186,-5031
23102,-5115
22992,-5160
22713,-5160
22639,-5086
22636,-5086
22561,-5160
22403,-5160
22418,-5175
22463,-5285
22463,-5514
22389,-5588
21871,-5588
21871,-5581
21868,-5581
21868,-5588
21860,-5588
21860,-5592
21868,-5592
21868,-6060
21871,-6060
21871,-5592
22389,-5592
22463,-5666
22463,-5895
22418,-6005
22334,-6089
22224,-6135
21946,-6135
21871,-6060
21868,-6060
21793,-6135
21515,-6135
21405,-6089
21404,-6088
21313,-6150
21181,-6177
21181,-6610
23192,-6633
23308,-6655
23420,-6726
23496,-6835
23523,-6965
23529,-7762
24297,-7762
24297,-6882
24320,-6758
24394,-6644
24505,-6568
24638,-6541
25518,-6541
25642,-6564
25756,-6638
25833,-6750
25859,-6882
25859,-7762
25836,-7886
25763,-8000
25651,-8077
25518,-8104
24638,-8104
24514,-8080
24400,-8007
24324,-7895
24297,-7762
23529,-7762
23538,-8978
23627,-8917
23759,-8891
24429,-8891
24553,-8914
24667,-8987
24699,-9035
24866,-9035
24893,-8994
25005,-8917
25137,-8891
25807,-8891
25931,-8914
26044,-8987
26121,-9099
26148,-9232
26148,-9901
26124,-10025
26051,-10139
25939,-10215
25807,-10242
25137,-10242
25013,-10219
24899,-10146
24867,-10098
24700,-10098
24673,-10139
24561,-10215
24429,-10242
23759,-10242
23635,-10219
23547,-10162
23555,-11262
24839,-11262
24839,-10944
24884,-10834
24968,-10750
25078,-10705
25396,-10705
25470,-10780
25470,-11337
25474,-11337
25474,-10780
25548,-10705
25866,-10705
25976,-10750
26060,-10834
26105,-10944
26105,-11262
26030,-11337
25474,-11337
25470,-11337
24913,-11337
24839,-11262
23555,-11262
23558,-11669
23643,-11723
23649,-11732
24839,-11732
24839,-11414
24913,-11340
25470,-11340
25470,-11897
25474,-11897
25474,-11340
26030,-11340
26105,-11414
26105,-11732
26060,-11842
25976,-11926
25866,-11971
25548,-11971
25474,-11897
25470,-11897
25396,-11971
25078,-11971
24968,-11926
24884,-11842
24839,-11732
23649,-11732
23719,-11835
23746,-11968
23746,-12283
23723,-12407
23650,-12521
23641,-12527
23641,-12574
23620,-12679
24839,-12679
24839,-12361
24884,-12252
24968,-12168
25078,-12122
25396,-12122
25470,-12197
25470,-12754
25474,-12754
25474,-12197
25548,-12122
25866,-12122
25976,-12168
26060,-12252
26105,-12361
26105,-12679
26030,-12754
25474,-12754
25470,-12754
24913,-12754
24839,-12679
23620,-12679
23610,-12732
23520,-12867
23237,-13149
24839,-13149
24839,-12832
24913,-12757
25470,-12757
25470,-13314
25474,-13314
25474,-12757
26030,-12757
26105,-12832
26105,-13149
26060,-13259
25976,-13343
25866,-13388
25548,-13388
25474,-13314
25470,-13314
25396,-13388
25078,-13388
24968,-13343
24884,-13259
24839,-13149
23237,-13149
22538,-13848
22561,-13961
22561,-13990
22505,-14271
22346,-14510
22240,-14581
22240,-15527
22316,-15542
22316,-15492
22339,-15368
22412,-15254
22524,-15177
22657,-15150
22748,-15150
22933,-14966
22933,-14599
22796,-14462
22696,-14224
22696,-13965
22795,-13726
22978,-13544
23216,-13444
23475,-13444
23713,-13543
23896,-13726
23995,-13964
23996,-14223
23897,-14461
23759,-14599
23759,-15137
23728,-15295
23638,-15430
23353,-15715
23353,-15807
23329,-15931
23256,-16044
23245,-16052
23264,-16071
23307,-16174
24566,-16174
24692,-15870
24924,-15638
25228,-15511
25557,-15511
25861,-15637
26094,-15869
26220,-16173
26220,-16502
26095,-16806
25862,-17039
25558,-17165
25229,-17165
24925,-17039
24693,-16807
24567,-16503
24566,-16174
23307,-16174
23310,-16180
23310,-16321
23235,-16396
22836,-16396
22836,-16388
22833,-16388
22833,-16396
22825,-16396
22825,-16399
22833,-16399
22833,-16778
22836,-16778
22836,-16399
23235,-16399
23310,-16473
23310,-16614
23264,-16724
23180,-16808
23071,-16853
22910,-16853
22836,-16778
22833,-16778
22758,-16853
22598,-16853
22488,-16808
22404,-16724
22359,-16614
22359,-16494
22357,-16495
22224,-16522
21870,-16522
21746,-16498
21632,-16425
21555,-16313
21528,-16181
21528,-16087
21444,-15961
21413,-15803
21413,-14653
21359,-14690
21240,-14714
21240,-15629
21208,-15788
21119,-15922
20912,-16129
20912,-16220
20888,-16344
20815,-16458
20703,-16534
20570,-16561
20216,-16561
20124,-16544
20124,-16594
20101,-16718
20028,-16832
19916,-16908
19783,-16935
19429,-16935
19305,-16912
19191,-16839
19114,-16727
19087,-16594
19087,-16279
19111,-16155
19184,-16041
19195,-16034
19176,-16015
19130,-15905
19130,-15765
19205,-15690
19604,-15690
19604,-15698
19606,-15698
19606,-15679
19604,-15679
19604,-15687
19205,-15687
19130,-15612
19130,-15472
19176,-15362
19260,-15278
19369,-15233
19530,-15233
19604,-15307
19604,-15255
19191,-14744
19044,-14744
18805,-14645
18681,-14521
18641,-14560
18641,-15177
18610,-15335
18520,-15469
18195,-15794
18195,-15885
18172,-16009
18098,-16123
18088,-16130
18107,-16149
18152,-16259
18152,-16400
18078,-16474
17678,-16474
17678,-16466
17675,-16466
17675,-16474
17667,-16474
17667,-16477
17675,-16477
17675,-16857
17678,-16857
17678,-16477
18078,-16477
18152,-16552
18152,-16693
18107,-16802
18023,-16886
17913,-16932
17753,-16932
17678,-16857
17675,-16857
17600,-16932
17440,-16932
17330,-16886
17247,-16802
17201,-16693
17201,-16572
17199,-16574
17066,-16601
16712,-16601
16588,-16577
16474,-16504
16398,-16392
16371,-16259
16371,-16165
16287,-16040
16255,-15881
16255,-14653
16202,-14690
16082,-14714
16082,-15669
16051,-15827
15961,-15961
15754,-16168
15754,-16259
15731,-16383
15657,-16497
15546,-16574
15413,-16601
15059,-16601
14967,-16583
14967,-16633
14943,-16757
14870,-16871
14758,-16948
14625,-16975
14271,-16975
14147,-16951
14033,-16878
13957,-16766
13930,-16633
13930,-16318
13953,-16194
14027,-16080
14037,-16073
14018,-16054
13973,-15945
13973,-15804
14047,-15729
14447,-15729
14447,-15737
14448,-15737
14448,-15267
14107,-14704
14044,-14704
13805,-14606
13622,-14423
13535,-14212
13464,-14383
13326,-14521
13326,-15413
13295,-15571
13241,-15652
13973,-15652
13973,-15511
14018,-15401
14102,-15317
14212,-15272
14372,-15272
14447,-15347
14447,-15726
14047,-15726
13973,-15652
13241,-15652
13205,-15705
13077,-15833
13077,-15925
13054,-16049
12980,-16163
12970,-16170
12989,-16189
13034,-16298
13034,-16439
12960,-16514
12560,-16514
12560,-16506
12557,-16506
12557,-16514
12549,-16514
12549,-16517
12557,-16517
12557,-16897
12560,-16897
12560,-16517
12960,-16517
13034,-16591
13034,-16732
12989,-16842
12905,-16926
12795,-16971
12635,-16971
12560,-16897
12557,-16897
12482,-16971
12322,-16971
12212,-16926
12128,-16842
12083,-16732
12083,-16612
12081,-16613
11948,-16640
11594,-16640
11470,-16617
11356,-16543
11280,-16431
11253,-16299
11253,-16235
11244,-16227
11151,-16086
11118,-15921
11118,-14667
11083,-14690
10984,-14710
10984,-14763
10951,-14929
10899,-15006
10857,-15070
10144,-15783
10144,-15846
10127,-15938
10177,-15938
10301,-15961
10415,-16034
10491,-16146
10518,-16279
10518,-16633
10495,-16757
10421,-16871
10309,-16948
10177,-16975
9862,-16975
9738,-16951
9624,-16878
9617,-16867
9598,-16886
9488,-16932
9347,-16932
9273,-16857
9273,-16458
9281,-16458
9281,-16456
9212,-16456
9204,-16455
8890,-16455
8815,-16380
8815,-16222
8730,-16095
8711,-16001
8700,-15944
8700,-14619
8544,-14462
8467,-14279
8425,-14383
8287,-14521
8287,-15255
8255,-15414
8166,-15548
7919,-15794
7919,-15885
7896,-16009
7823,-16123
7812,-16130
7831,-16149
7877,-16259
7877,-16400
7802,-16474
7403,-16474
7403,-16466
7400,-16466
7400,-16474
7392,-16474
7392,-16477
7400,-16477
7400,-16857
7403,-16857
7403,-16477
7802,-16477
7877,-16552
7877,-16693
7877,-16693
8815,-16693
8815,-16532
8890,-16458
9270,-16458
9270,-16857
9195,-16932
9054,-16932
8945,-16886
8861,-16802
8815,-16693
7877,-16693
7831,-16802
7747,-16886
7638,-16932
7477,-16932
7403,-16857
7400,-16857
7325,-16932
7165,-16932
7055,-16886
6971,-16802
6925,-16693
6925,-16572
6924,-16574
6791,-16601
6437,-16601
6312,-16577
6199,-16504
6122,-16392
6095,-16259
6095,-16168
6081,-16154
5992,-16020
5960,-15862
5960,-14653
5906,-14690
5787,-14714
5787,-15767
5755,-15925
5666,-16060
5478,-16247
5478,-16259
5455,-16383
5382,-16497
5270,-16574
5137,-16601
4783,-16601
4691,-16583
4691,-16633
4668,-16757
4594,-16871
4483,-16948
4350,-16975
3996,-16975
3872,-16951
3775,-16889
3602,-16889
3444,-16858
3310,-16768
1833,-15292
1744,-15158
1712,-15000
1712,-14835
1575,-14699
1476,-14460
1476,-14202
718,-14202
718,-17785
26801,-17785
26801,226
" /> 
</g>
<g style="fill:#FFFFFF; fill-opacity:1.0; 
stroke:#FFFFFF; stroke-width:196.85; stroke-opacity:1; 
stroke-linecap:round; stroke-linejoin:round;">
</g>
<g style="fill:#FFFFFF; fill-opacity:1.0; 
stroke:#FFFFFF; stroke-width:0; stroke-opacity:1; 
stroke-linecap:round; stroke-linejoin:round;">
<circle cx="2125.98" cy="-10315" r="68.8976" /> 
</g>
<g style="fill:#FFFFFF; fill-opacity:1.0; 
stroke:#FFFFFF; stroke-width:39.3701; stroke-opacity:1; 
stroke-linecap:round; stroke-linejoin:round;">
</g>
<g style="fill:#FFFFFF; fill-opacity:1.0; 
stroke:#FFFFFF; stroke-width:0; stroke-opacity:1; 
stroke-linecap:round; stroke-linejoin:round;">
<circle cx="7480.31" cy="-10629.9" r="68.8976" /> 
</g>
<g style="fill:#FFFFFF; fill-opacity:1.0; 
stroke:#FFFFFF; stroke-width:39.3701; stroke-opacity:1; 
stroke-linecap:round; stroke-linejoin:round;">
</g>
<g style="fill:#FFFFFF; fill-opacity:1.0; 
stroke:#FFFFFF; stroke-width:0; stroke-opacity:1; 
stroke-linecap:round; stroke-linejoin:round;">
<circle cx="2125.98" cy="-14330.7" r="68.8976" /> 
</g>
<g style="fill:#FFFFFF; fill-opacity:1.0; 
stroke:#FFFFFF; stroke-width:39.3701; stroke-opacity:1; 
stroke-linecap:round; stroke-linejoin:round;">
</g>
<g style="fill:#FFFFFF; fill-opacity:1.0; 
stroke:#FFFFFF; stroke-width:0; stroke-opacity:1; 
stroke-linecap:round; stroke-linejoin:round;">
<circle cx="9094.49" cy="-14094.5" r="68.8976" /> 
</g>
<g style="fill:#FFFFFF; fill-opacity:1.0; 
stroke:#FFFFFF; stroke-width:39.3701; stroke-opacity:1; 
stroke-linecap:round; stroke-linejoin:round;">
</g>
<g style="fill:#FFFFFF; fill-opacity:1.0; 
stroke:#FFFFFF; stroke-width:0; stroke-opacity:1; 
stroke-linecap:round; stroke-linejoin:round;">
<circle cx="7874.02" cy="-14015.7" r="68.8976" /> 
</g>
<g style="fill:#FFFFFF; fill-opacity:1.0; 
stroke:#FFFFFF; stroke-width:39.3701; stroke-opacity:1; 
stroke-linecap:round; stroke-linejoin:round;">
</g>
<g style="fill:#FFFFFF; fill-opacity:1.0; 
stroke:#FFFFFF; stroke-width:0; stroke-opacity:1; 
stroke-linecap:round; stroke-linejoin:round;">
<circle cx="12913.4" cy="-14015.7" r="68.8976" /> 
</g>
<g style="fill:#FFFFFF; fill-opacity:1.0; 
stroke:#FFFFFF; stroke-width:39.3701; stroke-opacity:1; 
stroke-linecap:round; stroke-linejoin:round;">
</g>
<g style="fill:#FFFFFF; fill-opacity:1.0; 
stroke:#FFFFFF; stroke-width:0; stroke-opacity:1; 
stroke-linecap:round; stroke-linejoin:round;">
<circle cx="4645.67" cy="-10472.4" r="68.8976" /> 
</g>
<g style="fill:#FFFFFF; fill-opacity:1.0; 
stroke:#FFFFFF; stroke-width:39.3701; stroke-opacity:1; 
stroke-linecap:round; stroke-linejoin:round;">
</g>
<g style="fill:#FFFFFF; fill-opacity:1.0; 
stroke:#FFFFFF; stroke-width:0; stroke-opacity:1; 
stroke-linecap:round; stroke-linejoin:round;">
<circle cx="9842.52" cy="-10629.9" r="68.8976" /> 
</g>
<g style="fill:#FFFFFF; fill-opacity:1.0; 
stroke:#FFFFFF; stroke-width:39.3701; stroke-opacity:1; 
stroke-linecap:round; stroke-linejoin:round;">
</g>
<g style="fill:#FFFFFF; fill-opacity:1.0; 
stroke:#FFFFFF; stroke-width:0; stroke-opacity:1; 
stroke-linecap:round; stroke-linejoin:round;">
<circle cx="12559.1" cy="-10039.4" r="68.8976" /> 
</g>
<g style="fill:#FFFFFF; fill-opacity:1.0; 
stroke:#FFFFFF; stroke-width:39.3701; stroke-opacity:1; 
stroke-linecap:round; stroke-linejoin:round;">
</g>
<g style="fill:#FFFFFF; fill-opacity:1.0; 
stroke:#FFFFFF; stroke-width:0; stroke-opacity:1; 
stroke-linecap:round; stroke-linejoin:round;">
<circle cx="17322.8" cy="-9724.41" r="68.8976" /> 
</g>
<g style="fill:#FFFFFF; fill-opacity:1.0; 
stroke:#FFFFFF; stroke-width:39.3701; stroke-opacity:1; 
stroke-linecap:round; stroke-linejoin:round;">
</g>
<g style="fill:#FFFFFF; fill-opacity:1.0; 
stroke:#FFFFFF; stroke-width:0; stroke-opacity:1; 
stroke-linecap:round; stroke-linejoin:round;">
<circle cx="14173.2" cy="-14055.1" r="68.8976" /> 
</g>
<g style="fill:#FFFFFF; fill-opacity:1.0; 
stroke:#FFFFFF; stroke-width:39.3701; stroke-opacity:1; 
stroke-linecap:round; stroke-linejoin:round;">
</g>
<g style="fill:#FFFFFF; fill-opacity:1.0; 
stroke:#FFFFFF; stroke-width:0; stroke-opacity:1; 
stroke-linecap:round; stroke-linejoin:round;">
<circle cx="19173.2" cy="-14094.5" r="68.8976" /> 
</g>
<g style="fill:#FFFFFF; fill-opacity:1.0; 
stroke:#FFFFFF; stroke-width:39.3701; stroke-opacity:1; 
stroke-linecap:round; stroke-linejoin:round;">
</g>
<g style="fill:#FFFFFF; fill-opacity:1.0; 
stroke:#FFFFFF; stroke-width:0; stroke-opacity:1; 
stroke-linecap:round; stroke-linejoin:round;">
<circle cx="18228.3" cy="-14055.1" r="68.8976" /> 
</g>
<g style="fill:#FFFFFF; fill-opacity:1.0; 
stroke:#FFFFFF; stroke-width:39.3701; stroke-opacity:1; 
stroke-linecap:round; stroke-linejoin:round;">
</g>
<g style="fill:#FFFFFF; fill-opacity:1.0; 
stroke:#FFFFFF; stroke-width:0; stroke-opacity:1; 
stroke-linecap:round; stroke-linejoin:round;">
<circle cx="23346.5" cy="-14094.5" r="68.8976" /> 
</g>
<g style="fill:#FFFFFF; fill-opacity:1.0; 
stroke:#FFFFFF; stroke-width:39.3701; stroke-opacity:1; 
stroke-linecap:round; stroke-linejoin:round;">
</g>
<g style="fill:#FFFFFF; fill-opacity:1.0; 
stroke:#FFFFFF; stroke-width:0; stroke-opacity:1; 
stroke-linecap:round; stroke-linejoin:round;">
<circle cx="15039.4" cy="-9921.26" r="68.8976" /> 
</g>
<g style="fill:#FFFFFF; fill-opacity:1.0; 
stroke:#FFFFFF; stroke-width:39.3701; stroke-opacity:1; 
stroke-linecap:round; stroke-linejoin:round;">
</g>
<g style="fill:#FFFFFF; fill-opacity:1.0; 
stroke:#FFFFFF; stroke-width:0; stroke-opacity:1; 
stroke-linecap:round; stroke-linejoin:round;">
<circle cx="19291.3" cy="-7637.8" r="68.8976" /> 
</g>
<g style="fill:#FFFFFF; fill-opacity:1.0; 
stroke:#FFFFFF; stroke-width:39.3701; stroke-opacity:1; 
stroke-linecap:round; stroke-linejoin:round;">
</g>
<g style="fill:#FFFFFF; fill-opacity:1.0; 
stroke:#FFFFFF; stroke-width:0; stroke-opacity:1; 
stroke-linecap:round; stroke-linejoin:round;">
<circle cx="17244.1" cy="-3464.57" r="68.8976" /> 
</g>
<g style="fill:#FFFFFF; fill-opacity:1.0; 
stroke:#FFFFFF; stroke-width:39.3701; stroke-opacity:1; 
stroke-linecap:round; stroke-linejoin:round;">
</g>
<g style="fill:#FFFFFF; fill-opacity:1.0; 
stroke:#FFFFFF; stroke-width:0; stroke-opacity:1; 
stroke-linecap:round; stroke-linejoin:round;">
<circle cx="25472.4" cy="-12755.9" r="68.8976" /> 
</g>
<g style="fill:#FFFFFF; fill-opacity:1.0; 
stroke:#FFFFFF; stroke-width:39.3701; stroke-opacity:1; 
stroke-linecap:round; stroke-linejoin:round;">
</g>
<g style="fill:#FFFFFF; fill-opacity:1.0; 
stroke:#FFFFFF; stroke-width:0; stroke-opacity:1; 
stroke-linecap:round; stroke-linejoin:round;">
<circle cx="25472.4" cy="-9566.93" r="68.8976" /> 
</g>
<g style="fill:#FFFFFF; fill-opacity:1.0; 
stroke:#FFFFFF; stroke-width:39.3701; stroke-opacity:1; 
stroke-linecap:round; stroke-linejoin:round;">
</g>
<g style="fill:#FFFFFF; fill-opacity:1.0; 
stroke:#FFFFFF; stroke-width:0; stroke-opacity:1; 
stroke-linecap:round; stroke-linejoin:round;">
<circle cx="25393.7" cy="-16338.6" r="68.8976" /> 
</g>
<g style="fill:#FFFFFF; fill-opacity:1.0; 
stroke:#FFFFFF; stroke-width:39.3701; stroke-opacity:1; 
stroke-linecap:round; stroke-linejoin:round;">
</g>
<g style="fill:#FFFFFF; fill-opacity:1.0; 
stroke:#FFFFFF; stroke-width:0; stroke-opacity:1; 
stroke-linecap:round; stroke-linejoin:round;">
<circle cx="5374.02" cy="-13976.4" r="68.8976" /> 
</g>
<g style="fill:#FFFFFF; fill-opacity:1.0; 
stroke:#FFFFFF; stroke-width:39.3701; stroke-opacity:1; 
stroke-linecap:round; stroke-linejoin:round;">
</g>
<g style="fill:#FFFFFF; fill-opacity:1.0; 
stroke:#FFFFFF; stroke-width:0; stroke-opacity:1; 
stroke-linecap:round; stroke-linejoin:round;">
<circle cx="6374.02" cy="-13976.4" r="68.8976" /> 
</g>
<g style="fill:#FFFFFF; fill-opacity:1.0; 
stroke:#FFFFFF; stroke-width:39.3701; stroke-opacity:1; 
stroke-linecap:round; stroke-linejoin:round;">
</g>
<g style="fill:#FFFFFF; fill-opacity:1.0; 
stroke:#FFFFFF; stroke-width:0; stroke-opacity:1; 
stroke-linecap:round; stroke-linejoin:round;">
<circle cx="10551.2" cy="-13976.4" r="68.8976" /> 
</g>
<g style="fill:#FFFFFF; fill-opacity:1.0; 
stroke:#FFFFFF; stroke-width:39.3701; stroke-opacity:1; 
stroke-linecap:round; stroke-linejoin:round;">
</g>
<g style="fill:#FFFFFF; fill-opacity:1.0; 
stroke:#FFFFFF; stroke-width:0; stroke-opacity:1; 
stroke-linecap:round; stroke-linejoin:round;">
<circle cx="11551.2" cy="-13976.4" r="68.8976" /> 
</g>
<g style="fill:#FFFFFF; fill-opacity:1.0; 
stroke:#FFFFFF; stroke-width:39.3701; stroke-opacity:1; 
stroke-linecap:round; stroke-linejoin:round;">
</g>
<g style="fill:#FFFFFF; fill-opacity:1.0; 
stroke:#FFFFFF; stroke-width:0; stroke-opacity:1; 
stroke-linecap:round; stroke-linejoin:round;">
<circle cx="25078.7" cy="-4527.56" r="68.8976" /> 
</g>
<g style="fill:#FFFFFF; fill-opacity:1.0; 
stroke:#FFFFFF; stroke-width:39.3701; stroke-opacity:1; 
stroke-linecap:round; stroke-linejoin:round;">
</g>
<g style="fill:#FFFFFF; fill-opacity:1.0; 
stroke:#FFFFFF; stroke-width:0; stroke-opacity:1; 
stroke-linecap:round; stroke-linejoin:round;">
<circle cx="25078.7" cy="-7322.83" r="68.8976" /> 
</g>
<g style="fill:#FFFFFF; fill-opacity:1.0; 
stroke:#FFFFFF; stroke-width:39.3701; stroke-opacity:1; 
stroke-linecap:round; stroke-linejoin:round;">
</g>
<g style="fill:#FFFFFF; fill-opacity:1.0; 
stroke:#FFFFFF; stroke-width:0; stroke-opacity:1; 
stroke-linecap:round; stroke-linejoin:round;">
<circle cx="15669.3" cy="-13976.4" r="68.8976" /> 
</g>
<g style="fill:#FFFFFF; fill-opacity:1.0; 
stroke:#FFFFFF; stroke-width:39.3701; stroke-opacity:1; 
stroke-linecap:round; stroke-linejoin:round;">
</g>
<g style="fill:#FFFFFF; fill-opacity:1.0; 
stroke:#FFFFFF; stroke-width:0; stroke-opacity:1; 
stroke-linecap:round; stroke-linejoin:round;">
<circle cx="16669.3" cy="-13976.4" r="68.8976" /> 
</g>
<g style="fill:#FFFFFF; fill-opacity:1.0; 
stroke:#FFFFFF; stroke-width:39.3701; stroke-opacity:1; 
stroke-linecap:round; stroke-linejoin:round;">
</g>
<g style="fill:#FFFFFF; fill-opacity:1.0; 
stroke:#FFFFFF; stroke-width:0; stroke-opacity:1; 
stroke-linecap:round; stroke-linejoin:round;">
<circle cx="20826.8" cy="-13976.4" r="68.8976" /> 
</g>
<g style="fill:#FFFFFF; fill-opacity:1.0; 
stroke:#FFFFFF; stroke-width:39.3701; stroke-opacity:1; 
stroke-linecap:round; stroke-linejoin:round;">
</g>
<g style="fill:#FFFFFF; fill-opacity:1.0; 
stroke:#FFFFFF; stroke-width:0; stroke-opacity:1; 
stroke-linecap:round; stroke-linejoin:round;">
<circle cx="21826.8" cy="-13976.4" r="68.8976" /> 
</g>
<g style="fill:#FFFFFF; fill-opacity:1.0; 
stroke:#FFFFFF; stroke-width:39.3701; stroke-opacity:1; 
stroke-linecap:round; stroke-linejoin:round;">
</g>
<g style="fill:#FFFFFF; fill-opacity:1.0; 
stroke:#FFFFFF; stroke-width:0; stroke-opacity:1; 
stroke-linecap:round; stroke-linejoin:round;">
<circle cx="12431.1" cy="-5836.61" r="68.8976" /> 
</g>
<g style="fill:#FFFFFF; fill-opacity:1.0; 
stroke:#FFFFFF; stroke-width:39.3701; stroke-opacity:1; 
stroke-linecap:round; stroke-linejoin:round;">
</g>
<g style="fill:#FFFFFF; fill-opacity:1.0; 
stroke:#FFFFFF; stroke-width:0; stroke-opacity:1; 
stroke-linecap:round; stroke-linejoin:round;">
<circle cx="11431.1" cy="-5836.61" r="68.8976" /> 
</g>
<g style="fill:#FFFFFF; fill-opacity:1.0; 
stroke:#FFFFFF; stroke-width:39.3701; stroke-opacity:1; 
stroke-linecap:round; stroke-linejoin:round;">
</g>
<g style="fill:#FFFFFF; fill-opacity:1.0; 
stroke:#FFFFFF; stroke-width:0; stroke-opacity:1; 
stroke-linecap:round; stroke-linejoin:round;">
<circle cx="10431.1" cy="-5836.61" r="68.8976" /> 
</g>
<g style="fill:#FFFFFF; fill-opacity:1.0; 
stroke:#FFFFFF; stroke-width:39.3701; stroke-opacity:1; 
stroke-linecap:round; stroke-linejoin:round;">
</g>
<g style="fill:#FFFFFF; fill-opacity:1.0; 
stroke:#FFFFFF; stroke-width:0; stroke-opacity:1; 
stroke-linecap:round; stroke-linejoin:round;">
<circle cx="9431.1" cy="-5836.61" r="68.8976" /> 
</g>
<g style="fill:#FFFFFF; fill-opacity:1.0; 
stroke:#FFFFFF; stroke-width:39.3701; stroke-opacity:1; 
stroke-linecap:round; stroke-linejoin:round;">
</g>
<g style="fill:#FFFFFF; fill-opacity:1.0; 
stroke:#FFFFFF; stroke-width:0; stroke-opacity:1; 
stroke-linecap:round; stroke-linejoin:round;">
<circle cx="8431.1" cy="-5836.61" r="68.8976" /> 
</g>
<g style="fill:#FFFFFF; fill-opacity:1.0; 
stroke:#FFFFFF; stroke-width:39.3701; stroke-opacity:1; 
stroke-linecap:round; stroke-linejoin:round;">
</g>
<g style="fill:#FFFFFF; fill-opacity:1.0; 
stroke:#FFFFFF; stroke-width:0; stroke-opacity:1; 
stroke-linecap:round; stroke-linejoin:round;">
<circle cx="7431.1" cy="-5836.61" r="68.8976" /> 
</g>
<g style="fill:#FFFFFF; fill-opacity:1.0; 
stroke:#FFFFFF; stroke-width:39.3701; stroke-opacity:1; 
stroke-linecap:round; stroke-linejoin:round;">
</g>
<g style="fill:#FFFFFF; fill-opacity:1.0; 
stroke:#FFFFFF; stroke-width:0; stroke-opacity:1; 
stroke-linecap:round; stroke-linejoin:round;">
<circle cx="6431.1" cy="-5836.61" r="68.8976" /> 
</g>
<g style="fill:#FFFFFF; fill-opacity:1.0; 
stroke:#FFFFFF; stroke-width:39.3701; stroke-opacity:1; 
stroke-linecap:round; stroke-linejoin:round;">
</g>
<g style="fill:#FFFFFF; fill-opacity:1.0; 
stroke:#FFFFFF; stroke-width:0; stroke-opacity:1; 
stroke-linecap:round; stroke-linejoin:round;">
<circle cx="5431.1" cy="-5836.61" r="68.8976" /> 
</g>
<g style="fill:#FFFFFF; fill-opacity:1.0; 
stroke:#FFFFFF; stroke-width:39.3701; stroke-opacity:1; 
stroke-linecap:round; stroke-linejoin:round;">
</g>
<g style="fill:#FFFFFF; fill-opacity:1.0; 
stroke:#FFFFFF; stroke-width:0; stroke-opacity:1; 
stroke-linecap:round; stroke-linejoin:round;">
<circle cx="5431.1" cy="-2836.61" r="68.8976" /> 
</g>
<g style="fill:#FFFFFF; fill-opacity:1.0; 
stroke:#FFFFFF; stroke-width:39.3701; stroke-opacity:1; 
stroke-linecap:round; stroke-linejoin:round;">
</g>
<g style="fill:#FFFFFF; fill-opacity:1.0; 
stroke:#FFFFFF; stroke-width:0; stroke-opacity:1; 
stroke-linecap:round; stroke-linejoin:round;">
<circle cx="6431.1" cy="-2836.61" r="68.8976" /> 
</g>
<g style="fill:#FFFFFF; fill-opacity:1.0; 
stroke:#FFFFFF; stroke-width:39.3701; stroke-opacity:1; 
stroke-linecap:round; stroke-linejoin:round;">
</g>
<g style="fill:#FFFFFF; fill-opacity:1.0; 
stroke:#FFFFFF; stroke-width:0; stroke-opacity:1; 
stroke-linecap:round; stroke-linejoin:round;">
<circle cx="7431.1" cy="-2836.61" r="68.8976" /> 
</g>
<g style="fill:#FFFFFF; fill-opacity:1.0; 
stroke:#FFFFFF; stroke-width:39.3701; stroke-opacity:1; 
stroke-linecap:round; stroke-linejoin:round;">
</g>
<g style="fill:#FFFFFF; fill-opacity:1.0; 
stroke:#FFFFFF; stroke-width:0; stroke-opacity:1; 
stroke-linecap:round; stroke-linejoin:round;">
<circle cx="8431.1" cy="-2836.61" r="68.8976" /> 
</g>
<g style="fill:#FFFFFF; fill-opacity:1.0; 
stroke:#FFFFFF; stroke-width:39.3701; stroke-opacity:1; 
stroke-linecap:round; stroke-linejoin:round;">
</g>
<g style="fill:#FFFFFF; fill-opacity:1.0; 
stroke:#FFFFFF; stroke-width:0; stroke-opacity:1; 
stroke-linecap:round; stroke-linejoin:round;">
<circle cx="9431.1" cy="-2836.61" r="68.8976" /> 
</g>
<g style="fill:#FFFFFF; fill-opacity:1.0; 
stroke:#FFFFFF; stroke-width:39.3701; stroke-opacity:1; 
stroke-linecap:round; stroke-linejoin:round;">
</g>
<g style="fill:#FFFFFF; fill-opacity:1.0; 
stroke:#FFFFFF; stroke-width:0; stroke-opacity:1; 
stroke-linecap:round; stroke-linejoin:round;">
<circle cx="10431.1" cy="-2836.61" r="68.8976" /> 
</g>
<g style="fill:#FFFFFF; fill-opacity:1.0; 
stroke:#FFFFFF; stroke-width:39.3701; stroke-opacity:1; 
stroke-linecap:round; stroke-linejoin:round;">
</g>
<g style="fill:#FFFFFF; fill-opacity:1.0; 
stroke:#FFFFFF; stroke-width:0; stroke-opacity:1; 
stroke-linecap:round; stroke-linejoin:round;">
<circle cx="11431.1" cy="-2836.61" r="68.8976" /> 
</g>
<g style="fill:#FFFFFF; fill-opacity:1.0; 
stroke:#FFFFFF; stroke-width:39.3701; stroke-opacity:1; 
stroke-linecap:round; stroke-linejoin:round;">
</g>
<g style="fill:#FFFFFF; fill-opacity:1.0; 
stroke:#FFFFFF; stroke-width:0; stroke-opacity:1; 
stroke-linecap:round; stroke-linejoin:round;">
<circle cx="12431.1" cy="-2836.61" r="68.8976" /> 
</g>
<g style="fill:#FFFFFF; fill-opacity:1.0; 
stroke:#FFFFFF; stroke-width:39.3701; stroke-opacity:1; 
stroke-linecap:round; stroke-linejoin:round;">
</g>
<g style="fill:#FFFFFF; fill-opacity:1.0; 
stroke:#FFFFFF; stroke-width:0; stroke-opacity:1; 
stroke-linecap:round; stroke-linejoin:round;">
<circle cx="17204.7" cy="-2047.24" r="68.8976" /> 
</g>
<g style="fill:#FFFFFF; fill-opacity:1.0; 
stroke:#FFFFFF; stroke-width:39.3701; stroke-opacity:1; 
stroke-linecap:round; stroke-linejoin:round;">
</g>
<g style="fill:#FFFFFF; fill-opacity:1.0; 
stroke:#FFFFFF; stroke-width:0; stroke-opacity:1; 
stroke-linecap:round; stroke-linejoin:round;">
<circle cx="2165.35" cy="-2165.35" r="68.8976" /> 
</g>
<g style="fill:#FFFFFF; fill-opacity:1.0; 
stroke:#FFFFFF; stroke-width:39.3701; stroke-opacity:1; 
stroke-linecap:round; stroke-linejoin:round;">
</g>
<g style="fill:#FFFFFF; fill-opacity:1.0; 
stroke:#FFFFFF; stroke-width:0; stroke-opacity:1; 
stroke-linecap:round; stroke-linejoin:round;">
<circle cx="24094.5" cy="-9566.93" r="68.8976" /> 
</g>
<g style="fill:#FFFFFF; fill-opacity:1.0; 
stroke:#FFFFFF; stroke-width:39.3701; stroke-opacity:1; 
stroke-linecap:round; stroke-linejoin:round;">
</g>
<g style="fill:#FFFFFF; fill-opacity:1.0; 
stroke:#FFFFFF; stroke-width:0; stroke-opacity:1; 
stroke-linecap:round; stroke-linejoin:round;">
<circle cx="25472.4" cy="-11338.6" r="68.8976" /> 
</g>
<g style="fill:#FFFFFF; fill-opacity:1.0; 
stroke:#FFFFFF; stroke-width:39.3701; stroke-opacity:1; 
stroke-linecap:round; stroke-linejoin:round;">
</g>
<g style="fill:#000000; fill-opacity:1.0; 
stroke:#000000; stroke-width:39.3701; stroke-opacity:1; 
stroke-linecap:round; stroke-linejoin:round;">
</g> 
</svg>
